<svg width="58" height="58" viewBox="0 0 58 58" fill="none" xmlns="http://www.w3.org/2000/svg">
<path fill-rule="evenodd" clip-rule="evenodd" d="M54.8174 28.6737C54.8174 43.1125 43.1125 54.8174 28.6737 54.8174C14.235 54.8174 2.53004 43.1125 2.53004 28.6737C2.53004 14.235 14.235 2.53004 28.6737 2.53004C43.1125 2.53004 54.8174 14.235 54.8174 28.6737ZM57.3475 28.6737C57.3475 44.5098 44.5098 57.3475 28.6737 57.3475C12.8377 57.3475 0 44.5098 0 28.6737C0 12.8377 12.8377 0 28.6737 0C44.5098 0 57.3475 12.8377 57.3475 28.6737ZM21.2967 36.762V38.7102H35.2713V36.4983H24.5633L30.2908 30.2874C30.8279 29.7014 31.3357 29.1155 31.8142 28.5295C32.3025 27.9338 32.7322 27.3333 33.1033 26.7278C33.4646 26.1223 33.7527 25.512 33.9676 24.8967C34.1824 24.2717 34.2898 23.6418 34.2898 23.0071C34.2898 22.1575 34.1385 21.3713 33.8357 20.6487C33.5428 19.926 33.118 19.301 32.5613 18.7737C32.0047 18.2463 31.3211 17.8362 30.5105 17.5432C29.7097 17.2405 28.8064 17.0891 27.8006 17.0891C26.7068 17.0891 25.7303 17.2649 24.8709 17.6165C24.0213 17.968 23.3035 18.4417 22.7176 19.0374C22.1219 19.6331 21.6678 20.3313 21.3553 21.1321C21.0428 21.9231 20.8865 22.7678 20.8865 23.6663H23.6111C23.6111 23.0022 23.6941 22.4016 23.8601 21.8645C24.0359 21.3274 24.2996 20.8684 24.6512 20.4875C24.993 20.1165 25.4226 19.8284 25.9402 19.6233C26.4676 19.4182 27.0877 19.3157 27.8006 19.3157C28.3865 19.3157 28.909 19.4182 29.368 19.6233C29.8367 19.8186 30.2371 20.0872 30.5691 20.429C30.8914 20.7708 31.1355 21.176 31.3015 21.6448C31.4773 22.1038 31.5652 22.5969 31.5652 23.1243C31.5652 23.554 31.5115 23.9739 31.4041 24.384C31.2967 24.7844 31.116 25.2092 30.8621 25.6584C30.6082 26.1174 30.2713 26.6155 29.8513 27.1526C29.4314 27.6897 28.909 28.3049 28.284 28.9983L21.2967 36.762Z" fill="#97A483"/>
</svg>
