<svg width="58" height="58" viewBox="0 0 58 58" fill="none" xmlns="http://www.w3.org/2000/svg">
<path fill-rule="evenodd" clip-rule="evenodd" d="M54.8174 28.6737C54.8174 43.1125 43.1125 54.8174 28.6737 54.8174C14.235 54.8174 2.53004 43.1125 2.53004 28.6737C2.53004 14.235 14.235 2.53004 28.6737 2.53004C43.1125 2.53004 54.8174 14.235 54.8174 28.6737ZM57.3475 28.6737C57.3475 44.5098 44.5098 57.3475 28.6737 57.3475C12.8377 57.3475 0 44.5098 0 28.6737C0 12.8377 12.8377 0 28.6737 0C44.5098 0 57.3475 12.8377 57.3475 28.6737ZM32.1805 19.7991V17.3674H31.9461C30.4226 17.3674 29.0603 17.5823 27.8592 18.012C26.658 18.4319 25.6375 19.0618 24.7976 19.9016C23.5769 21.1223 22.7566 22.592 22.3367 24.3108C21.9168 26.0295 21.7068 27.7776 21.7068 29.5549V30.8293C21.7068 31.8645 21.8631 32.8997 22.1756 33.9348C22.4881 34.9602 22.9617 35.8586 23.5965 36.6301C24.1629 37.3333 24.8611 37.9045 25.6912 38.344C26.5213 38.7834 27.4832 39.0032 28.5769 39.0032C29.6609 39.0032 30.6131 38.8127 31.4334 38.4319C32.2635 38.051 32.9568 37.5286 33.5135 36.8645C34.0701 36.2102 34.4851 35.4436 34.7586 34.5647C35.0418 33.6858 35.1834 32.7483 35.1834 31.7522C35.1834 30.8831 35.0662 30.0286 34.8318 29.1887C34.5974 28.3489 34.2312 27.5969 33.7332 26.9329C33.2351 26.2688 32.6004 25.7366 31.8289 25.3362C31.0574 24.926 30.1394 24.7209 29.075 24.7209C28.5867 24.7209 28.118 24.7795 27.6687 24.8967C27.2293 25.0042 26.8191 25.1506 26.4383 25.3362C26.0476 25.5315 25.6863 25.761 25.3543 26.0247C25.0222 26.2786 24.7293 26.5569 24.4754 26.8596C24.534 25.9221 24.7195 25.009 25.032 24.1204C25.3543 23.2317 25.823 22.4651 26.4383 21.8206C27.0242 21.2053 27.7664 20.717 28.6648 20.3557C29.5633 19.9846 30.657 19.7991 31.9461 19.7991H32.1805ZM27.3025 27.1965C27.7322 27.05 28.1765 26.9768 28.6355 26.9768C29.2898 26.9768 29.8611 27.1135 30.3494 27.387C30.8377 27.6604 31.243 28.0266 31.5652 28.4856C31.8875 28.9446 32.1267 29.4719 32.283 30.0676C32.4392 30.6536 32.5174 31.259 32.5174 31.884C32.5174 32.5872 32.4295 33.2415 32.2537 33.8469C32.0877 34.4426 31.8387 34.9553 31.5066 35.385C31.1648 35.8147 30.7498 36.1516 30.2615 36.3958C29.7732 36.6399 29.2117 36.762 28.5769 36.762C28.0301 36.762 27.5076 36.635 27.0096 36.3811C26.5115 36.1174 26.0721 35.7366 25.6912 35.2385C25.3103 34.7405 25.0076 34.1301 24.783 33.4075C24.5584 32.675 24.4461 31.8401 24.4461 30.9026V29.9944C24.6121 29.5452 24.8367 29.135 25.1199 28.7639C25.4031 28.3928 25.7303 28.0754 26.1013 27.8118C26.4724 27.5481 26.8728 27.343 27.3025 27.1965Z" fill="#97A483"/>
</svg>
