<svg width="58" height="58" viewBox="0 0 58 58" fill="none" xmlns="http://www.w3.org/2000/svg">
<path fill-rule="evenodd" clip-rule="evenodd" d="M54.8174 28.6737C54.8174 43.1125 43.1125 54.8174 28.6737 54.8174C14.235 54.8174 2.53004 43.1125 2.53004 28.6737C2.53004 14.235 14.235 2.53004 28.6737 2.53004C43.1125 2.53004 54.8174 14.235 54.8174 28.6737ZM57.3475 28.6737C57.3475 44.5098 44.5098 57.3475 28.6737 57.3475C12.8377 57.3475 0 44.5098 0 28.6737C0 12.8377 12.8377 0 28.6737 0C44.5098 0 57.3475 12.8377 57.3475 28.6737ZM24.2263 17.3821L23.157 28.0168L25.325 28.5735C25.5691 28.3586 25.8035 28.1682 26.0281 28.0022C26.2625 27.8362 26.5115 27.6946 26.7752 27.5774C27.0388 27.4602 27.3318 27.3723 27.6541 27.3137C27.9861 27.2454 28.3767 27.2112 28.826 27.2112C29.5096 27.2112 30.115 27.3333 30.6424 27.5774C31.1697 27.8215 31.614 28.1536 31.9754 28.5735C32.3367 29.0032 32.6101 29.5061 32.7957 30.0823C32.991 30.6584 33.0887 31.2786 33.0887 31.9426C33.0887 32.675 33.0008 33.3391 32.825 33.9348C32.659 34.5305 32.4099 35.0383 32.0779 35.4583C31.7361 35.8879 31.3162 36.22 30.8181 36.4543C30.3201 36.679 29.7488 36.7913 29.1043 36.7913C27.9617 36.7913 27.0242 36.4788 26.2918 35.8538C25.5691 35.2288 25.1248 34.3108 24.9588 33.0999H22.3806C22.4783 34.0862 22.7176 34.9504 23.0984 35.6926C23.489 36.4348 23.9871 37.05 24.5926 37.5383C25.1883 38.0266 25.8719 38.3928 26.6433 38.637C27.4148 38.8811 28.2351 39.0032 29.1043 39.0032C30.2371 39.0032 31.2234 38.8274 32.0633 38.4758C32.9031 38.1145 33.6013 37.6165 34.158 36.9817C34.7049 36.3567 35.115 35.6096 35.3885 34.7405C35.6619 33.8713 35.7986 32.929 35.7986 31.9133C35.7986 30.8391 35.6521 29.8625 35.3592 28.9836C35.0662 28.1047 34.6463 27.3528 34.0994 26.7278C33.5525 26.1125 32.8885 25.634 32.1072 25.2922C31.326 24.9504 30.4422 24.7795 29.4558 24.7795C28.6844 24.7795 28.0056 24.8723 27.4197 25.0579C26.8338 25.2434 26.3308 25.4583 25.9109 25.7024L26.5115 20.0188H35.1687V17.3821H24.2263Z" fill="#97A483"/>
</svg>
