<svg width="58" height="58" viewBox="0 0 58 58" fill="none" xmlns="http://www.w3.org/2000/svg">
<path fill-rule="evenodd" clip-rule="evenodd" d="M54.8174 28.6737C54.8174 43.1125 43.1125 54.8174 28.6737 54.8174C14.235 54.8174 2.53004 43.1125 2.53004 28.6737C2.53004 14.235 14.235 2.53004 28.6737 2.53004C43.1125 2.53004 54.8174 14.235 54.8174 28.6737ZM57.3475 28.6737C57.3475 44.5098 44.5098 57.3475 28.6737 57.3475C12.8377 57.3475 0 44.5098 0 28.6737C0 12.8377 12.8377 0 28.6737 0C44.5098 0 57.3475 12.8377 57.3475 28.6737ZM34.9051 24.9553C35.1687 24.3303 35.3055 23.6614 35.3152 22.9485C35.3152 22.0208 35.1541 21.1956 34.8318 20.4729C34.5096 19.7405 34.0652 19.1252 33.4988 18.6272C32.9324 18.1292 32.2635 17.7483 31.492 17.4846C30.7205 17.2209 29.8855 17.0891 28.9871 17.0891C28.0789 17.0891 27.239 17.2209 26.4676 17.4846C25.7058 17.7483 25.0515 18.1292 24.5047 18.6272C23.948 19.1252 23.5135 19.7405 23.201 20.4729C22.8885 21.1956 22.7322 22.0208 22.7322 22.9485C22.7322 23.4758 22.8055 23.9788 22.9519 24.4573C23.0984 24.9358 23.3035 25.3752 23.5672 25.7756C23.8308 26.1858 24.1531 26.5569 24.534 26.8889C24.9148 27.2112 25.3396 27.4895 25.8084 27.7239C25.2615 27.9583 24.7683 28.2512 24.3289 28.6028C23.8894 28.9543 23.5135 29.3499 23.201 29.7893C22.8885 30.2385 22.6492 30.7317 22.4832 31.2688C22.3172 31.7961 22.2342 32.3577 22.2342 32.9534C22.2342 33.9299 22.4099 34.7942 22.7615 35.5461C23.1131 36.2981 23.5965 36.928 24.2117 37.4358C24.8172 37.9534 25.5301 38.344 26.3504 38.6077C27.1805 38.8713 28.074 39.0032 29.031 39.0032C29.9685 39.0032 30.8474 38.8713 31.6678 38.6077C32.4881 38.3342 33.2058 37.9387 33.8211 37.4211C34.4265 36.9133 34.9051 36.2834 35.2566 35.5315C35.618 34.7795 35.7986 33.9202 35.7986 32.9534C35.7986 32.3577 35.7107 31.7961 35.5349 31.2688C35.3689 30.7415 35.1297 30.2532 34.8172 29.804C34.4949 29.3547 34.1092 28.9592 33.6599 28.6174C33.2205 28.2659 32.7273 27.9729 32.1805 27.7385C32.493 27.5823 32.7859 27.4065 33.0594 27.2112C33.3328 27.0159 33.5818 26.8059 33.8064 26.5813C34.2752 26.1125 34.6414 25.5706 34.9051 24.9553ZM32.781 31.2542C32.9861 31.7522 33.0887 32.2991 33.0887 32.8948C33.0887 33.51 32.9861 34.0618 32.781 34.55C32.5857 35.0286 32.3123 35.4338 31.9607 35.7659C31.5994 36.0979 31.1697 36.3518 30.6717 36.5276C30.1736 36.7034 29.6267 36.7913 29.031 36.7913C28.406 36.7913 27.8396 36.7034 27.3318 36.5276C26.8338 36.3518 26.409 36.0979 26.0574 35.7659C25.7058 35.4338 25.4324 35.0286 25.2371 34.55C25.0515 34.0618 24.9588 33.51 24.9588 32.8948C24.9588 32.2991 25.0515 31.7522 25.2371 31.2542C25.4324 30.7561 25.7058 30.3264 26.0574 29.9651C26.409 29.6135 26.8338 29.3401 27.3318 29.1448C27.8299 28.9495 28.3865 28.8518 29.0017 28.8518C29.5974 28.8518 30.1443 28.9495 30.6424 29.1448C31.1502 29.3401 31.5847 29.6135 31.9461 29.9651C32.3074 30.3264 32.5857 30.7561 32.781 31.2542ZM32.3123 21.5129C32.4978 21.9622 32.5906 22.4553 32.5906 22.9924C32.5906 23.5393 32.5027 24.0374 32.3269 24.4866C32.1512 24.9358 31.907 25.3167 31.5945 25.6292C31.2722 25.9514 30.8914 26.2004 30.4519 26.3762C30.0125 26.5422 29.534 26.6252 29.0164 26.6252C28.489 26.6252 28.0056 26.5422 27.5662 26.3762C27.1365 26.2004 26.7654 25.9514 26.4529 25.6292C26.1306 25.3167 25.8816 24.9407 25.7058 24.5012C25.5398 24.052 25.4568 23.5491 25.4568 22.9924C25.4568 22.4358 25.5398 21.9329 25.7058 21.4836C25.8816 21.0247 26.1258 20.634 26.4383 20.3118C26.7508 19.9895 27.1219 19.7454 27.5515 19.5793C27.9812 19.4036 28.4597 19.3157 28.9871 19.3157C29.5144 19.3157 29.9978 19.4084 30.4373 19.594C30.8767 19.7698 31.2576 20.0188 31.5799 20.3411C31.8924 20.6731 32.1365 21.0637 32.3123 21.5129Z" fill="#97A483"/>
</svg>
