<svg width="58" height="58" viewBox="0 0 58 58" fill="none" xmlns="http://www.w3.org/2000/svg">
<path fill-rule="evenodd" clip-rule="evenodd" d="M54.8174 28.6737C54.8174 43.1125 43.1125 54.8174 28.6737 54.8174C14.235 54.8174 2.53004 43.1125 2.53004 28.6737C2.53004 14.235 14.235 2.53004 28.6737 2.53004C43.1125 2.53004 54.8174 14.235 54.8174 28.6737ZM57.3475 28.6737C57.3475 44.5098 44.5098 57.3475 28.6737 57.3475C12.8377 57.3475 0 44.5098 0 28.6737C0 12.8377 12.8377 0 28.6737 0C44.5098 0 57.3475 12.8377 57.3475 28.6737ZM36.1502 31.5471H33.1765V17.3821H30.2908L20.74 32.1624V33.759H30.4666V38.7102H33.1765V33.759H36.1502V31.5471ZM30.4666 31.5471H23.743L30.0271 21.8059L30.4666 20.9856V31.5471Z" fill="#97A483"/>
</svg>
