<svg width="661" height="688" viewBox="0 0 661 688" fill="none" xmlns="http://www.w3.org/2000/svg">
<path d="M600 654.337C600 653.471 465.672 652.836 300.037 652.836C134.402 652.836 0 653.471 0 654.337C0 655.202 134.3 655.836 300.037 655.836C465.773 655.836 600 655.144 600 654.337Z" fill="#263238"/>
<path d="M217.271 66.4024C220.058 57.4011 225.814 49.608 233.601 44.2929C241.388 38.9777 250.747 36.4538 260.153 37.1322C269.56 37.8107 278.459 41.6516 285.401 48.0291C292.343 54.4066 296.919 62.9448 298.383 72.2528C299.847 81.5607 298.113 91.0897 293.464 99.2873C288.815 107.485 281.524 113.868 272.779 117.396C264.035 120.925 254.352 121.391 245.308 118.718C236.265 116.046 228.394 110.392 222.977 102.679L209.049 100.293L216.7 89.0595C214.783 81.6004 214.981 73.7557 217.271 66.4024Z" fill="white"/>
<path d="M217.271 66.4026C216.591 68.2931 216.096 70.2448 215.791 72.2305C214.853 77.849 215.091 83.6008 216.489 89.123V88.933L208.796 100.145C208.747 100.196 208.719 100.265 208.719 100.335C208.719 100.406 208.747 100.474 208.796 100.525H208.901L222.829 102.933C222.91 102.945 222.993 102.926 223.06 102.878C223.127 102.831 223.173 102.76 223.189 102.679C223.199 102.623 223.199 102.566 223.189 102.51L222.639 102.806C226.252 107.978 230.983 112.272 236.483 115.37C239.479 117.06 242.683 118.352 246.014 119.213L248.593 119.889C249.459 120.057 250.347 120.163 251.235 120.311C253.042 120.566 254.863 120.714 256.688 120.754C260.445 120.776 264.19 120.308 267.826 119.361L269.221 119.002L270.594 118.516C271.482 118.178 272.433 117.904 273.321 117.524C275.126 116.748 276.877 115.852 278.562 114.842C280.275 113.813 281.927 112.685 283.508 111.463C285.061 110.15 286.529 108.739 287.904 107.24C289.296 105.743 290.588 104.156 291.772 102.489C292.911 100.753 293.941 98.9473 294.857 97.0836C296.947 92.8398 298.291 88.2685 298.831 83.5696C299.336 79.0027 299.115 74.3845 298.176 69.8867C297.246 65.5531 295.626 61.3968 293.378 57.5762C292.296 55.7172 291.081 53.9388 289.743 52.2551C288.408 50.6409 286.96 49.1238 285.41 47.7152L284.269 46.6594C283.888 46.3216 283.466 46.026 283.064 45.7092C282.24 45.0969 281.458 44.4634 280.612 43.8933C278.953 42.7896 277.216 41.8086 275.413 40.9582C273.677 40.1273 271.882 39.4216 270.045 38.8466C269.178 38.5088 268.227 38.361 267.319 38.1076C266.43 37.8442 265.527 37.6327 264.613 37.4741C258.469 36.3541 252.152 36.6224 246.125 38.2593C240.098 39.8962 234.514 42.8602 229.783 46.9339C228.042 48.443 226.417 50.0806 224.922 51.8328C223.701 53.331 222.586 54.9113 221.582 56.5627C221.117 57.3228 220.674 57.9985 220.314 58.6742C219.955 59.3499 219.659 60.0257 219.384 60.638C219.11 61.2504 218.835 61.7994 218.581 62.3061L218.074 63.7631C217.778 64.6077 217.546 65.2412 217.398 65.7269C217.25 66.2125 217.186 66.4026 217.186 66.4026C217.186 66.4026 217.292 66.1914 217.461 65.748C217.63 65.3046 217.905 64.65 218.222 63.8265L218.771 62.3906L219.596 60.7436L220.547 58.801C220.927 58.1464 221.392 57.4707 221.836 56.6894C222.863 55.064 223.993 53.5053 225.218 52.0228C226.721 50.3109 228.346 48.709 230.079 47.2295C234.338 43.6355 239.265 40.916 244.577 39.2267C251.026 37.2201 257.867 36.8142 264.508 38.0443C265.413 38.2052 266.31 38.4167 267.192 38.6777C268.092 38.8748 268.981 39.1216 269.855 39.4168C271.665 39.9917 273.431 40.6975 275.138 41.5283C276.903 42.3695 278.606 43.3363 280.232 44.4212C281.056 44.9702 281.817 45.6248 282.62 46.216C283.022 46.5327 283.445 46.8072 283.825 47.1451L284.924 48.1797C286.433 49.5742 287.845 51.0698 289.151 52.6563C290.443 54.3213 291.622 56.0708 292.681 57.893C294.894 61.6461 296.485 65.7318 297.394 69.9922C298.308 74.401 298.515 78.927 298.007 83.4007C297.488 88.0219 296.165 92.5169 294.097 96.6824C293.217 98.5079 292.214 100.272 291.095 101.961C289.933 103.606 288.662 105.172 287.291 106.649C285.975 108.101 284.563 109.462 283.064 110.724C281.524 111.939 279.907 113.053 278.224 114.061C276.57 115.049 274.855 115.93 273.088 116.7C272.201 117.08 271.292 117.355 270.404 117.671L269.052 118.157L267.699 118.516C264.12 119.462 260.432 119.938 256.73 119.931C254.94 119.907 253.154 119.766 251.383 119.508L248.783 119.107L246.247 118.453C242.966 117.62 239.811 116.356 236.863 114.694C231.463 111.686 226.805 107.509 223.231 102.468C223.169 102.415 223.091 102.385 223.009 102.385C222.927 102.385 222.849 102.415 222.787 102.468C222.734 102.514 222.696 102.575 222.677 102.642C222.659 102.71 222.66 102.781 222.681 102.848L223.041 102.426L209.113 100.082L209.282 100.504L216.89 89.2497C216.905 89.224 216.913 89.1949 216.913 89.1652C216.913 89.1356 216.905 89.1065 216.89 89.0808C215.467 83.609 215.165 77.9062 216.003 72.315C216.299 70.3723 216.658 68.9153 216.869 67.944L217.165 66.8249C217.25 66.5715 217.271 66.4026 217.271 66.4026Z" fill="#263238"/>
<path d="M245.476 98.6753L238.021 91.9885L268.013 58.6169L275.467 65.3037L245.476 98.6753Z" fill="#FF725E"/>
<path d="M276.731 89.9572L270.038 97.4045L236.636 67.4408L243.329 59.9935L276.731 89.9572Z" fill="#FF725E"/>
<path d="M224.139 295.043L101.725 301.906C99.3372 300.068 85.5783 318.798 83.7607 321.121C82.1823 323.665 81.2937 326.576 81.1822 329.567C79.4492 344.207 77.702 358.826 75.9407 373.424C73.1932 396.504 70.4245 419.879 72.7705 442.937C72.7758 444.545 73.2696 446.113 74.1865 447.435C75.2306 448.493 76.5593 449.227 78.012 449.546C100.584 456.451 124.826 447.435 148.413 448.68C157.797 449.187 167.033 451.341 176.395 452.249C189.309 453.516 202.328 452.376 215.241 451.257L246.331 448.533C257.657 396.368 249.778 341.873 224.139 295.043Z" fill="#97A483"/>
<path d="M125.84 7.61667C124.793 6.43187 123.484 5.5076 122.016 4.91742C120.548 4.32723 118.963 4.08741 117.387 4.21705C116.15 4.53474 114.843 4.4383 113.667 3.94254C112.988 3.33931 112.416 2.62532 111.976 1.83097C111.532 1.30302 110.986 0.869861 110.371 0.557349C109.756 0.244837 109.084 0.059393 108.396 0.0120909C107.707 -0.0352112 107.016 0.056589 106.364 0.28203C105.712 0.50747 105.112 0.861934 104.6 1.32422C104.17 1.86116 103.656 2.32471 103.078 2.69672C100.563 3.8792 98.048 -0.850711 95.554 0.352881C96.6435 0.831421 97.5639 1.62593 98.1959 2.63338C98.4948 3.14372 98.6136 3.73959 98.5331 4.32541C98.4526 4.91122 98.1776 5.45306 97.7521 5.86407C95.3638 7.78559 91.792 3.0979 89.1501 4.66046C87.7341 5.50509 87.4594 7.84893 85.832 8.16567C85.196 8.20453 84.5583 8.12578 83.9509 7.93339C82.8831 7.80879 81.8079 8.09536 80.9441 8.73477C80.0803 9.37418 79.4928 10.3184 79.3012 11.3753C79.0265 13.1912 79.8508 15.4506 78.4347 16.6119C77.9446 16.8995 77.3975 17.0767 76.8318 17.1314C76.266 17.1861 75.695 17.117 75.1588 16.9287C75.114 18.6089 75.4538 20.2772 76.1521 21.8064C74.66 22.6557 73.5554 24.0498 73.0706 25.6958C72.5858 27.3417 72.7586 29.1113 73.5525 30.6327C71.9843 31.5992 70.626 32.8701 69.558 34.3702C69.031 35.1239 68.7259 36.0101 68.6774 36.9282C68.6288 37.8463 68.8387 38.7597 69.2833 39.5647C69.5485 39.893 69.7689 40.2551 69.9384 40.6416C70.0647 41.076 70.0647 41.5374 69.9384 41.9719C69.3233 43.5999 68.8978 45.2932 68.6703 47.0185C68.6703 48.7711 69.8539 50.7349 71.6081 50.6504C72.0036 50.5553 72.4193 50.5924 72.7917 50.7559C72.9065 50.8567 72.9995 50.9798 73.065 51.1178C73.1304 51.2558 73.1668 51.4058 73.1721 51.5584C73.228 52.8103 73.0926 54.0635 72.7705 55.2747C72.4305 56.4918 72.5744 57.793 73.1721 58.9066C73.3289 59.1748 73.543 59.4052 73.7992 59.5813C74.0554 59.7574 74.3473 59.8748 74.6541 59.9252C74.961 59.9756 75.2751 59.9578 75.5742 59.873C75.8733 59.7882 76.1501 59.6384 76.3846 59.4345C75.7929 61.356 75.2222 63.2775 74.6304 65.1779C74.2922 66.3182 73.9964 67.7118 74.7995 68.5776C75.6026 69.4433 77.864 68.9577 78.7728 67.6696C79.6816 66.3816 79.9564 64.7556 80.8863 63.4465C81.3152 62.9753 81.6909 62.4583 82.0065 61.905C82.2178 61.4405 82.3024 60.8915 82.704 60.5959C83.5282 59.9835 84.6695 61.1237 84.5216 62.1162C84.2203 63.0864 83.6485 63.9508 82.873 64.6078C82.4923 64.9416 82.2176 65.3792 82.0824 65.8668C81.9472 66.3545 81.9576 66.871 82.1122 67.3529C82.3447 67.7752 82.7885 68.0708 83.021 68.5142C83.7607 70.0134 81.5415 71.3648 81.2245 73.0119C81.197 73.6392 81.3143 74.2644 81.5671 74.8392C81.82 75.414 82.2017 75.923 82.6828 76.327C83.7184 77.4461 85.7685 78.4386 86.5083 77.0661C86.6672 76.5607 86.7943 76.0459 86.8887 75.5246C87.2028 74.9892 87.6368 74.5338 88.1568 74.1943C89.347 73.1985 90.2209 71.8777 90.6718 70.3935C89.3192 71.935 87.882 73.9621 88.7063 75.8414C89.1446 76.5696 89.6856 77.231 90.3126 77.8051C91.4327 79.0721 92.0879 80.6769 93.1658 82.0283C93.6558 82.7086 94.3518 83.2134 95.151 83.4681C95.9503 83.7229 96.8103 83.7141 97.6041 83.443C97.3026 84.2435 97.2834 85.1228 97.5496 85.9356C97.8158 86.7485 98.3516 87.4464 99.0684 87.9139C99.7852 88.3815 100.64 88.5909 101.492 88.5074C102.344 88.424 103.142 88.0527 103.754 87.455C104.047 87.0926 104.415 86.7973 104.832 86.5892C105.309 86.4537 105.814 86.4537 106.291 86.5892C107.76 86.8975 109.287 86.7967 110.703 86.2977C112.119 85.7988 113.371 84.9209 114.322 83.7597L112.842 83.1685C115.822 83.1441 118.754 82.4208 121.402 81.0569C122.699 80.335 123.71 79.1918 124.268 77.8168C124.825 76.4418 124.895 74.9178 124.467 73.4975C123.981 72.315 122.966 71.0692 123.494 69.9079C123.734 69.5423 124.044 69.2287 124.407 68.9856C124.77 68.7426 125.179 68.5751 125.608 68.4931L136.175 65.2624C137.942 64.8937 139.572 64.0463 140.889 62.813C141.205 62.499 141.456 62.1256 141.627 61.7143C141.799 61.303 141.887 60.8619 141.887 60.4164C141.887 59.9709 141.799 59.5298 141.627 59.1185C141.456 58.7072 141.205 58.3337 140.889 58.0197C141.779 56.4297 143.096 55.1203 144.693 54.24C146.489 53.2687 148.539 52.8887 150.357 52.0018C151.313 51.6369 152.148 51.0127 152.767 50.1994C153.387 49.3861 153.768 48.4161 153.865 47.3986C153.865 45.287 151.097 43.6822 149.638 45.097C150.04 42.0563 155.493 42.0986 156.085 39.1001C156.571 36.6507 153.485 35.2359 151.858 33.2722C152.217 32.4276 153.105 31.9208 153.506 31.1606C154.33 29.4291 152.576 27.571 150.864 26.663C149.152 25.755 147.081 24.847 146.743 22.9466C146.405 21.0462 148.138 18.9135 147.187 17.1821C146.919 16.6994 146.472 16.3408 145.943 16.1829C145.414 16.0251 144.844 16.0805 144.355 16.3374C143.108 12.7689 136.345 15.1338 134.569 11.7976C134.405 11.5406 134.338 11.2338 134.379 10.9318C134.434 10.6779 134.559 10.4441 134.738 10.2561C135.658 9.43424 136.672 8.72533 137.761 8.14456C138.294 7.83894 138.721 7.37806 138.986 6.82345C139.25 6.26884 139.339 5.64688 139.24 5.04056C138.839 3.8792 136.662 3.81585 136.64 5.04056C136.325 4.76898 135.951 4.57331 135.548 4.46859C135.144 4.36388 134.722 4.3529 134.314 4.4365C133.906 4.5201 133.522 4.69607 133.193 4.95086C132.863 5.20565 132.597 5.5325 132.413 5.90631C131.949 5.42369 131.335 5.11284 130.67 5.02461C130.006 4.93639 129.332 5.07599 128.757 5.42063C127.632 6.15393 126.692 7.13667 126.01 8.29236" fill="#263238"/>
<path d="M101.599 7.00461C101.599 7.00461 101.832 7.00463 102.233 7.19467C102.807 7.40559 103.302 7.78918 103.649 8.29266C104.214 9.06935 104.498 10.0152 104.452 10.9744C104.353 12.2272 104.068 13.4583 103.607 14.6274V14.8385H103.839C105.525 14.9362 107.131 15.5897 108.405 16.6967C109.121 17.3004 109.686 18.0641 110.053 18.926C110.421 19.788 110.58 20.7241 110.518 21.6589C110.477 22.5175 110.24 23.3555 109.826 24.1092C109.413 24.8629 108.832 25.5125 108.13 26.0087L107.644 26.3255H108.235C109.2 26.414 110.136 26.7018 110.984 27.1707C111.832 27.6396 112.573 28.2794 113.16 29.0494C114.09 30.2575 114.575 31.7489 114.534 33.2725C114.5 34.2992 114.248 35.3071 113.794 36.2287C113.477 36.8622 113.244 37.1789 113.266 37.2C113.287 37.2211 113.266 37.2 113.456 36.9889C113.635 36.7738 113.791 36.5402 113.921 36.292C114.571 35.1211 114.871 33.788 114.785 32.4516C114.699 31.1152 114.23 29.8317 113.435 28.7537C112.825 27.932 112.048 27.2479 111.156 26.7458C110.264 26.2437 109.276 25.935 108.257 25.8398V26.1988C109.019 25.679 109.65 24.9883 110.097 24.1816C110.545 23.375 110.798 22.4749 110.835 21.5533C110.922 20.5296 110.732 19.5015 110.286 18.576C109.886 17.6839 109.286 16.8961 108.531 16.2744C107.193 15.1182 105.502 14.4484 103.734 14.374L103.882 14.5852C104.345 13.3822 104.616 12.1138 104.685 10.8266C104.71 9.82091 104.389 8.83697 103.776 8.03928C103.388 7.51276 102.839 7.12718 102.212 6.94126C102.051 6.91899 101.887 6.91899 101.726 6.94126L101.599 7.00461Z" fill="#455A64"/>
<path d="M74.7573 34.2224L74.9686 34.3702C75.1705 34.5058 75.3825 34.6258 75.6027 34.7292C76.4517 35.1436 77.3555 35.4351 78.2869 35.5949C79.6904 35.8325 81.1271 35.7895 82.5139 35.4683C84.3295 35.0597 86.0014 34.1698 87.3537 32.8921H87.0579C87.598 34.0581 88.3929 35.0883 89.3841 35.9069C90.3753 36.7254 91.5376 37.3115 92.7854 37.622C94.129 37.9302 95.5356 37.8086 96.8062 37.2743C98.0768 36.74 99.1471 35.8201 99.8657 34.6447H99.5063C99.7588 35.5696 100.247 36.4135 100.922 37.0941C101.543 37.6916 102.257 38.1838 103.036 38.5511C104.332 39.1011 105.728 39.3744 107.136 39.3535C108.041 39.352 108.945 39.2885 109.841 39.1635C110.163 39.1359 110.481 39.0793 110.792 38.9946H109.82C108.926 39.0466 108.03 39.0466 107.136 38.9946C105.773 38.9842 104.427 38.6893 103.184 38.1288C102.392 37.794 101.685 37.2866 101.114 36.6435C100.544 36.0005 100.124 35.2383 99.8868 34.4125L99.76 33.9479L99.5275 34.3702C98.8481 35.4704 97.8398 36.3293 96.6451 36.8257C95.4504 37.3221 94.1299 37.4308 92.87 37.1364C91.6814 36.8379 90.5739 36.2796 89.6273 35.5019C88.6807 34.7241 87.9187 33.7463 87.396 32.6387L87.2692 32.4065L87.079 32.5965C85.7891 33.8486 84.1813 34.7248 82.4293 35.1304C81.0484 35.4814 79.6113 35.5532 78.2023 35.3416C77.0058 35.1369 75.8454 34.7599 74.7573 34.2224Z" fill="#455A64"/>
<path d="M85.5364 55.3169C85.5619 55.4087 85.605 55.4948 85.6632 55.5703C85.8605 55.7836 86.1188 55.931 86.4029 55.9926C87.4217 56.1525 88.4637 56.073 89.4464 55.7603C90.9252 55.311 92.226 54.4101 93.1661 53.1842C94.3025 51.6632 94.8301 49.7733 94.6456 47.8842L94.3285 48.0742C95.9403 49.048 97.8204 49.4843 99.6968 49.3201C101.195 49.176 102.641 48.6921 103.924 47.9053C104.794 47.389 105.584 46.7488 106.27 46.0049C106.539 45.7483 106.774 45.4572 106.967 45.1392C106.004 46.0963 104.933 46.9394 103.776 47.6519C102.482 48.3949 101.037 48.8353 99.5489 48.94C97.7534 49.0818 95.9582 48.6611 94.4131 47.7364L94.0749 47.5252V47.9264C94.2372 49.5524 93.8428 51.1854 92.956 52.5585C92.0692 53.9315 90.7425 54.9635 89.1928 55.4858C88.2573 55.8118 87.2614 55.9272 86.2761 55.8237C85.979 55.7437 85.7181 55.565 85.5364 55.3169Z" fill="#455A64"/>
<path d="M131.209 10.1716C131.54 11.5538 131.619 12.9846 131.441 14.3948C131.218 15.9195 130.631 17.3681 129.729 18.6179C128.604 20.1119 127.059 21.2368 125.291 21.8486C124.275 22.2149 123.201 22.3938 122.121 22.3765H121.867V22.6299C122.174 24.0819 122.21 25.5781 121.973 27.0431C121.774 28.2141 121.411 29.3515 120.895 30.4216C120.704 30.8235 120.485 31.2116 120.24 31.5829C120.151 31.7146 120.036 31.826 119.901 31.9097C119.766 31.9935 119.615 32.0476 119.458 32.0686C119.358 32.0698 119.259 32.0497 119.168 32.0096C119.077 31.9696 118.995 31.9105 118.929 31.8363C118.929 31.7307 118.929 31.6674 118.823 31.6674C118.718 31.6674 118.823 31.6674 118.823 31.8786C118.89 31.9742 118.978 32.0528 119.081 32.1078C119.184 32.1629 119.299 32.1929 119.415 32.1953C119.601 32.1979 119.784 32.1527 119.947 32.0639C120.11 31.9751 120.247 31.8458 120.345 31.6885C120.625 31.3235 120.872 30.9349 121.085 30.5271C121.657 29.4561 122.056 28.3017 122.268 27.1064C122.564 25.6004 122.564 24.0514 122.268 22.5454L122.057 22.7777C123.186 22.7972 124.309 22.6185 125.375 22.2498C127.068 21.6944 128.566 20.6649 129.69 19.2835C130.814 17.9022 131.517 16.2273 131.716 14.4581C131.849 13.4078 131.791 12.342 131.547 11.3119C131.488 11.0325 131.41 10.7573 131.314 10.4884L131.209 10.1716Z" fill="#455A64"/>
<path d="M110.792 54.1557C110.274 53.9836 109.724 53.9303 109.182 53.9997C108.641 54.0692 108.122 54.2596 107.664 54.5569C107.213 54.8562 106.828 55.2449 106.534 55.699C106.239 56.153 106.042 56.6627 105.952 57.1963C105.805 57.7139 105.805 58.2624 105.952 58.78C106.133 59.2502 106.414 59.6754 106.777 60.0258C107.276 60.5506 107.892 60.9504 108.575 61.1926C109.258 61.4347 109.989 61.5124 110.708 61.4194C111.426 61.3158 112.096 60.9986 112.632 60.509C113.167 60.0194 113.542 59.3801 113.709 58.6744C113.815 57.9669 113.757 57.2446 113.54 56.5628C113.416 55.9764 113.175 55.4212 112.83 54.9311C112.484 54.441 112.043 54.0263 111.532 53.7122C110.648 53.356 109.691 53.2183 108.742 53.311" fill="#97A483"/>
<path d="M133.788 29.0279C133.616 28.7183 133.368 28.4569 133.069 28.2677C132.632 28.1097 132.153 28.1097 131.716 28.2677C125.986 29.5737 120.645 32.2126 116.128 35.9698C111.61 39.7271 108.045 44.4965 105.72 49.8902C105.437 50.3665 105.333 50.9276 105.424 51.4738C105.594 51.9542 105.913 52.3682 106.333 52.6563C108.024 54.0874 109.858 55.3399 111.807 56.3938L136.091 32.3642L133.788 29.0279Z" fill="#97A483"/>
<path d="M108.468 58.8013C102.508 59.6248 96.8014 64.7559 93.9482 70.0348C91.2982 75.4709 89.9591 81.4514 90.0382 87.4974C90.3122 87.4354 90.5711 87.3194 90.7998 87.1563C91.0284 86.9931 91.2222 86.7861 91.3697 86.5472L98.7458 77.5942C100.498 75.5377 102.129 73.3802 103.628 71.1328C106.035 67.3702 107.706 63.1858 108.552 58.8013" fill="#97A483"/>
<path d="M110.307 58.8013C103.396 63.7846 99.6124 73.9623 99.5278 82.493C99.8036 91.0622 102.076 99.4491 106.164 106.987C106.473 106.726 106.725 106.403 106.903 106.04C107.081 105.676 107.182 105.28 107.2 104.876C108.299 99.5404 109.384 94.1911 110.455 88.8277C111.288 85.0871 111.902 81.3009 112.293 77.4886C112.821 71.1761 112.146 64.8209 110.307 58.759" fill="#97A483"/>
<path d="M192.141 80.5923C191.697 76.6648 194.487 72.4839 193.304 68.7253C192.12 64.9667 190.514 64.6711 190.514 64.6711C194.551 58.3364 188.717 55.528 188.717 55.528C189.442 55.0084 189.984 54.273 190.264 53.4272C190.545 52.5814 190.551 51.6685 190.281 50.8192C189.711 48.2008 187.618 47.2718 186.815 46.0259C186.268 45.0365 185.856 43.9784 185.589 42.8797C183.476 36.186 176.861 30.7171 169.823 31.0761C168.547 31.2369 167.262 31.3145 165.976 31.3083C164.242 31.0339 162.555 30.5149 160.967 29.7669C154.288 27.2119 145.644 27.4442 141.143 33.0187C137.311 31.9236 133.206 32.3351 129.668 34.1689C126.131 36.0026 123.431 39.1194 122.121 42.8797C118.84 43.8094 115.812 45.4698 113.265 47.7363C112.023 48.9007 111.198 50.4415 110.919 52.1207C110.64 53.8 110.923 55.5242 111.723 57.0272C107.496 60.4902 111.723 62.3694 111.723 62.3694C111.723 62.3694 107.496 63.2986 109.968 71.8293C110.137 72.4205 109.968 73.4974 108.552 77.2982C107.136 81.0991 109.968 85.4489 113.646 87.8561C114.23 88.1407 114.748 88.5434 115.168 89.0385C115.507 89.7325 115.64 90.5097 115.548 91.2768C115.625 93.5895 116.421 95.8208 117.827 97.6601C119.232 99.4994 121.176 100.855 123.389 101.539L182.99 105.762C185.103 104.685 190.789 96.1967 190.493 93.8529C190.266 92.9197 190.152 91.9626 190.155 91.0023C190.541 89.7885 191.15 88.6571 191.951 87.666C192.799 86.2289 193.092 84.5318 192.775 82.8939C192.523 82.1386 192.311 81.3703 192.141 80.5923Z" fill="#263238"/>
<path d="M126.56 73.1597C127.084 67.4419 129.141 61.9711 132.514 57.3226C135.888 52.6741 140.453 49.0198 145.729 46.744C150.686 44.9089 155.961 44.0832 161.242 44.3157C166.149 44.2458 170.962 45.667 175.043 48.391C178.277 49.4468 189.394 61.4194 189.056 73.4131C188.675 86.7371 187.661 102.975 185.188 112.73C180.2 132.305 164.708 133.424 164.708 133.424L164.138 148.416L141.206 161.254L128.039 152.09L122.48 148.247L126.56 73.1597Z" fill="#FFBF9D"/>
<path d="M179.185 90.4112C179.131 91.0779 178.818 91.6968 178.312 92.1351C177.806 92.5733 177.148 92.7959 176.48 92.755C176.154 92.7525 175.831 92.6843 175.531 92.5544C175.232 92.4246 174.962 92.2358 174.737 91.9993C174.512 91.7628 174.337 91.4834 174.223 91.1779C174.108 90.8724 174.056 90.547 174.071 90.2211C174.119 89.5562 174.429 88.9373 174.931 88.4986C175.433 88.0598 176.089 87.8366 176.755 87.8773C177.082 87.8799 177.406 87.948 177.706 88.0776C178.007 88.2072 178.279 88.3957 178.505 88.6319C178.732 88.8681 178.909 89.1472 179.025 89.4528C179.142 89.7584 179.197 90.0842 179.185 90.4112Z" fill="#263238"/>
<path d="M165.722 100.8C167.208 100.485 168.727 100.35 170.245 100.399C170.964 100.399 171.64 100.399 171.809 99.8498C171.93 99.1343 171.834 98.3992 171.534 97.7382C171.027 95.9856 170.499 94.1486 169.949 92.2059C168.443 87.5096 167.312 82.7012 166.568 77.8262C168.449 82.3927 169.962 87.1024 171.091 91.9103C171.619 93.8318 172.105 95.69 172.591 97.4426C172.941 98.3329 172.979 99.3157 172.697 100.23C172.573 100.469 172.397 100.677 172.181 100.838C171.965 100.999 171.715 101.109 171.45 101.159C171.05 101.21 170.645 101.21 170.245 101.159C168.729 101.221 167.21 101.101 165.722 100.8Z" fill="#263238"/>
<path d="M164.708 133.424C155.304 132.718 146.281 129.414 138.649 123.879C138.649 123.879 144.44 138.534 164.518 138.513L164.708 133.424Z" fill="#FF9A6C"/>
<path d="M184.194 76.053C183.666 76.6865 181.616 76.053 179.143 76.053C176.67 76.053 174.578 76.4753 174.092 75.8208C173.881 75.504 174.198 74.8917 175.106 74.2793C176.355 73.5653 177.777 73.2073 179.215 73.2446C180.654 73.2818 182.054 73.7127 183.265 74.4905C184.131 75.1028 184.427 75.7574 184.194 76.053Z" fill="#263238"/>
<path d="M149.343 89.2497C149.321 89.8914 149.538 90.5184 149.952 91.0098C150.365 91.5011 150.946 91.8219 151.583 91.9103C151.904 91.9548 152.23 91.9354 152.543 91.8532C152.857 91.7709 153.151 91.6275 153.408 91.4311C153.665 91.2348 153.881 90.9895 154.043 90.7093C154.205 90.4291 154.31 90.1196 154.352 89.7987C154.398 89.1331 154.18 88.476 153.745 87.97C153.31 87.464 152.692 87.1499 152.027 87.0959C151.386 87.0306 150.745 87.2199 150.243 87.6229C149.74 88.026 149.417 88.6104 149.343 89.2497Z" fill="#263238"/>
<path d="M144.101 74.2373C144.629 74.8918 146.785 74.364 149.343 74.4695C151.9 74.5751 154.035 75.1452 154.563 74.4695C154.795 74.1739 154.563 73.5193 153.57 72.8859C152.312 72.09 150.863 71.6483 149.375 71.6074C147.887 71.5665 146.415 71.928 145.116 72.6536C144.228 73.2871 143.89 73.9205 144.101 74.2373Z" fill="#263238"/>
<path d="M128.017 92.2905C128.144 90.8124 126.771 87.1594 125.312 86.8004C121.466 85.8291 114.407 85.4912 113.413 95.3945C112.082 108.93 125.967 107.494 126.094 107.114C126.221 106.734 127.553 97.4004 128.017 92.2905Z" fill="#FFBF9D"/>
<path d="M122.776 101.792C122.776 101.792 122.523 101.919 122.1 102.067C121.814 102.164 121.512 102.203 121.21 102.181C120.909 102.159 120.615 102.077 120.346 101.94C119.538 101.29 118.917 100.437 118.546 99.4692C118.174 98.5012 118.066 97.4522 118.232 96.429C118.315 95.2643 118.654 94.1322 119.226 93.1138C119.396 92.7032 119.664 92.3403 120.006 92.0569C120.349 91.7735 120.756 91.5782 121.191 91.4879C121.47 91.4373 121.758 91.4883 122.002 91.6317C122.247 91.7751 122.431 92.0013 122.523 92.2692C122.671 92.6704 122.523 92.9238 122.628 92.9449C122.734 92.966 122.924 92.7549 122.882 92.1847C122.828 91.8447 122.673 91.5286 122.438 91.2767C122.082 90.9654 121.622 90.7996 121.149 90.8122C120.585 90.8737 120.045 91.0762 119.58 91.4009C119.114 91.7257 118.738 92.1622 118.486 92.6704C117.786 93.7842 117.372 95.0535 117.281 96.3656C117.101 97.5648 117.277 98.7906 117.788 99.8906C118.299 100.991 119.122 101.916 120.156 102.552C120.498 102.679 120.864 102.731 121.228 102.706C121.593 102.68 121.948 102.577 122.269 102.405C122.713 102.109 122.819 101.813 122.776 101.792Z" fill="#FF9A6C"/>
<path d="M186.963 55.8235C185.568 52.6984 185.441 51.0936 183.032 48.6442C180.938 46.6762 178.593 44.9935 176.057 43.6398C169.505 39.8601 162.15 36.5027 154.669 37.5585C150.682 38.3435 146.849 39.7697 143.319 41.7816C140.497 43.0862 137.826 44.6934 135.351 46.5749C133.287 48.3623 131.468 50.4142 129.941 52.6773C126.083 57.9305 123.506 64.0115 122.417 70.4356C121.445 76.7703 116.076 82.1759 119.437 87.7293C119.711 88.1516 126.327 90.0942 126.792 90.3265C127.848 90.8544 129.159 89.7564 129.243 88.5739C129.224 87.9816 129.085 87.3994 128.834 86.8624C128.583 86.3253 128.226 85.8445 127.785 85.4488C128.626 85.3789 129.408 84.9896 129.97 84.3612C130.532 83.7327 130.832 82.9128 130.807 82.0703C130.682 80.3826 130.081 78.7649 129.074 77.4037C128.945 77.223 128.865 77.0121 128.842 76.7914C128.842 76.2212 129.476 75.9256 130.004 75.6722C130.604 75.3268 131.118 74.8509 131.508 74.2798C131.898 73.7087 132.154 73.0571 132.258 72.3735C132.361 71.6898 132.309 70.9917 132.106 70.3308C131.902 69.67 131.552 69.0635 131.082 68.5563C131.892 68.3991 132.662 68.0802 133.345 67.6187C134.028 67.1572 134.612 66.5626 135.06 65.8705C135.508 65.1785 135.811 64.4032 135.952 63.5912C136.093 62.7791 136.068 61.947 135.88 61.1446C135.753 60.6379 135.542 60.0678 135.88 59.6243C136.218 59.1809 136.704 59.0965 137.211 58.9909C139.056 58.5408 140.674 57.4356 141.763 55.8814C142.851 54.3272 143.337 52.4303 143.129 50.5446C144.997 50.8886 146.905 50.9597 148.793 50.7557C149.734 50.6453 150.641 50.3336 151.45 49.8416C152.26 49.3497 152.954 48.6892 153.485 47.9052C153.999 49.0428 154.794 50.0313 155.796 50.778C156.797 51.5246 157.972 52.0049 159.21 52.1737C160.448 52.3426 161.708 52.1945 162.873 51.7433C164.038 51.2922 165.07 50.5527 165.87 49.5944C169.029 50.1474 172.275 49.9079 175.318 48.8976C175.571 50.4002 176.197 51.8154 177.138 53.0142C178.079 54.213 179.306 55.157 180.707 55.7602C181.257 55.9925 181.891 56.2036 182.123 56.7526C182.224 57.1189 182.224 57.5055 182.123 57.8717C181.869 59.751 183.095 60.659 184.025 62.3272C184.955 63.9953 186.561 66.5503 188.442 66.1279C188.258 67.6185 188.503 69.1306 189.146 70.4878C189.79 71.8449 190.807 72.9912 192.078 73.7929V71.5547C187.512 68.683 188.992 60.3634 186.963 55.8235Z" fill="#263238"/>
<path d="M147.779 30.675C148.147 30.5487 148.507 30.4006 148.857 30.2316C149.825 29.871 150.846 29.6713 151.879 29.6403C153.413 29.587 154.933 29.952 156.275 30.6961C157.92 31.6082 159.231 33.0212 160.016 34.7292C160.252 35.2353 160.429 35.7667 160.544 36.3129C160.616 36.5496 160.635 36.7994 160.598 37.0441C160.562 37.2887 160.471 37.5222 160.333 37.7276L159.953 38.1711L160.502 38.0655C161.97 37.7832 163.491 38.0946 164.729 38.9312C165.712 39.5845 166.455 40.5411 166.843 41.6551C167.105 42.3855 167.22 43.1606 167.181 43.9356C167.181 44.4846 167.075 44.7591 167.181 44.7803C167.287 44.8014 167.181 44.7803 167.181 44.5691C167.246 44.3631 167.288 44.1507 167.308 43.9356C167.411 43.1414 167.339 42.3342 167.096 41.5707C166.727 40.3962 165.985 39.3735 164.983 38.6567C163.698 37.7583 162.111 37.4017 160.566 37.6643L160.756 38.0021C160.933 37.7507 161.054 37.4636 161.108 37.1609C161.163 36.8581 161.151 36.5471 161.073 36.2495C160.954 35.6676 160.77 35.1009 160.523 34.5603C159.707 32.7632 158.327 31.2806 156.592 30.3371C155.185 29.587 153.599 29.2364 152.006 29.3236C150.942 29.3881 149.898 29.6383 148.92 30.0627C148.658 30.1867 148.403 30.3277 148.159 30.485L147.779 30.675Z" fill="#455A64"/>
<path d="M124.383 44.2101C124.383 44.2101 124.509 44.4212 124.805 44.738C125.244 45.185 125.725 45.5881 126.242 45.9416C127.038 46.4778 127.938 46.8378 128.884 46.9973C130.089 47.1895 131.322 46.9341 132.35 46.2794H132.055L132.393 46.8707C132.52 47.0818 132.668 47.2507 132.815 47.4619C133.671 48.5077 134.766 49.3332 136.007 49.8691C137.7 50.6313 139.608 50.7733 141.396 50.2703C141.656 50.1979 141.905 50.0914 142.136 49.9536C141.181 50.1804 140.201 50.2868 139.219 50.2703C138.16 50.2065 137.121 49.9489 136.155 49.5101C134.98 48.992 133.944 48.2033 133.132 47.2085L132.731 46.6595L132.414 46.0894L132.287 45.8993L132.118 46.026C131.174 46.6363 130.04 46.8839 128.927 46.7229C128.026 46.5925 127.162 46.2761 126.39 45.7938C125.08 44.8858 124.425 44.1467 124.383 44.2101Z" fill="#455A64"/>
<path d="M116.076 56.1405C116.072 56.2249 116.072 56.3094 116.076 56.3938C116.122 56.6319 116.207 56.8605 116.33 57.0695C116.554 57.4712 116.857 57.8239 117.22 58.1068C117.583 58.3897 117.999 58.5971 118.444 58.7166C119.719 59.095 121.078 59.095 122.354 58.7166C123.072 58.5265 123.812 58.3365 124.573 58.062C125.437 57.814 126.186 57.2679 126.686 56.5206V56.3094H126.348C127.469 57.4233 128.752 58.3629 130.152 59.0967C131.323 59.6806 132.632 59.9291 133.935 59.8146C134.806 59.7503 135.644 59.459 136.366 58.9699C136.564 58.834 136.748 58.6783 136.916 58.5054L137.063 58.3154C137.063 58.3154 136.789 58.5265 136.281 58.8222C135.564 59.2538 134.751 59.5005 133.914 59.5401C132.669 59.5983 131.43 59.3289 130.321 58.7588C128.967 58.0201 127.722 57.0962 126.623 56.0138L126.433 55.8237L126.306 56.0771V56.2671C125.875 56.9142 125.232 57.3919 124.488 57.6185C123.77 57.893 123.009 58.0831 122.375 58.2732C121.168 58.6801 119.872 58.7386 118.634 58.4421C117.813 58.21 117.101 57.6936 116.626 56.9851C116.161 56.4783 116.14 56.1193 116.076 56.1405Z" fill="#455A64"/>
<path d="M155.451 105.72C155.868 104.821 156.491 104.033 157.269 103.418C157.586 103.081 159.805 104.495 161.496 105.319C163.799 106.438 164.814 107.071 163.06 109.035C162.003 110.091 161.179 111.147 159.699 111.147L159.002 111.041C157.857 110.865 156.822 110.262 156.106 109.352C155.729 108.836 155.474 108.24 155.361 107.611C155.247 106.982 155.278 106.335 155.451 105.72Z" fill="#FF9A6C"/>
<path d="M161.284 110.914C161.284 110.724 160.122 110.914 158.537 110.45C158.055 110.295 157.609 110.045 157.225 109.716C156.841 109.387 156.526 108.984 156.3 108.532C156.074 108.079 155.94 107.586 155.907 107.082C155.873 106.577 155.941 106.071 156.106 105.593C156.381 105.038 156.714 104.515 157.099 104.031C157.269 103.819 157.099 103.904 157.438 103.862C157.672 103.87 157.903 103.927 158.114 104.031L160.883 105.382C161.715 105.887 162.631 106.238 163.588 106.417C163.588 106.29 162.764 105.635 161.263 104.706C160.481 104.242 159.636 103.693 158.537 103.101C158.205 102.941 157.847 102.841 157.48 102.806C157.25 102.76 157.013 102.76 156.782 102.806C156.56 102.917 156.37 103.084 156.233 103.292C155.783 103.835 155.4 104.431 155.092 105.065C154.789 105.747 154.672 106.498 154.754 107.239C154.836 107.981 155.113 108.688 155.557 109.288C156.237 110.218 157.213 110.888 158.325 111.189C160.227 111.632 161.326 111.062 161.284 110.914Z" fill="#263238"/>
<path d="M72.5595 153.526C68.4564 153.711 64.463 154.908 60.9352 157.01C55.5881 160.684 53.538 167.568 51.974 173.797C44.4288 204.309 39.6101 235.645 39.8637 267.065C39.8637 273.822 40.3498 280.98 44.2809 286.47C48.7192 292.657 56.5603 295.233 63.873 297.408C70.8077 299.758 77.969 301.379 85.2404 302.243C92.5535 303.063 99.9405 301.587 106.375 298.02L116.52 163.302C104.748 153.378 87.9246 151.815 72.5595 153.526Z" fill="#455A64"/>
<path d="M135.056 633.992L138.078 616.782L168.618 616.74L165.3 636.715L154.373 643.304L135.056 633.992Z" fill="#FFBF9D"/>
<path d="M165.955 632.809V634.773C165.955 634.773 199.285 648.519 199.581 654.854L133.175 653.883L134.401 631.817C139.282 634.229 144.626 635.566 150.07 635.738C155.514 635.909 160.931 634.91 165.955 632.809Z" fill="#455A64"/>
<g opacity="0.6">
<path d="M141.015 638.975C140.376 639.162 139.827 639.577 139.472 640.141C139.118 640.705 138.983 641.38 139.092 642.037C139.253 642.684 139.656 643.246 140.218 643.607C140.779 643.968 141.458 644.101 142.114 643.979C142.811 643.795 143.414 643.357 143.805 642.751C144.196 642.146 144.347 641.417 144.228 640.706C143.984 640.05 143.497 639.513 142.867 639.207C142.238 638.9 141.514 638.847 140.846 639.059" fill="white"/>
</g>
<g opacity="0.6">
<path d="M133.153 653.883L133.449 648.583L196.981 651.475C196.981 651.475 199.919 652.806 199.56 654.875L133.153 653.883Z" fill="white"/>
</g>
<path d="M166.166 634.963C166.166 635.28 164.539 635.406 162.933 636.441C161.326 637.476 160.439 638.806 160.143 638.658C159.847 638.51 160.354 636.673 162.256 635.47C164.158 634.266 166.251 634.583 166.166 634.963Z" fill="#263238"/>
<path d="M173.098 637.94C173.098 638.257 171.746 638.785 170.626 640.051C169.505 641.318 169.167 642.86 168.85 642.839C168.533 642.818 168.343 640.981 169.78 639.334C171.217 637.687 173.098 637.644 173.098 637.94Z" fill="#263238"/>
<path d="M176.945 646.323C176.649 646.323 176.226 644.781 177.093 643.008C177.959 641.234 179.481 640.558 179.608 640.896C179.735 641.234 178.784 642.1 178.107 643.557C177.431 645.014 177.262 646.302 176.945 646.323Z" fill="#263238"/>
<path d="M144.566 594.907L139.304 646.112L115.801 642.206L115.273 591.781L144.566 594.907Z" fill="#FFBF9D"/>
<path d="M115.886 632.471C115.886 632.471 131.442 645.542 140.466 636.357L142.094 641.382L148.286 676.814C148.497 677.93 148.287 679.083 147.698 680.054C147.109 681.024 146.182 681.743 145.095 682.072C144.253 682.311 143.361 682.31 142.52 682.067C141.679 681.824 140.924 681.35 140.339 680.7C133.999 673.71 111.258 647.865 111.807 644.803L112.716 636.357C112.802 635.493 113.153 634.677 113.721 634.02C114.288 633.362 115.044 632.895 115.886 632.683V632.471Z" fill="#455A64"/>
<g opacity="0.6">
<path d="M144.249 682.114L112.082 641.677L111.913 643.515C111.798 644.27 111.854 645.042 112.077 645.772C112.3 646.503 112.685 647.175 113.202 647.738C115.738 651.792 122.924 661.041 140.191 680.573C140.697 681.132 141.329 681.562 142.035 681.826C142.741 682.091 143.5 682.182 144.249 682.093V682.114Z" fill="white"/>
</g>
<g opacity="0.6">
<path d="M117.767 636.694C118.28 637.127 118.611 637.737 118.694 638.402C118.776 639.068 118.603 639.74 118.211 640.284C117.765 640.798 117.142 641.126 116.465 641.205C115.788 641.283 115.107 641.105 114.555 640.706C114.266 640.494 114.024 640.225 113.846 639.914C113.667 639.604 113.555 639.26 113.517 638.904C113.479 638.548 113.515 638.188 113.624 637.847C113.733 637.506 113.912 637.191 114.149 636.923C114.387 636.655 114.678 636.439 115.003 636.289C115.329 636.14 115.682 636.06 116.04 636.054C116.399 636.048 116.754 636.117 117.084 636.257C117.414 636.396 117.712 636.603 117.957 636.863" fill="white"/>
</g>
<path d="M135.774 662.16C136.983 660.9 138.416 659.876 140.001 659.141C141.703 658.656 143.48 658.492 145.242 658.655C145.242 658.655 144.756 658.169 143.721 657.916C142.356 657.644 140.943 657.761 139.642 658.254C138.344 658.71 137.212 659.54 136.387 660.64C135.795 661.485 135.668 662.034 135.774 662.16Z" fill="#263238"/>
<path d="M138.416 668.368C139.796 667.79 141.207 667.289 142.643 666.869C144.111 666.728 145.586 666.678 147.06 666.721C146.403 666.238 145.644 665.914 144.84 665.775C144.037 665.636 143.213 665.685 142.432 665.918C139.663 666.256 138.205 668.157 138.416 668.368Z" fill="#263238"/>
<path d="M130.448 654.157C132.494 653.111 134.613 652.215 136.789 651.475C139.018 651.008 141.278 650.704 143.552 650.567C141.267 649.768 138.778 649.768 136.493 650.567C134.112 651 131.966 652.275 130.448 654.157Z" fill="#263238"/>
<path d="M130.723 643.62C130.829 643.895 133.386 643.114 136.62 643.304C139.853 643.494 142.326 644.465 142.432 644.19C140.703 643.074 138.71 642.433 136.654 642.333C134.598 642.233 132.552 642.677 130.723 643.62Z" fill="#263238"/>
<path d="M138.458 643.367C138.544 642.817 138.508 642.254 138.353 641.72C138.065 640.207 137.468 638.769 136.598 637.497C136.044 636.511 135.184 635.732 134.147 635.28C133.78 635.136 133.376 635.113 132.996 635.216C132.615 635.319 132.278 635.541 132.033 635.85C131.814 636.151 131.656 636.493 131.569 636.855C131.482 637.217 131.467 637.593 131.526 637.961C131.784 639.432 132.545 640.768 133.677 641.742C134.81 642.716 136.246 643.267 137.74 643.304C139.234 643.344 140.706 642.937 141.968 642.136C143.229 641.335 144.222 640.175 144.82 638.806C144.976 638.476 145.057 638.115 145.057 637.75C145.057 637.385 144.976 637.024 144.82 636.694C144.607 636.378 144.303 636.134 143.948 635.995C143.593 635.855 143.205 635.827 142.833 635.913C141.76 636.244 140.792 636.848 140.022 637.666C138.902 638.702 137.978 639.933 137.296 641.297C137.014 641.778 136.828 642.309 136.746 642.86C137.764 641.122 139.032 639.543 140.508 638.172C141.193 637.476 142.044 636.968 142.981 636.694C143.182 636.64 143.396 636.652 143.59 636.728C143.784 636.804 143.948 636.94 144.059 637.117C144.158 637.336 144.21 637.573 144.21 637.813C144.21 638.054 144.158 638.291 144.059 638.51C143.507 639.662 142.636 640.632 141.55 641.305C140.464 641.979 139.208 642.328 137.93 642.311C136.663 642.273 135.445 641.811 134.472 640.999C133.499 640.188 132.826 639.073 132.562 637.835C132.492 637.333 132.604 636.824 132.879 636.399C133.008 636.235 133.186 636.116 133.387 636.059C133.589 636.002 133.802 636.01 133.999 636.082C134.875 636.464 135.613 637.105 136.112 637.919C137.215 639.58 138.01 641.425 138.458 643.367Z" fill="#263238"/>
<path d="M223.442 289.3C223.442 289.3 232.467 330.327 232.974 362.17C233.481 394.012 203.998 484.303 199.581 505.017C196.558 519.123 183.687 589.607 167.54 632.197L143.383 631.31C143.383 631.31 163.588 487.956 163.588 472.943C163.588 457.929 161.474 377.922 161.474 377.922L156.106 317.025L223.442 289.3Z" fill="#263238"/>
<path d="M97.7946 300.28C99.5699 300.955 161.749 314.258 161.749 314.258C161.749 314.258 176.544 479.341 177.41 501.005C178.277 522.67 143.404 631.31 143.404 631.31L114.069 631.563C114.069 631.563 111.554 561.692 116.605 539.541C122.438 513.865 127.912 508.142 125.46 494.227C123.009 480.312 97.6044 412.995 91.2639 376.106C84.9234 339.217 97.7946 300.28 97.7946 300.28Z" fill="#263238"/>
<path d="M203.892 339.576C203.892 339.576 203.448 339.576 202.666 339.703C201.546 339.888 200.438 340.142 199.348 340.463C195.76 341.519 192.322 343.03 189.119 344.96C185.912 346.904 182.965 349.245 180.348 351.929C179.552 352.736 178.804 353.589 178.108 354.484C177.621 355.117 177.389 355.476 177.431 355.518C177.474 355.56 178.699 354.272 180.749 352.33C183.436 349.81 186.375 347.574 189.52 345.657C192.689 343.764 196.046 342.208 199.538 341.012C202.307 340.104 203.935 339.703 203.892 339.576Z" fill="#455A64"/>
<path d="M113.541 631.563H114.132H115.823C117.345 631.563 115.612 631.352 118.465 631.394L143.341 631.5H143.531V631.31C147.483 617.923 152.535 600.629 158.22 580.632C163.905 560.636 170.309 538.169 176.248 514.097C176.84 511.457 177.474 508.881 177.939 506.242C178.426 503.638 178.653 500.993 178.615 498.345C178.615 493.108 178.615 487.956 178.488 482.909C178.298 472.774 177.96 463.039 177.643 453.748C176.967 435.167 176.227 418.443 175.529 404.401C174.832 390.359 174.282 379.062 173.839 371.144C173.585 367.238 173.395 364.197 173.268 362.106C173.268 361.072 173.12 360.291 173.057 359.763C172.993 359.235 172.951 358.96 172.951 358.96C173.057 361.072 173.733 376.74 174.959 404.422C175.551 418.464 176.227 435.188 176.84 453.769C177.157 463.06 177.474 472.774 177.664 482.909C177.664 487.977 177.833 493.108 177.664 498.324C177.699 500.936 177.479 503.545 177.009 506.115C176.523 508.691 175.91 511.289 175.297 513.907C169.379 537.958 162.933 560.488 157.374 580.442C151.816 600.397 146.807 617.69 142.918 631.12L143.151 630.93L118.275 631.057C115.422 631.057 117.155 631.352 115.633 631.373H113.942L113.541 631.563Z" fill="#455A64"/>
<path d="M126.602 339.64C126.602 339.787 129.349 339.534 133.766 339.787C136.341 339.947 138.903 340.264 141.438 340.738C144.53 341.344 147.574 342.17 150.548 343.208C153.51 344.299 156.391 345.597 159.171 347.093C161.436 348.359 163.618 349.77 165.701 351.316C169.273 353.914 171.218 355.835 171.323 355.73C170.951 355.209 170.518 354.734 170.034 354.315C169.59 353.871 169.041 353.344 168.364 352.773C167.688 352.203 166.948 351.507 166.061 350.852C163.986 349.303 161.812 347.892 159.551 346.629C156.753 345.067 153.834 343.732 150.822 342.638C147.804 341.585 144.709 340.766 141.565 340.188C138.995 339.743 136.395 339.482 133.787 339.407C132.667 339.407 131.674 339.407 130.786 339.407C130.031 339.41 129.276 339.452 128.525 339.534C127.882 339.496 127.237 339.531 126.602 339.64Z" fill="#455A64"/>
<path d="M292.553 224.137L318.19 202.092L311.384 186.065L263.429 207.519L292.553 224.137Z" fill="#FFBF9D"/>
<path d="M215.855 200.234C213.34 182.644 197.193 150.063 197.193 150.063L164.835 142.588C160.291 152.702 137.507 156.017 122.565 144.868C122.565 144.868 83.0003 154.919 81.7534 164.548C80.5064 174.177 120.325 260.836 120.325 260.836C120.325 260.836 75.751 328.047 91.5389 328.596C105.065 329.081 228.916 320.276 229.825 314.533C230.121 312.738 218.37 217.844 215.855 200.234Z" fill="#97A483"/>
<path d="M296.4 227.79C296.4 227.79 276.723 245.358 257.364 255.24C232.932 267.91 208.14 221.054 208.14 221.054L197.192 149.958C197.192 149.958 209.683 154.603 218.919 170.355C228.155 186.108 245.084 208.089 245.084 208.089L267.445 200.107L296.4 227.79Z" fill="#97A483"/>
<path d="M205.731 172.023C205.869 172.45 206.054 172.86 206.281 173.248C206.661 174.05 207.253 175.211 207.929 176.732C209.83 181.06 211.392 185.529 212.6 190.098C214.338 196.883 215.532 203.796 216.172 210.77C216.594 214.698 216.848 218.836 217.123 223.144C217.398 227.452 218.032 231.907 218.708 236.426C220.082 245.484 221.646 254.057 222.935 261.87C224.224 269.683 225.429 276.651 226.295 282.627C227.162 288.603 227.69 293.375 228.007 296.711C228.134 298.337 228.24 299.604 228.324 300.554C228.336 301.009 228.393 301.462 228.493 301.905C228.521 301.455 228.521 301.004 228.493 300.554C228.493 299.667 228.493 298.442 228.303 296.69C228.092 293.354 227.648 288.497 226.845 282.563C226.042 276.63 224.964 269.556 223.654 261.743C222.343 253.931 220.821 245.337 219.427 236.299C218.75 231.801 218.137 227.367 217.841 223.081C217.546 218.794 217.271 214.634 216.848 210.686C216.153 203.684 214.894 196.75 213.086 189.95C211.825 185.368 210.17 180.903 208.14 176.605C207.422 175.085 206.788 173.944 206.365 173.184C206.176 172.786 205.964 172.398 205.731 172.023Z" fill="#263238"/>
<path d="M245.296 237.102C245.485 235.703 245.549 234.289 245.486 232.879C245.486 230.261 245.486 226.544 245.359 222.596C245.232 218.647 245.148 214.952 245.021 212.312C245.029 210.896 244.902 209.481 244.641 208.089C244.451 209.488 244.388 210.902 244.45 212.312C244.45 214.952 244.45 218.647 244.577 222.596C244.704 226.544 244.789 230.239 244.937 232.879C244.931 234.294 245.051 235.708 245.296 237.102Z" fill="#263238"/>
<path d="M252.503 234.103C252.483 232.75 252.306 231.404 251.974 230.091C251.53 227.642 250.791 224.264 249.755 220.611C248.72 216.958 247.642 213.663 246.754 211.341C246.351 210.056 245.813 208.817 245.148 207.646C245.391 208.97 245.752 210.27 246.226 211.531C246.965 213.896 247.98 217.169 248.994 220.822C250.009 224.475 250.854 227.79 251.425 230.218C251.673 231.541 252.034 232.841 252.503 234.103Z" fill="#263238"/>
<path d="M101.726 151.33C101.726 151.33 82.7043 155.827 76.5329 170.545C72.1791 181.103 69.178 237.101 69.178 237.101L46.796 217.591L37.4966 245.041C37.4966 245.041 60.428 283.535 76.2582 283.514C77.8906 283.512 79.5188 283.349 81.1192 283.028C92.2362 280.916 99.2742 273.99 102.952 262.229L110.264 226.142L101.726 151.33Z" fill="#97A483"/>
<path d="M198.334 179.942C198.334 179.942 180.834 148.712 175.529 145.016C182.113 144.161 188.796 145.489 194.551 148.796C194.551 148.796 206.323 168.687 206.872 178.358C207.099 187.27 206.068 196.17 203.808 204.795L198.334 179.942Z" fill="#455A64"/>
<path d="M110.264 193.582C110.264 193.582 103.374 162.204 91.2429 155.574C93.7571 153.149 96.7421 151.265 100.014 150.037C103.285 148.81 106.774 148.265 110.264 148.437C110.264 148.437 124.657 170.418 122.48 189.042C120.303 207.666 110.264 193.582 110.264 193.582Z" fill="#455A64"/>
<path d="M88.4319 309.571L86.0648 338.964C113.54 344.475 144.883 334.318 172.718 329.842L171.133 316.898C142.918 311.197 116.964 304.756 88.4319 309.571Z" fill="#455A64"/>
<path d="M228.113 294.093L235.468 322.473C217.566 332.291 194.149 328.659 174.176 328.807C173.056 322.705 172.57 315.884 172.57 315.884C190.873 305.728 207.485 293.924 228.113 294.093Z" fill="#97A483"/>
<path d="M189.901 323.063C189.901 325.857 189.072 328.589 187.518 330.912C185.964 333.235 183.756 335.045 181.172 336.114C178.589 337.184 175.746 337.463 173.003 336.918C170.26 336.373 167.741 335.028 165.764 333.052C163.786 331.077 162.439 328.56 161.894 325.819C161.348 323.079 161.628 320.239 162.699 317.657C163.769 315.076 165.581 312.87 167.906 311.318C170.231 309.766 172.965 308.937 175.762 308.937C179.512 308.937 183.108 310.425 185.76 313.075C188.411 315.724 189.901 319.317 189.901 323.063Z" fill="#455A64"/>
<path d="M203.279 361.494C201.916 356.595 199.829 351.926 197.087 347.642C195.002 344.911 192.659 342.387 190.091 340.104L176.67 327.434L175.381 326.273C171.449 330.271 168.637 335.231 167.228 340.657C165.818 346.082 165.86 351.782 167.35 357.186C170.161 366.942 177.558 374.881 180.411 384.637C181.799 390.053 182.285 395.66 181.848 401.234L196.643 401.508C197.705 401.619 198.778 401.444 199.75 401.001C200.763 400.241 201.504 399.175 201.863 397.961C204.526 391.626 206.978 385.038 206.935 378.196C206.6 372.472 205.366 366.836 203.279 361.494Z" fill="#97A483"/>
<path d="M76.0676 303.342L74.2712 285.71L72.4958 303.342L63.3655 331.362L29 324.309L48.5711 175.55L109.461 187.797L170.224 183.405L175.994 191.365L174.472 202.113L181.7 183.109L181.426 182.581L209.493 180.47L319.733 149.366C319.733 149.366 317.852 168.94 317.387 181.04C316.816 195.398 306.819 208.49 304.706 218.816C304.241 221.159 303.776 226.438 303.311 233.216L300.754 236.363L297.753 251.946L291.074 266.833V281.022L300.754 287.948C300.563 293.143 300.458 296.395 300.458 296.395L233.312 303.701L175.592 335.585C175.592 335.585 126.58 337.253 84.0778 335.585L72.6015 333.241L76.0676 303.342Z" fill="#EBEBEB"/>
<path d="M292.173 231.401L258.019 241.051L266.156 187.755L300.521 175.55L292.173 231.401Z" fill="#E0E0E0"/>
<path d="M197.192 323.908L217.123 265.903L281.415 250.468V298.485L233.291 303.341L197.192 323.908Z" fill="#E0E0E0"/>
<path d="M162.446 287.484L160.925 286.47L157.29 291.981H155.704V293.797H158.262L162.446 287.484ZM146.553 291.981H137.401V293.797H146.553V291.981ZM128.229 291.981H119.077V293.797H128.229V291.981ZM109.926 291.981H100.859V293.797H110.01L109.926 291.981ZM93.018 289.046L85.5574 283.746L84.5006 285.245L91.9613 290.545L93.018 289.046ZM78.0967 278.488L70.6361 273.188L69.5793 274.666L77.1456 279.84L78.0967 278.488ZM172.422 272.154L170.9 271.161L165.849 278.784L167.371 279.797L172.422 272.154ZM71.9887 256.106L70.1499 255.916L69.2622 265.016L71.0799 265.207L71.9887 256.106ZM182.504 256.887L180.982 255.873L175.931 263.517L177.452 264.531L182.504 256.887ZM188.696 247.49L194.783 245.379L194.149 243.647L187.513 246.055L186.012 248.314L187.534 249.327L188.696 247.49ZM73.764 237.883L71.9464 237.714L71.0587 246.815L72.8764 246.984L73.764 237.883ZM212.029 239.213L211.416 237.482L202.793 240.543L203.406 242.275L212.029 239.213ZM229.296 233.09L228.684 231.358L220.039 234.42L220.652 236.151L229.296 233.09ZM246.69 227.051L246.078 225.34L237.455 228.402L238.067 230.112L246.69 227.051ZM75.7084 219.787L73.8908 219.597L72.982 228.698L74.8207 228.888L75.7084 219.787ZM262.352 217.443L261.21 216.007L254.045 221.666L255.166 223.102L262.352 217.443ZM276.723 206.083L275.582 204.647L268.396 210.327L269.537 211.763L276.723 206.083ZM77.5049 201.564L75.6873 201.395L74.7785 210.496L76.6172 210.686L77.5049 201.564ZM291.074 194.659L289.954 193.223L282.768 198.903L283.909 200.339L291.074 194.659ZM79.3013 183.299L77.4626 183.109L76.575 192.231L78.3926 192.4L79.3013 183.299ZM305.446 183.299L304.304 181.863L297.119 187.522L298.26 188.958L305.446 183.299ZM318.824 172.741L317.683 171.305L311.49 176.204L312.632 177.64L318.824 172.741Z" fill="#E0E0E0"/>
<path d="M313.731 210.834L318.909 205.935C319.904 205.149 320.641 204.082 321.023 202.873C321.255 201.627 320.325 200.107 319.078 200.255C319.796 200.06 320.427 199.631 320.871 199.035C321.315 198.439 321.546 197.711 321.527 196.968C321.507 196.226 321.239 195.511 320.764 194.939C320.289 194.367 319.636 193.971 318.909 193.815C319.818 192.862 320.536 191.744 321.023 190.521C321.264 189.902 321.349 189.234 321.272 188.575C321.195 187.916 320.957 187.287 320.579 186.741C320.062 186.191 319.407 185.789 318.682 185.577C317.958 185.366 317.189 185.352 316.457 185.537C314.997 185.966 313.639 186.684 312.463 187.649C310.603 189.021 308.785 190.478 307.052 191.999C306.383 192.514 305.835 193.17 305.446 193.92C305.257 194.302 305.188 194.733 305.248 195.155C305.309 195.577 305.495 195.971 305.784 196.285C305.043 196.371 304.327 196.604 303.677 196.971C303.028 197.338 302.459 197.831 302.003 198.422C301.548 199.013 301.216 199.688 301.027 200.409C300.838 201.13 300.795 201.882 300.902 202.62C299.634 204.372 301.261 207.012 303.333 207.561C305.505 207.907 307.73 207.536 309.673 206.505C308.852 206.534 308.065 206.846 307.449 207.389C306.832 207.932 306.423 208.672 306.291 209.482C306.208 210.3 306.408 211.122 306.858 211.809C307.309 212.497 307.981 213.01 308.764 213.262C309.575 213.49 310.44 213.429 311.211 213.09C311.982 212.751 312.611 212.155 312.991 211.404" fill="#FFBF9D"/>
<g opacity="0.1">
<path d="M48.5923 175.55L29.0214 324.31L63.3657 331.362L72.496 303.342L74.2714 285.689L76.0467 303.342L72.5806 333.242L84.0568 335.606L91.2428 335.416L112.188 188.409L48.5923 175.55Z" fill="black"/>
</g>
<path d="M41.4277 224.074C40.5248 224.028 39.627 224.235 38.8361 224.673C38.0451 225.11 37.3927 225.76 36.9527 226.549C36.5127 227.339 36.3027 228.235 36.3465 229.137C36.3904 230.039 36.6863 230.911 37.2007 231.654C36.4626 232.012 35.8693 232.611 35.5194 233.353C35.1695 234.094 35.0841 234.933 35.2774 235.729C35.531 237.334 36.313 238.833 36.5455 240.459C36.9048 243.057 35.8269 245.992 37.3275 248.145C38.0569 248.918 38.9557 249.51 39.9532 249.877C40.9508 250.243 42.0198 250.373 43.0762 250.257C45.4441 250.226 47.8082 250.056 50.1564 249.75C51.1814 249.699 52.1897 249.47 53.1365 249.075C53.6126 248.874 54.0317 248.559 54.3562 248.158C54.6808 247.756 54.9007 247.28 54.9963 246.773C55.0498 246.269 54.9023 245.765 54.5856 245.37C54.269 244.974 53.809 244.72 53.3055 244.661C53.9704 244.712 54.6326 244.533 55.1802 244.153C55.7278 243.772 56.1273 243.215 56.3111 242.575C56.495 241.934 56.4519 241.25 56.1893 240.638C55.9266 240.025 55.4604 239.522 54.8695 239.214C55.2645 238.685 55.4524 238.031 55.3979 237.373C55.3434 236.716 55.0503 236.101 54.5736 235.645C53.5908 234.733 52.4432 234.016 51.192 233.533C47.0152 231.499 43.681 228.071 41.7659 223.841" fill="#FFBF9D"/>
<path d="M91.243 335.416C91.4543 335.416 96.3153 302.56 102.106 261.976C107.897 221.392 112.399 188.451 112.188 188.409C111.976 188.367 107.136 221.265 101.345 261.87C95.5545 302.476 91.0316 335.374 91.243 335.416Z" fill="#263238"/>
<path d="M233.291 303.341C233.502 303.341 239.78 272.745 247.282 234.884C254.785 197.024 260.745 166.322 260.534 166.28C260.323 166.237 254.067 196.897 246.543 234.737C239.019 272.576 233.101 303.299 233.291 303.341Z" fill="#263238"/>
<path d="M176.628 335.902C176.839 335.902 183.898 301.779 192.416 259.632C200.933 217.485 209.747 181.188 209.514 180.554C209.514 180.554 200.172 217.317 191.655 259.485C183.138 301.652 176.417 335.86 176.628 335.902Z" fill="#263238"/>
<g opacity="0.1">
<path d="M209.514 180.554L176.628 335.902L233.291 303.341L260.534 166.28L209.514 180.554Z" fill="black"/>
</g>
<path d="M134.294 258.975L127.688 252.052L158.772 222.446L165.379 229.37L134.294 258.975Z" fill="#E0E0E0"/>
<path d="M164.833 252.94L157.903 259.54L128.27 228.483L135.2 221.883L164.833 252.94Z" fill="#E0E0E0"/>
<path d="M521.03 264.385L535.085 333.771L577.841 393.74L558.968 406.705L503.594 350.622C500.06 347.023 497.463 342.616 496.028 337.783L477.556 275.471L521.03 264.385Z" fill="#AE7461"/>
<path d="M618.97 426.385L603.414 409.83L601.428 405.881C601.428 405.881 591.917 398.322 589.719 396.992C587.521 395.661 574.164 392.325 574.164 392.325L567.147 380.184L550.513 394.627C550.513 394.627 557.488 404.636 557.847 406.578C558.833 409.028 560.534 411.125 562.73 412.596C564.653 414.032 575.664 423.386 575.664 423.386C575.664 423.386 585.133 438.737 587.627 435.739C588.15 434.945 588.583 434.095 588.916 433.205C588.916 433.205 582.448 423.555 582.956 422.162L585.069 420.895C585.069 420.895 596.905 432.023 599.378 433.564C601.85 435.105 603.985 435.57 605.338 433.733C605.338 433.733 605.528 431.917 604.957 431.431C604.387 430.946 590.924 418.973 591.684 418.276C592.445 417.579 593.608 418.72 593.608 418.72C593.608 418.72 609.649 433.691 610.854 434.029C611.634 434.343 612.504 434.35 613.288 434.048C614.073 433.746 614.714 433.158 615.081 432.403L606.859 423.091C606.859 423.091 614.552 429.425 616.835 428.919C617.417 428.783 617.939 428.463 618.324 428.006C618.709 427.549 618.935 426.981 618.97 426.385Z" fill="#AE7461"/>
<path d="M574.882 407.887C574.882 407.718 576.531 408.689 579.426 409.45C583.346 410.42 587.476 410.071 591.177 408.457L591.494 408.331L591.748 408.542L595.531 411.815C595.806 412.364 596.165 412.976 596.524 413.546C597.666 415.46 599.14 417.155 600.878 418.55C601.633 419.173 602.512 419.626 603.457 419.881C603.833 419.98 604.23 419.973 604.603 419.861C604.976 419.75 605.311 419.537 605.57 419.247V419.627C604.64 416.333 603.901 413.609 603.457 411.709C603.123 410.726 602.917 409.704 602.844 408.668C603.326 409.587 603.702 410.558 603.964 411.561C604.598 413.419 605.465 416.101 606.479 419.353V419.564L606.373 419.733C606.025 420.201 605.547 420.556 604.999 420.755C604.45 420.954 603.855 420.988 603.288 420.852C602.179 420.599 601.145 420.093 600.265 419.374C598.406 417.923 596.824 416.149 595.594 414.137C595.214 413.504 594.876 412.913 594.559 412.279L594.686 412.448L590.945 409.154H591.515C587.6 410.843 583.211 411.09 579.13 409.851C577.969 409.501 576.855 409.012 575.812 408.394C575.48 408.269 575.167 408.098 574.882 407.887Z" fill="#6F4439"/>
<path d="M590.268 416.038C587.055 419.635 582.693 422.008 577.925 422.753C579.934 421.547 582.017 420.468 584.16 419.522C586.133 418.254 588.172 417.091 590.268 416.038Z" fill="#6F4439"/>
<path d="M547.238 191.811C551.465 183.892 558.968 166.873 565.52 151.374C568.946 143.341 569.212 134.313 566.266 126.093C563.32 117.872 557.377 111.065 549.626 107.031L548.02 106.187C530.309 98.226 513.633 108.805 506.173 126.711L470.708 191.05L476.52 206.592C477.916 210.296 480.282 213.558 483.372 216.035C486.462 218.513 490.161 220.116 494.083 220.676C498.53 221.307 503.064 220.57 507.081 218.564C511.098 216.557 514.409 213.375 516.571 209.442L520.544 202.199C520.544 202.199 538.403 208.281 547.238 191.811Z" fill="#AE7461"/>
<path d="M520.565 202.221C512.862 198.381 506.477 192.34 502.22 184.864C502.22 184.864 501.1 199.412 518.367 206.528L520.565 202.221Z" fill="#6F4439"/>
<path d="M552.648 163.579C552.335 164.196 551.792 164.666 551.136 164.887C550.48 165.108 549.763 165.063 549.14 164.762C548.825 164.631 548.539 164.438 548.301 164.195C548.062 163.951 547.875 163.662 547.75 163.345C547.626 163.027 547.567 162.688 547.577 162.347C547.587 162.007 547.666 161.672 547.808 161.362C548.121 160.745 548.664 160.275 549.321 160.054C549.977 159.833 550.694 159.878 551.317 160.18C551.632 160.31 551.917 160.503 552.156 160.747C552.395 160.99 552.582 161.279 552.706 161.596C552.831 161.914 552.889 162.253 552.88 162.594C552.87 162.934 552.791 163.27 552.648 163.579Z" fill="#263238"/>
<path d="M530.372 151.1C530.059 151.722 529.513 152.197 528.853 152.422C528.193 152.647 527.471 152.604 526.842 152.303C526.529 152.17 526.246 151.976 526.009 151.732C525.773 151.488 525.588 151.198 525.466 150.881C525.343 150.564 525.286 150.225 525.298 149.886C525.309 149.546 525.389 149.212 525.532 148.904C525.845 148.286 526.388 147.817 527.044 147.596C527.7 147.374 528.417 147.419 529.04 147.721C529.353 147.852 529.636 148.044 529.873 148.286C530.11 148.528 530.296 148.815 530.42 149.13C530.544 149.445 530.604 149.781 530.595 150.119C530.587 150.458 530.511 150.791 530.372 151.1Z" fill="#263238"/>
<path d="M531.936 168.731C533.489 169.014 535.002 169.49 536.438 170.146C537.135 170.42 537.811 170.61 538.149 170.146C538.545 169.514 538.744 168.779 538.72 168.034C538.931 166.155 539.143 164.17 539.375 162.101C539.785 156.998 540.598 151.936 541.806 146.961C541.82 152.088 541.417 157.208 540.601 162.27C540.347 164.381 540.094 166.303 539.84 168.182C539.841 169.179 539.489 170.144 538.847 170.906C538.635 171.081 538.386 171.205 538.119 171.271C537.852 171.337 537.573 171.342 537.304 171.286C536.892 171.201 536.493 171.059 536.121 170.864C534.64 170.336 533.233 169.619 531.936 168.731Z" fill="#263238"/>
<path d="M537.816 137.681C537.204 138.251 534.858 136.604 531.687 135.4C528.517 134.197 525.685 133.774 525.6 132.93C525.6 132.55 526.34 132.127 527.714 131.958C529.439 131.815 531.173 132.068 532.785 132.698C534.397 133.327 535.843 134.317 537.013 135.59C537.838 136.583 538.112 137.427 537.816 137.681Z" fill="#263238"/>
<path d="M561.403 152.335C560.642 152.673 559.289 151.174 557.176 150.055C555.063 148.936 553.097 148.408 552.949 147.584C552.949 147.204 553.499 146.782 554.555 146.634C555.947 146.503 557.344 146.814 558.55 147.521C559.774 148.184 560.763 149.21 561.382 150.456C561.805 151.448 561.741 152.166 561.403 152.335Z" fill="#263238"/>
<path d="M501.121 139.781C500.91 139.507 491.526 130.49 485.988 141.893C480.451 153.295 493.132 156.547 493.301 156.23C493.47 155.914 501.121 139.781 501.121 139.781Z" fill="#AE7461"/>
<path d="M491.885 150.276C491.885 150.276 491.631 150.276 491.209 150.276C490.639 150.238 490.104 149.989 489.708 149.579C489.193 148.754 488.908 147.806 488.882 146.833C488.856 145.861 489.09 144.899 489.56 144.047C489.99 143.038 490.657 142.147 491.504 141.45C491.784 141.142 492.133 140.907 492.523 140.764C492.914 140.62 493.333 140.573 493.745 140.626C494.002 140.68 494.233 140.82 494.399 141.024C494.564 141.228 494.654 141.483 494.654 141.745C494.654 142.147 494.463 142.337 494.527 142.4C494.59 142.463 494.865 142.4 494.992 141.809C495.068 141.489 495.031 141.154 494.886 140.859C494.687 140.472 494.346 140.177 493.935 140.035C493.416 139.901 492.871 139.903 492.353 140.04C491.835 140.176 491.361 140.444 490.976 140.816C490.012 141.574 489.244 142.552 488.736 143.667C488.201 144.661 487.966 145.788 488.059 146.913C488.153 148.037 488.572 149.11 489.264 150.002C489.532 150.238 489.85 150.412 490.193 150.51C490.537 150.609 490.898 150.63 491.251 150.572C491.737 150.551 491.927 150.318 491.885 150.276Z" fill="#6F4439"/>
<path d="M577.355 133.151C577.745 131.942 577.771 130.644 577.429 129.421C577.087 128.197 576.392 127.1 575.432 126.267C575.728 125.993 573.973 123.522 572.853 121.179C571.733 118.835 573.065 115.52 570.528 116.111C570.926 115.254 571.114 114.314 571.078 113.37C571.041 112.426 570.781 111.505 570.319 110.68C569.857 109.856 569.206 109.153 568.42 108.629C567.633 108.105 566.733 107.774 565.794 107.665C566.957 105.743 564.42 103.441 562.793 101.9C561.166 100.359 560.679 99.6618 558.714 100.886C558.571 99.5946 558.138 98.3515 557.448 97.2501C556.757 96.1486 555.826 95.217 554.725 94.5249C553.624 93.8327 552.381 93.3978 551.088 93.2526C549.795 93.1073 548.486 93.2555 547.259 93.686C545.359 91.7615 542.819 90.5998 540.12 90.4207C537.421 90.2417 534.75 91.0579 532.612 92.7147C530.692 91.8838 528.569 91.6408 526.511 92.0167C524.453 92.3926 522.553 93.3705 521.051 94.8263C518.579 93.7705 517.015 95.2908 514.88 96.9378C512.745 98.5849 510.103 100.211 510.442 102.871C509.565 102.904 508.708 103.14 507.937 103.559C507.167 103.978 506.504 104.57 506 105.287C505.497 106.005 505.166 106.83 505.035 107.696C504.903 108.563 504.974 109.448 505.242 110.283C504.436 110.267 503.636 110.426 502.896 110.747C502.112 110.821 501.351 111.05 500.655 111.42C499.96 111.789 499.345 112.293 498.846 112.902C498.347 113.511 497.973 114.212 497.747 114.966C497.521 115.72 497.446 116.511 497.528 117.293C496.298 117.496 495.164 118.083 494.289 118.97C493.414 119.857 492.842 120.998 492.657 122.229C492.472 123.461 492.681 124.72 493.257 125.824C493.832 126.929 494.743 127.824 495.858 128.379C492.625 129.984 492.984 134.714 493.914 136.276C493.914 136.276 499.557 136.889 498.437 140.668C498.215 141.002 498.081 141.386 498.048 141.785C498.016 142.184 498.085 142.585 498.25 142.95C498.414 143.316 498.669 143.633 498.99 143.873C499.312 144.112 499.688 144.267 500.085 144.321C501.756 144.233 503.362 143.645 504.693 142.632C506.417 141.808 508 140.718 509.385 139.401C510.063 138.725 510.503 137.847 510.641 136.899C510.778 135.951 510.604 134.985 510.146 134.144C511.304 134.248 512.47 134.048 513.527 133.563C514.583 133.078 515.494 132.324 516.169 131.377C517.478 129.449 518.437 127.304 519.001 125.043C520.044 121.791 521.072 118.532 522.087 115.266C524.182 116.268 526.512 116.675 528.822 116.444C531.133 116.213 533.336 115.353 535.191 113.957C535.669 114.867 536.335 115.665 537.145 116.298C537.955 116.931 538.891 117.386 539.89 117.631C540.888 117.877 541.928 117.907 542.939 117.722C543.951 117.536 544.912 117.138 545.758 116.554C545.442 118.939 546.043 121.354 547.439 123.314C548.835 125.273 550.923 126.631 553.282 127.112C551.613 129.224 554.677 133.573 556.643 135.389C558.31 136.558 560.314 137.151 562.349 137.079C562.349 137.079 565.097 141.471 567.696 141.745C570.296 142.02 574.565 140.774 574.333 137.818C575.699 136.526 576.735 134.926 577.355 133.151Z" fill="#263238"/>
<path d="M564.547 106.525C564.329 106.015 564.029 105.544 563.659 105.131C563.395 104.876 563.082 104.677 562.739 104.546C562.396 104.415 562.03 104.354 561.662 104.368C561.295 104.382 560.935 104.469 560.602 104.626C560.27 104.783 559.973 105.005 559.728 105.279L559.242 105.849V105.089C559.184 104.306 558.929 103.551 558.501 102.894C558.072 102.237 557.484 101.699 556.791 101.33C555.938 100.908 554.974 100.766 554.036 100.926C553.098 101.085 552.235 101.537 551.57 102.217L550.957 102.851L550.809 101.985C550.632 101.143 550.265 100.353 549.738 99.6725C549.211 98.9923 548.537 98.4401 547.766 98.0573C546.957 97.6547 546.062 97.4575 545.158 97.4833C544.255 97.5091 543.372 97.757 542.588 98.2051C541.944 98.5801 541.377 99.0746 540.918 99.6621L540.601 100.084L540.221 99.7465C539.3 98.9517 538.138 98.4902 536.922 98.4366C535.707 98.3829 534.508 98.7403 533.521 99.4509C532.68 100.108 532.048 100.993 531.699 102.001C531.35 103.009 531.3 104.096 531.555 105.131L531.746 105.828L531.069 105.617C529.57 105.145 527.946 105.281 526.546 105.997C525.479 106.559 524.603 107.426 524.031 108.488C523.573 109.45 523.293 110.488 523.207 111.55C523.207 111.55 523.207 111.255 523.207 110.684C523.222 109.859 523.409 109.047 523.757 108.298C524.291 107.092 525.203 106.091 526.356 105.448C527.119 105.026 527.958 104.758 528.825 104.66C529.692 104.563 530.569 104.636 531.407 104.878L530.921 105.342C530.542 104.055 530.592 102.68 531.066 101.424C531.539 100.169 532.41 99.1017 533.545 98.3852C534.681 97.6688 536.019 97.3419 537.357 97.4542C538.696 97.5665 539.961 98.1118 540.961 99.0075H540.263C540.788 98.3031 541.458 97.7198 542.229 97.2971C543.149 96.7642 544.189 96.4713 545.253 96.4455C546.317 96.4196 547.37 96.6617 548.315 97.1493C549.188 97.6127 549.943 98.2677 550.525 99.0651C551.107 99.8624 551.501 100.781 551.676 101.753L550.915 101.52C551.714 100.721 552.748 100.198 553.866 100.027C554.984 99.8557 556.127 100.046 557.129 100.57C557.92 101.011 558.583 101.65 559.053 102.423C559.524 103.197 559.785 104.079 559.813 104.983L559.306 104.793C559.651 104.434 560.075 104.159 560.544 103.991C561.014 103.822 561.516 103.764 562.011 103.822C562.75 103.909 563.429 104.271 563.913 104.835C564.21 105.166 564.42 105.565 564.526 105.997C564.568 106.377 564.568 106.525 564.547 106.525Z" fill="#455A64"/>
<path d="M551.76 182.752C551.481 182.228 551.088 181.774 550.61 181.421C550.132 181.068 549.582 180.827 548.999 180.713C548.416 180.6 547.815 180.618 547.239 180.766C546.664 180.914 546.129 181.189 545.674 181.569C545.57 180.64 545.206 179.758 544.623 179.026C544.04 178.294 543.262 177.742 542.378 177.433C541.494 177.124 540.541 177.071 539.628 177.28C538.716 177.488 537.881 177.951 537.22 178.613C537.299 177.93 537.204 177.237 536.944 176.6C536.683 175.963 536.266 175.403 535.73 174.97C535.194 174.538 534.557 174.249 533.879 174.129C533.201 174.009 532.503 174.062 531.851 174.285C531.814 173.62 531.57 172.984 531.153 172.466C530.737 171.947 530.168 171.571 529.526 171.392C529.887 170.883 530.089 170.28 530.106 169.657C530.123 169.034 529.954 168.42 529.621 167.893C529.288 167.366 528.806 166.95 528.236 166.697C527.666 166.443 527.034 166.365 526.42 166.472C526.382 165.747 526.192 165.039 525.86 164.393C525.529 163.748 525.064 163.18 524.497 162.727C523.93 162.274 523.273 161.946 522.57 161.765C521.867 161.585 521.133 161.555 520.417 161.678C520.553 161.067 520.482 160.427 520.214 159.86C519.947 159.294 519.499 158.831 518.941 158.546C518.382 158.261 517.745 158.17 517.128 158.285C516.512 158.401 515.952 158.718 515.535 159.187C515.378 158.211 514.907 157.313 514.194 156.627C513.481 155.942 512.565 155.506 511.583 155.386C511.782 154.978 511.889 154.531 511.896 154.077C511.902 153.623 511.808 153.173 511.62 152.759C511.433 152.346 511.156 151.979 510.809 151.684C510.463 151.39 510.056 151.176 509.617 151.057C510.759 149.896 509.089 148.143 508.624 146.602C508.391 145.884 508.434 145.124 508.159 144.49C507.884 143.857 507.081 143.245 506.447 143.603C506.866 143.119 507.095 142.498 507.09 141.857C507.085 141.216 506.846 140.599 506.42 140.121C505.993 139.643 505.406 139.336 504.77 139.258C504.133 139.18 503.49 139.336 502.96 139.697C502.397 140.213 501.906 140.802 501.501 141.45C500.001 143.413 497.274 145.272 498.099 147.637C498.275 148.028 498.362 148.453 498.352 148.882C498.204 149.621 497.274 149.875 496.873 150.487C496.471 151.1 496.873 152.176 496.683 153.021C496.577 154.309 495.499 155.238 494.802 156.315C494.104 157.392 493.935 159.145 495.119 159.651C494.264 160.255 493.646 161.138 493.372 162.148C493.098 163.158 493.185 164.231 493.618 165.184C493.151 165.553 492.764 166.014 492.482 166.539C492.2 167.063 492.027 167.639 491.976 168.233C491.924 168.826 491.995 169.423 492.183 169.988C492.371 170.553 492.672 171.074 493.069 171.518C492.543 171.667 492.089 172.002 491.794 172.461C491.498 172.919 491.38 173.47 491.462 174.01C491.678 175.078 492.149 176.078 492.836 176.924C492.586 176.95 492.345 177.026 492.125 177.147C491.905 177.268 491.711 177.431 491.556 177.628C491.4 177.825 491.286 178.051 491.219 178.293C491.152 178.534 491.134 178.787 491.166 179.036C491.325 180.031 491.835 180.938 492.604 181.591C492.946 181.852 493.185 182.226 493.28 182.646C493.28 183.428 492.371 183.913 492.096 184.758C491.674 185.919 493.005 187.06 492.9 188.284C492.794 189.509 491.61 190.29 491.948 191.346C492.16 192.022 492.921 192.338 493.386 192.866C494.21 193.817 494.02 195.252 494.189 196.498C494.738 198.842 496.073 200.928 497.972 202.411C498.838 203.255 499.747 204.058 500.698 204.839C502.558 206.38 504.503 207.816 506.468 209.231C507.44 209.949 508.709 210.688 509.765 210.097C509.939 210.713 510.25 211.282 510.676 211.761C511.102 212.239 511.631 212.615 512.223 212.859C512.816 213.103 513.456 213.209 514.096 213.17C514.735 213.13 515.358 212.946 515.916 212.631C517.688 214.016 519.879 214.76 522.129 214.742L524.433 214.974C525.545 215.244 526.703 215.27 527.826 215.052C528.95 214.833 530.013 214.375 530.943 213.707C531.596 213.911 532.286 213.968 532.964 213.874C533.641 213.78 534.29 213.538 534.863 213.165C535.437 212.792 535.92 212.297 536.28 211.715C536.64 211.134 536.867 210.48 536.945 209.801C537.146 209.944 537.374 210.045 537.615 210.098C537.856 210.151 538.105 210.155 538.348 210.109C538.59 210.064 538.821 209.97 539.027 209.834C539.233 209.698 539.409 209.521 539.544 209.315C540.065 208.47 540.437 207.541 540.644 206.57C541.975 202.727 545.8 200.236 547.28 196.456C548.316 193.795 548.21 190.565 550.239 188.58C550.707 188.225 551.108 187.789 551.422 187.292C551.493 187.166 551.536 187.027 551.548 186.883C551.56 186.74 551.542 186.595 551.494 186.459C551.446 186.323 551.369 186.199 551.27 186.095C551.17 185.991 551.049 185.91 550.915 185.856C551.223 185.571 551.457 185.217 551.598 184.822C551.739 184.427 551.782 184.005 551.724 183.59C551.665 183.175 551.508 182.78 551.264 182.44C551.02 182.099 550.697 181.822 550.323 181.633" fill="#263238"/>
<path d="M497.042 176.819C497.472 174.625 498.182 172.496 499.155 170.484C500.283 168.555 501.638 166.768 503.192 165.163C502.599 165.479 502.063 165.893 501.607 166.388C499.272 168.67 497.705 171.622 497.126 174.834C496.976 175.485 496.948 176.157 497.042 176.819Z" fill="#455A64"/>
<path d="M496.619 171.476C496.619 171.476 496.619 170.843 496.619 169.893C496.895 168.656 497.428 167.49 498.183 166.472C499.853 163.959 501.713 162.249 501.607 162.249C500.048 163.273 498.735 164.629 497.76 166.219C496.962 167.299 496.446 168.562 496.26 169.893C496.196 170.446 496.323 171.005 496.619 171.476Z" fill="#455A64"/>
<path d="M495.161 167.696C495.377 165.796 495.898 163.942 496.704 162.206C497.628 160.532 498.812 159.014 500.212 157.709C499.67 157.918 499.18 158.243 498.775 158.659C497.738 159.603 496.878 160.726 496.239 161.974C495.604 163.22 495.21 164.574 495.076 165.965C494.977 166.541 495.006 167.132 495.161 167.696Z" fill="#455A64"/>
<path d="M531.112 209.59C531.81 209.788 532.555 209.743 533.225 209.463C534.855 208.879 536.309 207.891 537.452 206.592C538.621 205.348 539.578 203.922 540.284 202.368C540.608 201.746 540.83 201.076 540.939 200.384C539.925 202.49 538.632 204.45 537.093 206.211C535.96 207.485 534.55 208.481 532.972 209.125C532.367 209.336 531.744 209.492 531.112 209.59Z" fill="#455A64"/>
<path d="M529.062 207.668C529.652 207.748 530.252 207.69 530.816 207.499C532.195 207.14 533.479 206.484 534.578 205.578C535.659 204.695 536.55 203.604 537.199 202.368C537.498 201.861 537.672 201.289 537.706 200.7C537.706 200.7 537.41 201.291 536.882 202.199C535.486 204.57 533.29 206.367 530.689 207.267C530.14 207.372 529.597 207.506 529.062 207.668Z" fill="#455A64"/>
<path d="M571.352 141.893C570.778 136.604 568.484 131.65 564.822 127.788C553.62 116.28 535.592 104.223 504.672 112.711L501.036 112.394C502.881 108.329 505.208 104.501 507.969 100.992C510.505 98.0781 527.328 82.178 549.985 92.2079C549.879 92.2079 585.809 105.236 571.352 141.893Z" fill="#97A483"/>
<g opacity="0.3">
<path d="M571.797 141.608C571.223 136.319 568.929 131.365 565.267 127.503C554.065 115.995 536.037 103.938 505.116 112.426L501.481 112.11C503.325 108.045 505.653 104.216 508.413 100.707C510.95 97.7932 527.773 81.8931 550.43 91.923C550.324 91.923 586.254 104.951 571.797 141.608Z" fill="black"/>
</g>
<path d="M504.672 112.711C517.86 108.319 531.281 109.058 544.638 111.149C557.995 113.239 576.995 120.271 589.148 126.204C592.909 127.77 596.289 130.125 599.06 133.109C600.417 134.626 601.32 136.493 601.667 138.498C602.015 140.502 601.793 142.564 601.026 144.448C598.743 148.988 587.14 149.009 582.004 148.671C576.869 148.334 566.893 146.834 566.893 146.834C566.893 146.834 570.317 135.537 563.955 128.253C550.83 113.007 503.89 112.69 504.672 112.711Z" fill="#97A483"/>
<path d="M576.002 135.917C576.225 134.293 575.891 132.641 575.054 131.23C574.218 129.819 572.928 128.732 571.395 128.147C571.939 127.9 572.387 127.481 572.67 126.954C572.953 126.428 573.054 125.823 572.959 125.233C572.744 124.054 572.114 122.99 571.184 122.234C569.588 120.878 567.578 120.106 565.484 120.045C563.39 119.983 561.338 120.636 559.665 121.897C559.243 120.46 558.46 119.155 557.391 118.105C556.322 117.055 555.002 116.296 553.557 115.9C552.168 115.392 550.651 115.351 549.237 115.781C547.822 116.212 546.586 117.091 545.716 118.286C545.197 119.226 544.96 120.296 545.035 121.368C545.11 122.439 545.493 123.466 546.139 124.325C547.364 126.436 550.661 127.26 553.092 127.281C552.892 128.504 552.991 129.758 553.38 130.935C553.77 132.111 554.438 133.177 555.329 134.039C556.219 134.902 557.306 135.537 558.495 135.89C559.684 136.243 560.941 136.303 562.159 136.065C562.449 137.7 563.31 139.179 564.589 140.239C565.868 141.299 567.482 141.871 569.143 141.853C570.805 141.836 572.406 141.229 573.663 140.142C574.919 139.055 575.748 137.558 576.002 135.917Z" fill="#263238"/>
<path d="M517.226 171.941C517.649 170.581 518.474 169.381 519.593 168.499L520.544 167.57C520.622 167.494 520.716 167.437 520.819 167.401C521.03 167.401 521.199 167.591 521.305 167.781C522.658 170.104 524.475 173.588 525.807 175.932C524.873 176.529 523.809 176.891 522.704 176.987C521.6 177.083 520.489 176.909 519.466 176.481C518.682 176.034 518.05 175.363 517.65 174.554C517.251 173.745 517.103 172.835 517.226 171.941Z" fill="#6F4439"/>
<path d="M511.118 212.652L522.129 238.286L528.744 282.312L482.374 290.104L467.812 238.286L511.118 212.652Z" fill="#97A483"/>
<path d="M397.475 433.416L438.181 473.303C438.181 473.303 414.933 605.762 418.483 606.1L468.151 610.724C468.151 610.724 501.84 467.475 499.853 458.417C497.867 449.358 426.642 366.754 426.642 366.754L426.029 354.549L405.401 351.382L397.475 433.416Z" fill="#263238"/>
<path d="M320.459 378.41C324.263 387.468 330.731 398.279 331.914 407.232L355.163 498.748L262.274 604.833L301.839 639.019C301.839 639.019 413.368 525.818 417.49 511.67C420.787 500.352 411.276 385.779 411.276 385.779L416.031 353.261L334.45 316.393L327.032 329.801C319.043 345.11 313.759 362.509 320.459 378.41Z" fill="#263238"/>
<path d="M323.524 608.992L293.597 641.573C293.597 641.573 315.176 681.039 310.209 687.542L247.776 635.239L292.434 582.851L323.524 608.992Z" fill="#263238"/>
<path d="M276.71 622.57C275.919 622.266 275.046 622.254 274.248 622.537C273.449 622.819 272.778 623.378 272.356 624.111C271.971 624.841 271.888 625.692 272.126 626.482C272.363 627.272 272.901 627.937 273.624 628.335C274.467 628.658 275.399 628.668 276.249 628.361C277.099 628.055 277.81 627.453 278.252 626.666C278.41 626.269 278.487 625.844 278.48 625.416C278.473 624.988 278.381 624.566 278.21 624.174C278.039 623.781 277.793 623.427 277.485 623.13C277.176 622.833 276.812 622.599 276.414 622.443" fill="#E0E0E0"/>
<path d="M247.776 635.239L252.489 630.129L310.589 682.137C310.589 682.137 312.28 685.706 310.209 687.48L247.776 635.239Z" fill="#455A64"/>
<path d="M294.886 641.975C294.611 642.292 292.963 641.152 290.659 640.92C288.355 640.687 286.326 641.342 286.157 640.92C285.988 640.497 288.017 639.104 290.891 639.441C293.766 639.779 295.203 641.743 294.886 641.975Z" fill="white"/>
<path d="M299.028 650.274C298.817 650.633 297.041 650.084 294.801 650.548C292.561 651.013 291.102 652.195 290.807 651.921C290.511 651.646 291.863 649.809 294.59 649.155C297.316 648.5 299.282 650.02 299.028 650.274Z" fill="white"/>
<path d="M295.731 661.529C295.393 661.381 296.323 659.417 298.606 658.361C300.888 657.305 302.833 657.77 302.833 658.15C302.833 658.53 301.057 658.699 299.198 659.628C297.338 660.557 296.048 661.761 295.731 661.529Z" fill="white"/>
<path d="M300.931 633.867C300.55 634.057 299.536 632.452 297.697 631.122C295.858 629.792 294.041 629.243 294.125 628.841C294.21 628.44 296.471 628.377 298.585 629.96C300.698 631.544 301.29 633.74 300.931 633.867Z" fill="white"/>
<path d="M466.819 583.823L465.213 628.44C465.213 628.44 508.349 645.185 508.835 653.462L425.416 653.251L425.141 583.57L466.819 583.823Z" fill="#263238"/>
<path d="M439.428 624.682C438.614 624.957 437.926 625.516 437.492 626.257C437.057 626.998 436.904 627.87 437.061 628.715C437.253 629.542 437.76 630.262 438.474 630.723C439.188 631.184 440.053 631.35 440.887 631.185C441.739 630.896 442.46 630.311 442.918 629.536C443.375 628.761 443.54 627.848 443.381 626.962C443.091 626.128 442.487 625.441 441.698 625.046C440.908 624.652 439.995 624.581 439.154 624.851" fill="#E0E0E0"/>
<path d="M425.416 653.251L425.648 646.22L505.496 649.049C505.496 649.049 509.216 650.738 508.793 653.462L425.416 653.251Z" fill="#455A64"/>
<path d="M466.565 628.018C466.565 628.44 464.452 628.609 462.507 629.982C460.563 631.354 459.443 633.107 459.062 632.938C458.682 632.769 459.295 630.319 461.746 628.715C464.198 627.11 466.65 627.617 466.565 628.018Z" fill="white"/>
<path d="M475.315 631.798C475.315 632.199 473.646 632.917 472.251 634.712C470.856 636.507 470.475 638.386 470.137 638.365C469.799 638.344 469.461 635.958 471.236 633.762C473.011 631.566 475.315 631.397 475.315 631.798Z" fill="white"/>
<path d="M480.282 642.672C479.902 642.778 479.331 640.56 480.388 638.449C481.445 636.337 483.347 635.218 483.516 635.556C483.685 635.894 482.501 637.161 481.677 639.061C480.853 640.962 480.684 642.651 480.282 642.672Z" fill="white"/>
<path d="M465.847 617.798C465.678 618.178 463.733 617.587 461.514 617.798C459.295 618.009 457.414 618.706 457.287 618.326C457.16 617.946 458.788 616.468 461.514 616.214C464.24 615.961 466.058 617.46 465.847 617.798Z" fill="white"/>
<path d="M412.122 378.114C412.238 378.498 412.302 378.896 412.312 379.297C412.312 380.205 412.523 381.408 412.671 382.717C412.967 385.695 413.305 390.002 413.707 395.387C414.489 406.05 415.334 420.726 416.053 437.069C416.771 453.413 417.3 467.94 417.722 478.773C417.891 483.988 418.039 488.253 418.145 491.442C418.145 492.836 418.145 493.976 418.145 494.884C418.201 495.283 418.201 495.688 418.145 496.087C418.031 495.704 417.974 495.305 417.976 494.905C417.976 493.997 417.807 492.793 417.68 491.463C417.49 488.338 417.236 484.051 416.898 478.794C416.306 468.109 415.63 453.455 414.89 437.09C414.151 420.726 413.411 406.24 412.882 395.429C412.608 390.213 412.375 385.948 412.227 382.76C412.227 381.366 412.122 380.226 412.079 379.318C412.034 378.917 412.048 378.511 412.122 378.114Z" fill="#455A64"/>
<path d="M312.238 252.729C313.442 243.122 318.768 234.802 323.925 226.905C339.037 203.677 354.634 180.112 376.234 164.212C383.336 158.976 391.325 154.562 399.906 154.161C406.177 154.147 412.382 155.441 418.124 157.962C430.171 162.629 441.837 169.449 450.228 179.965L346.667 308.327C339.996 303.818 333.905 298.506 328.533 292.511C318.853 281.848 310.357 267.658 312.238 252.729Z" fill="#263238"/>
<path d="M478.76 176.544C478.76 176.544 448.368 173.799 438.202 180.429C422.795 190.501 400.011 218.332 400.011 218.332L368.119 261.492L327.053 324.121L433.848 375.939C440.886 372.814 435.793 374.313 435.539 362.172L505.073 241.665L512.64 219.514C498.331 216.284 488.588 197.681 478.76 176.544Z" fill="#97A483"/>
<path d="M508.476 233.746C508.476 233.746 508.222 234.021 507.842 234.612L506.257 237.209L500.593 246.88L482.248 278.955C475.104 291.498 468.615 302.837 463.839 310.987C461.535 314.978 459.612 318.23 458.217 320.658L456.695 323.319C456.504 323.617 456.348 323.935 456.23 324.269C456.23 324.269 456.484 323.995 456.886 323.425L458.576 320.891C460.014 318.674 462.064 315.443 464.515 311.389C469.461 303.322 476.055 292.047 483.199 279.504C490.342 266.961 496.662 255.538 501.227 247.26C503.34 243.206 505.242 239.891 506.595 237.42L507.99 234.718C508.188 234.413 508.352 234.088 508.476 233.746Z" fill="#263238"/>
<path d="M356.22 273.402C375.833 272.81 396.63 271.586 416.222 264.385C426.62 260.563 440.041 253.384 446.699 244.494L449.256 258.283C435.527 267.587 419.959 273.837 403.604 276.611C387.293 279.355 370.728 280.29 354.212 279.399C355.205 276.4 355.205 276.4 356.22 273.402Z" fill="#263238"/>
<path d="M349.626 319.877C350.505 320.7 351.444 321.455 352.436 322.137C354.296 323.509 357.044 325.452 360.573 327.627C367.59 332.061 377.777 337.319 389.042 343.02C400.307 348.721 410.177 354.676 417.722 357.991C420.716 359.338 423.811 360.446 426.98 361.306C427.842 361.555 428.717 361.759 429.6 361.918C429.902 362.006 430.217 362.041 430.53 362.024C429.412 361.585 428.268 361.211 427.106 360.905C424.016 359.891 420.994 358.678 418.061 357.273C410.558 353.831 400.878 347.687 389.55 342.028C378.221 336.369 368.119 331.174 360.975 326.951C357.403 324.839 354.635 323.023 352.669 321.778C351.718 321.048 350.699 320.412 349.626 319.877Z" fill="#263238"/>
<path d="M489.455 220.422C488.947 210.287 487.468 199.982 482.776 190.987C480.065 186.249 476.362 182.152 471.918 178.978C467.475 175.804 462.398 173.626 457.034 172.595C454.434 172.215 445.684 171.962 443.317 173.102C440.95 174.242 434.292 180.472 434.461 183.09C439.703 180.077 445.816 178.937 451.792 179.859C460.087 181.358 467.796 185.147 474.047 190.797C481.931 198.357 485.418 209.294 488.63 219.726" fill="#263238"/>
<path d="M500.973 246.711C505.328 235.899 508.812 224.757 511.393 213.391C511.519 212.821 511.836 212.124 512.407 212.187C512.558 212.216 512.701 212.273 512.83 212.356C517.057 214.763 516.19 221.605 515.239 226.314C513.708 232.429 511.437 238.336 508.476 243.903C504.249 251.462 498.86 254.165 495.33 257.354L500.973 246.711Z" fill="#263238"/>
<path d="M611.171 247.345C613.069 244.342 614.568 241.105 615.63 237.716C616.497 234.042 616.011 230.199 616.434 226.461C616.899 222.531 618.353 218.783 620.661 215.566C623.049 212.187 626.388 209.4 628.037 205.599C630.319 200.362 629.051 194.175 631.017 188.812C634.187 180.134 644.881 175.91 647.925 167.169C649.594 162.354 648.601 156.991 649.848 152.05C650.016 151.036 650.505 150.104 651.243 149.389C652.934 147.953 655.66 149.009 657.097 150.698C658.948 153.406 659.949 156.604 659.972 159.884C660.944 170.441 660.944 180.999 660.965 191.705C661.089 195.664 660.884 199.626 660.352 203.551C659.232 210.392 656.125 216.833 655.364 223.716C654.202 233.218 657.224 243.312 653.695 252.201C651.983 256.424 648.855 260.141 647.354 264.512C646.255 267.637 646.023 270.994 644.945 274.119C643.767 277.406 641.714 280.31 639.006 282.516C636.298 284.723 633.039 286.149 629.58 286.641L615.863 284.276C609.522 281.235 606.014 274.119 605.718 267.172C605.711 260.192 607.595 253.341 611.171 247.345Z" fill="#FF725E"/>
<g opacity="0.3">
<path d="M618.082 254.777C620.618 251.568 624.084 248.907 625.416 245.043C626.023 242.768 626.357 240.429 626.409 238.075C626.637 234.702 627.729 231.445 629.579 228.615C631.376 226.039 633.997 224.096 635.561 221.372C636.561 219.319 637.273 217.138 637.674 214.89C639.001 209.663 640.725 204.546 642.831 199.581C643.676 197.617 644.944 195.358 647.058 195.104C648.411 204.607 644.289 213.961 643.211 223.505C641.647 237.399 646.487 251.885 642.26 265.187C640.178 271.742 636.034 277.452 630.446 281.468L616.349 280.37C614.114 276.398 613.088 271.861 613.396 267.315C613.704 262.77 615.332 258.412 618.082 254.777Z" fill="black"/>
</g>
<path d="M628.776 284.719C628.607 285.5 617.046 331.406 613.073 347.222C612.717 348.641 611.819 349.865 610.57 350.631C609.322 351.397 607.822 351.644 606.394 351.318C604.981 350.989 603.75 350.126 602.962 348.908C602.173 347.691 601.888 346.216 602.167 344.793L614.045 282.396L628.776 284.719Z" fill="#6F4439"/>
<path d="M612.545 277.329C612.564 276.83 612.432 276.337 612.165 275.914C611.629 274.868 611.329 273.717 611.285 272.543C611.241 271.368 611.455 270.198 611.911 269.115C612.396 268.043 613.206 267.151 614.226 266.564C615.246 265.977 616.425 265.724 617.596 265.842C618.191 266.053 618.84 266.053 619.435 265.842C619.709 265.636 619.939 265.378 620.111 265.082C620.97 263.802 622.189 262.804 623.614 262.214C625.04 261.624 626.608 261.468 628.121 261.767C629.616 262.143 630.909 263.078 631.734 264.378C632.56 265.678 632.855 267.245 632.56 268.756C633.453 269.289 634.213 270.019 634.78 270.89C635.348 271.761 635.709 272.75 635.836 273.782C635.952 274.813 635.833 275.858 635.489 276.838C635.145 277.818 634.585 278.707 633.849 279.441C633.358 279.832 632.936 280.303 632.602 280.834C632.391 281.453 632.277 282.102 632.264 282.756C632.024 284.33 631.198 285.756 629.953 286.75C628.707 287.744 627.133 288.233 625.543 288.119L616.899 287.739C615.801 287.75 614.72 287.458 613.778 286.895C612.835 286.331 612.067 285.519 611.558 284.547C611.048 283.575 610.817 282.481 610.891 281.386C610.964 280.291 611.339 279.238 611.974 278.343C612.24 278.053 612.435 277.706 612.545 277.329Z" fill="#263238"/>
<path d="M580.631 310.713C580.631 310.713 602.041 299.184 607.155 298.74C612.27 298.297 611.382 299.311 611.382 299.311L611.636 306.659C611.636 306.659 619.16 311.22 620.893 309.235L624.317 303.724C624.317 303.724 629.791 312.318 624.105 317.048C624.105 317.048 626.409 323.91 620.745 326.064C621.247 326.937 621.49 327.935 621.445 328.941C621.4 329.947 621.069 330.919 620.491 331.744C619.516 333.258 618.008 334.351 616.264 334.806C616.254 336.294 615.8 337.746 614.96 338.975C614.121 340.205 612.934 341.157 611.551 341.711C608.613 343.041 577.735 338.417 574.206 337.488L580.631 310.713Z" fill="#AE7461"/>
<path d="M618.801 319.814C618.801 320.109 620.64 320.215 622.499 319.033C624.359 317.85 625.036 316.161 624.782 316.034C624.528 315.907 623.514 317.111 621.908 318.146C620.301 319.18 618.78 319.497 618.801 319.814Z" fill="#6F4439"/>
<path d="M617.343 326.676C617.173 326.972 618.653 327.648 620.323 327.035C621.992 326.423 622.816 325.452 622.69 325.22C622.563 324.987 621.316 325.494 619.963 325.98C618.611 326.465 617.512 326.402 617.343 326.676Z" fill="#6F4439"/>
<path d="M612.883 335.397C612.883 335.524 613.179 335.756 613.75 335.735C614.388 335.668 615.014 335.512 615.61 335.271C616.983 334.743 617.998 334.109 617.892 333.814C617.786 333.518 616.603 333.814 615.229 334.236C614.553 334.489 613.961 334.806 613.581 334.975C613.2 335.144 612.925 335.186 612.883 335.397Z" fill="#6F4439"/>
<path d="M581.328 310.058L503.932 292.152C503.932 292.152 485.714 221.668 481.275 212.25C476.14 201.376 466.65 185.687 445.811 191.346C427.233 196.392 430.108 224.497 434.356 235.689C439.534 249.224 467.474 322.136 476.626 326.148C485.777 330.16 578.982 338.522 578.982 338.522L581.328 310.058Z" fill="#AE7461"/>
<path d="M493.914 254.461C494.026 255.418 494.217 256.364 494.485 257.29L496.429 265.124C498.183 271.945 500.656 281.341 503.425 292.3V292.596H503.742L524.412 297.389L565.9 306.849L578.581 309.594L582.026 310.291C582.421 310.385 582.824 310.442 583.23 310.46C582.863 310.275 582.472 310.14 582.068 310.058L578.665 309.172L566.153 306.089L524.729 296.312L504.122 291.561L504.503 291.941C501.523 281.024 498.965 271.67 497.127 264.871C496.197 261.661 495.457 259.064 494.907 257.121C494.653 256.208 494.321 255.318 493.914 254.461Z" fill="#6F4439"/>
<path d="M477.64 326.402C477.64 326.402 477.915 326.571 478.485 326.782C479.056 326.993 479.901 327.289 481 327.605C484.134 328.431 487.318 329.052 490.532 329.464C494.611 330.034 499.451 330.498 504.798 331.216C510.146 331.934 516.085 332.589 522.298 333.328L554.001 336.58L563.638 337.614C564.813 337.797 566 337.889 567.189 337.889C566.048 337.559 564.882 337.326 563.702 337.192C561.44 336.812 558.164 336.326 554.106 335.798C545.991 334.721 534.747 333.539 522.404 332.23L504.925 330.287C499.557 329.633 494.696 329.252 490.638 328.767C487.436 328.443 484.253 327.942 481.106 327.268C478.887 326.697 477.661 326.317 477.64 326.402Z" fill="#6F4439"/>
<path d="M496.45 252.37C496.45 252.518 436.955 267.616 436.955 267.616C436.955 267.616 425.437 221.457 430.805 204.818C436.173 188.179 443.338 183.702 454.053 183.132C464.769 182.562 478.02 191.81 483.981 205.726C489.941 219.641 496.45 252.37 496.45 252.37Z" fill="#97A483"/>
<path d="M496.45 252.37C496.478 252.16 496.478 251.947 496.45 251.737C496.45 251.272 496.239 250.66 496.112 249.9C495.816 248.274 495.33 245.888 494.696 242.826C493.386 236.703 491.463 227.855 488.356 217.086C486.855 211.129 484.581 205.393 481.593 200.025C477.886 193.927 472.599 188.944 466.291 185.603C462.876 183.754 459.077 182.728 455.195 182.604C451.137 182.535 447.122 183.441 443.486 185.244C441.661 186.253 440 187.534 438.562 189.045C437.137 190.603 435.882 192.309 434.821 194.133C432.731 197.851 431.119 201.817 430.023 205.937C428.92 211.496 428.607 217.183 429.093 222.83C429.389 228.362 430.108 233.704 430.847 238.877C432.411 249.245 434.419 258.916 436.575 267.721V268.186L437.04 268.059L480.134 256.889L492.181 253.658L495.351 252.75C495.716 252.662 496.071 252.535 496.408 252.37C496.408 252.37 496.028 252.37 495.309 252.603L492.118 253.384L480.007 256.361L436.808 267.151L437.378 267.489C435.265 258.726 433.32 249.055 431.799 238.73C431.059 233.577 430.361 228.172 430.087 222.766C429.61 217.233 429.916 211.66 430.995 206.212C432.071 202.191 433.64 198.319 435.666 194.682C436.68 192.934 437.877 191.299 439.238 189.805C440.586 188.362 442.156 187.143 443.888 186.194C447.363 184.461 451.206 183.592 455.089 183.66C458.785 183.78 462.403 184.756 465.657 186.511C471.815 189.754 476.99 194.588 480.642 200.51C483.624 205.79 485.911 211.432 487.447 217.297C490.617 228.003 492.667 236.829 494.105 242.932C494.802 245.909 495.33 248.253 495.732 249.942L496.155 251.758C496.223 251.976 496.322 252.182 496.45 252.37Z" fill="#263238"/>
<path d="M492.181 303.576C492.181 303.576 492.054 303.428 492.329 303.132L493.745 302.013C494.929 301.042 496.556 299.606 498.268 297.98C500.497 296.13 502.479 294.001 504.165 291.646C501.737 293.19 499.508 295.027 497.528 297.114C495.795 298.74 494.273 300.261 493.301 301.338C492.857 301.785 492.447 302.265 492.075 302.773C492.02 302.87 491.99 302.979 491.99 303.09C491.99 303.201 492.02 303.311 492.075 303.407C492.075 303.724 492.181 303.597 492.181 303.576Z" fill="#6F4439"/>
</svg>
