<svg width="659" height="478" viewBox="0 0 659 478" fill="none" xmlns="http://www.w3.org/2000/svg">
<path d="M659 477.037C659 476.507 520.033 476.119 348.677 476.119C177.322 476.119 38.2778 476.507 38.2778 477.037C38.2778 477.567 177.217 477.955 348.677 477.955C520.138 477.955 659 477.531 659 477.037Z" fill="#263238"/>
<path d="M214.258 41.2486C226.625 37.0365 238.668 39.8898 250.641 45.0394C262.888 50.6199 273.081 59.6704 279.858 70.9833C286.636 82.2962 289.676 95.3338 288.573 108.357C287.052 121.591 280.122 134.376 269.051 142.325C253.937 153.195 232.245 153.888 215.525 145.545C198.806 137.203 187.101 120.748 183.129 102.949C180.424 90.7202 181.227 77.554 186.537 66.127C191.848 54.7 201.891 45.1345 214.244 41.235" fill="#263238"/>
<path d="M257.951 76.9967C255.247 72.608 255.035 67.241 253.401 62.3767C249.824 51.6835 239.076 44.4142 227.723 41.9005C217.145 39.5635 205.271 42.4305 194.059 48.11C186.241 51.8921 179.703 57.7461 175.213 64.9855C172.405 69.8597 170.846 75.3111 170.668 80.8846C170.489 86.4581 171.694 91.9921 174.184 97.0245L230.907 79.225C237.119 82.6762 243.499 86.1682 250.528 87.4862C252.579 87.9896 254.732 87.9615 256.768 87.4046C257.781 87.1168 258.686 86.5537 259.375 85.7826C260.065 85.0115 260.509 84.0651 260.656 83.0567C260.81 80.774 259.12 78.8989 257.951 76.9967Z" fill="#263238"/>
<path d="M277.051 179.364L258.74 73.2198C258.284 70.9372 256.958 68.9021 255.023 67.5162C253.089 66.1303 250.686 65.4941 248.289 65.7332L195.637 63.8174C179.269 65.4615 172.832 86.6577 175.241 102.351C177.903 119.797 181.889 140.994 186.833 153.399C196.778 178.345 218.019 177.421 218.019 177.421C218.019 177.421 221.751 193.726 223.949 203.156C223.949 203.156 232.104 212.354 246.119 207.096C260.135 201.838 277.051 179.364 277.051 179.364Z" fill="#FFBF9D"/>
<path d="M190.749 121.632C190.914 122.508 191.432 123.286 192.189 123.795C192.947 124.304 193.882 124.504 194.792 124.349C195.231 124.288 195.653 124.143 196.034 123.922C196.414 123.702 196.745 123.41 197.008 123.065C197.27 122.72 197.458 122.327 197.561 121.911C197.665 121.494 197.681 121.062 197.609 120.64C197.444 119.763 196.926 118.986 196.169 118.476C195.411 117.967 194.476 117.768 193.566 117.922C193.128 117.985 192.706 118.131 192.327 118.352C191.947 118.573 191.617 118.865 191.355 119.21C191.093 119.555 190.905 119.947 190.801 120.362C190.697 120.778 190.679 121.209 190.749 121.632Z" fill="#263238"/>
<path d="M224.991 114.036C225.159 114.911 225.678 115.686 226.434 116.195C227.191 116.704 228.125 116.904 229.034 116.754C229.472 116.691 229.893 116.545 230.273 116.324C230.652 116.103 230.983 115.811 231.245 115.466C231.507 115.121 231.695 114.73 231.799 114.314C231.903 113.898 231.921 113.467 231.851 113.044C231.679 112.171 231.16 111.398 230.404 110.89C229.649 110.382 228.717 110.18 227.808 110.327C227.37 110.39 226.948 110.536 226.569 110.757C226.189 110.978 225.859 111.269 225.597 111.614C225.335 111.959 225.147 112.351 225.043 112.767C224.939 113.182 224.921 113.614 224.991 114.036Z" fill="#263238"/>
<path d="M211.215 134.73C211.215 134.526 208.807 134.608 204.975 134.92C204.018 135.015 203.088 135.015 202.792 134.431C202.493 133.511 202.493 132.525 202.792 131.605C203.201 129.213 203.609 126.713 204.06 124.104C205.75 113.438 206.764 104.756 206.328 104.688C205.891 104.62 204.144 113.221 202.44 123.874C202.046 126.491 201.67 129 201.313 131.401C200.952 132.618 201.057 133.921 201.609 135.07C201.816 135.362 202.09 135.606 202.41 135.78C202.73 135.954 203.087 136.055 203.454 136.075C204.006 136.106 204.56 136.069 205.102 135.966C208.919 135.396 211.244 134.934 211.215 134.73Z" fill="#263238"/>
<path d="M217.962 177.421C230.604 175.013 242.306 169.27 251.768 160.831C251.768 160.831 246.697 180.56 219.371 183.644L217.962 177.421Z" fill="#FF9A6C"/>
<path d="M214.666 142.991C215.183 141.993 215.954 141.139 216.908 140.509C217.862 139.879 218.966 139.494 220.117 139.39C220.951 139.3 221.796 139.374 222.6 139.608C223.403 139.841 224.15 140.229 224.794 140.749C225.415 141.243 225.865 141.909 226.084 142.657C226.303 143.404 226.281 144.199 226.019 144.934C225.567 145.695 224.89 146.308 224.075 146.696C223.259 147.083 222.342 147.227 221.441 147.108C219.565 146.872 217.756 146.281 216.117 145.369C215.652 145.132 215.232 144.819 214.877 144.445C214.695 144.271 214.571 144.049 214.521 143.807C214.471 143.565 214.497 143.314 214.596 143.086" fill="#FF9A6C"/>
<path d="M222.625 134.934C222.019 135.015 222.864 138.888 220.033 142.339C217.202 145.79 212.849 146.238 212.99 146.795C212.99 147.04 214.117 147.352 215.934 147.026C218.286 146.569 220.398 145.334 221.906 143.534C223.346 141.794 224.033 139.583 223.822 137.366C223.554 135.749 222.892 134.934 222.625 134.934Z" fill="#263238"/>
<path d="M214.74 98.3505C215.318 99.2473 218.966 98.0244 223.346 97.644C227.727 97.2635 231.544 97.644 231.939 96.6929C232.094 96.2173 231.291 95.4292 229.671 94.7906C227.531 94.0266 225.24 93.7432 222.97 93.9622C220.7 94.1812 218.511 94.8967 216.571 96.0542C215.106 96.9918 214.487 97.9293 214.74 98.3505Z" fill="#263238"/>
<path d="M181.428 105.171C182.259 105.837 184.625 104.478 187.668 103.813C190.71 103.147 193.443 103.201 193.851 102.223C194.02 101.761 193.443 101.041 192.133 100.497C190.409 99.895 188.539 99.7994 186.758 100.223C184.978 100.646 183.368 101.569 182.132 102.875C181.231 103.921 181.132 104.832 181.428 105.171Z" fill="#263238"/>
<path d="M265.909 67.8798C257.979 53.8305 231.344 37.3354 215.328 41.4524L192.341 61.29C194.037 65.4017 196.854 68.9945 200.494 71.6878C204.134 74.3811 208.462 76.0747 213.018 76.5893C217.864 77.0921 223.47 76.4263 226.949 79.728C230.428 83.0298 230.019 89.049 233.414 92.5681C238.119 97.4595 247.88 95.3671 251.725 100.87C253.43 103.275 253.444 106.522 255.19 108.9C257.514 112.066 267.501 114.756 271.037 112.908C274.572 111.06 273.333 104.865 273.924 101.4C274.736 97.4517 274.114 93.3544 272.163 89.7963C269.163 82.7852 269.698 74.5784 265.909 67.8798Z" fill="#263238"/>
<path d="M260.656 118.044C260.233 116.115 261.529 111.115 263.473 110.408C268.544 108.533 278.108 106.998 281.038 119.92C285.052 137.502 265.924 137.746 265.783 137.257C265.642 136.768 262.092 124.689 260.656 118.044Z" fill="#FFBF9D"/>
<path d="M269.811 129.349C269.811 129.349 270.177 129.499 270.769 129.621C271.593 129.776 272.447 129.615 273.149 129.172C274.924 128.085 275.868 124.784 275.248 121.604C274.95 120.085 274.3 118.65 273.347 117.406C273.052 116.893 272.633 116.456 272.125 116.134C271.617 115.813 271.036 115.615 270.431 115.558C270.044 115.542 269.663 115.656 269.355 115.882C269.046 116.108 268.829 116.431 268.741 116.794C268.614 117.338 268.811 117.664 268.741 117.718C268.67 117.773 268.276 117.501 268.262 116.754C268.259 116.293 268.423 115.846 268.727 115.49C268.932 115.256 269.183 115.063 269.466 114.923C269.749 114.784 270.058 114.699 270.375 114.675C271.157 114.658 271.93 114.835 272.621 115.19C273.312 115.544 273.896 116.064 274.319 116.699C275.442 118.053 276.202 119.654 276.53 121.36C277.22 124.933 276.093 128.643 273.628 129.933C273.17 130.175 272.661 130.314 272.139 130.34C271.617 130.366 271.096 130.278 270.614 130.083C269.924 129.77 269.811 129.403 269.811 129.349Z" fill="#FF9A6C"/>
<path d="M196.763 55.0399C196.369 62.5402 186.664 73.6818 182.678 80.1358C175.071 92.4324 173.832 96.3048 178.212 120.246C172.24 112.718 167.338 105.191 166.014 95.7885C164.537 86.3156 166.707 76.6488 172.113 68.6137C174.842 64.6546 178.492 61.3647 182.771 59.0058C187.051 56.647 191.842 55.2843 196.763 55.0264" fill="#263238"/>
<path d="M275.234 66.0862C274.281 66.5946 273.282 67.0176 272.248 67.3498C271.072 67.8319 269.868 68.2493 268.642 68.5998C267.234 69.021 265.6 69.5781 263.769 69.9586C259.5 71.0336 255.154 71.8011 250.768 72.2548C239.99 73.3778 229.091 72.665 218.568 70.1488C214.291 69.1206 210.096 67.7946 206.018 66.1813C204.243 65.5427 202.736 64.8226 201.384 64.1704C200.032 63.5182 198.891 62.9747 197.975 62.4719C196.992 61.998 196.05 61.4482 195.158 60.8279C196.19 61.1631 197.189 61.5859 198.144 62.0915C199.074 62.5535 200.229 63.0834 201.595 63.6269C202.961 64.1704 204.497 64.8905 206.257 65.4748C210.338 66.9755 214.516 68.2146 218.765 69.1841C223.979 70.34 229.277 71.1122 234.612 71.494C239.948 71.8008 245.301 71.7281 250.627 71.2765C254.974 70.8646 259.289 70.1793 263.543 69.2249C265.374 68.8716 266.98 68.3689 268.417 68.002C269.854 67.6352 271.065 67.2547 272.065 66.9286C273.093 66.5573 274.154 66.2753 275.234 66.0862Z" fill="#455A64"/>
<path d="M279.418 78.4778C278.783 78.847 278.101 79.1348 277.389 79.3338C275.49 80.0103 273.553 80.5819 271.586 81.0458C258.548 84.1983 244.87 83.9026 231.992 80.1898C230.053 79.638 228.148 78.9802 226.287 78.2197C225.583 77.9878 224.911 77.673 224.287 77.2821C224.287 77.1055 227.301 78.2061 232.203 79.4561C245.022 82.7178 258.458 83.0111 271.417 80.3121C276.375 79.2251 279.361 78.3012 279.418 78.4778Z" fill="#455A64"/>
<path d="M235.527 16.2617C236.633 13.6525 238.275 11.2864 240.354 9.3061C242.434 7.32582 244.908 5.77242 247.626 4.7396C253.086 2.69794 258.981 1.97493 264.797 2.63355C272.459 3.31292 280.164 5.71789 285.996 10.5686C291.827 15.4193 295.503 22.9874 294.447 30.3382C293.39 37.689 286.827 44.306 279.122 44.6321C285.462 47.6579 291.075 51.9298 295.602 57.1732C296.419 58.1108 297.236 59.4559 296.532 60.4886C295.827 61.5212 293.883 61.2359 292.559 60.6788L277.601 54.3742C282.335 56.9088 286.151 60.7833 288.531 65.4751C289.362 67.1464 289.756 69.5513 288.038 70.4345C287.461 70.6047 286.852 70.6491 286.255 70.5645C285.659 70.4799 285.089 70.2684 284.587 69.9454L273.868 64.9588L249.345 44.075C244.184 41.4333 239.92 37.4145 237.062 32.4986C235.652 30.0432 234.787 27.3315 234.523 24.536C234.258 21.7406 234.6 18.9226 235.527 16.2617Z" fill="#263238"/>
<path d="M229.4 38.8575C229.4 39.0749 232.541 39.2923 237.471 40.4064C250.364 43.3546 261.945 50.1948 270.529 59.9315C273.797 63.6544 275.417 66.2768 275.628 66.1545C275.395 65.4742 275.063 64.8291 274.642 64.2387C273.632 62.5396 272.488 60.9179 271.22 59.388C267.064 54.3083 262.003 49.9834 256.275 46.6159C250.544 43.2361 244.241 40.8581 237.654 39.5912C235.666 39.205 233.651 38.9643 231.625 38.8711C230.888 38.7593 230.138 38.7547 229.4 38.8575Z" fill="#FF725E"/>
<path d="M307.11 375.077C307.11 375.077 324.618 400.376 329.647 420.105C334.365 438.516 336.351 476.615 336.351 476.615H146.661L158.155 376.87L267.36 379.696L307.11 375.077Z" fill="#263238"/>
<path d="M292.123 193.807C292.123 193.807 313.871 198.06 319.012 211.824C324.153 225.588 347.62 320.523 341.014 332.14C334.408 343.758 293.334 364.641 293.334 364.641L288.193 281.487L292.123 193.807Z" fill="#FFBF9D"/>
<path d="M169.212 235.575C169.212 235.575 192.862 193.223 211.469 188.019C229.78 182.911 277.107 177.72 277.107 177.72C277.107 177.72 307.082 195.126 307.082 200.37C307.082 220.52 298.63 342.684 298.63 342.684C298.63 342.684 309.716 364.859 307.082 375.05C305.546 381.069 225.16 411.844 172.452 403.216C152.281 399.914 172.452 336.285 172.452 336.285L168.409 279.476L169.212 235.575Z" fill="#97A483"/>
<path d="M300.518 289.829L342.183 276.242C342.183 276.242 323.604 213.02 315.927 206.566C308.251 200.112 304.941 197.354 304.941 197.354L300.518 289.829Z" fill="#97A483"/>
<g opacity="0.3">
<path d="M296.095 419.616C293.523 393.96 287.622 368.716 278.53 344.478L177.889 448.557C209.412 454.59 242.387 460.568 273.262 451.968C281.629 449.644 290.32 445.69 294.179 438.177C297.081 432.497 296.729 425.88 296.095 419.616Z" fill="black"/>
</g>
<path d="M176.847 310.319L173.41 343.595C173.41 343.595 242.64 355.225 265.6 334.749L296.208 189.949C296.208 189.949 303.391 191.09 304.969 197.327C306.49 203.346 280.178 340.741 280.178 340.741C280.178 340.741 295.87 421.396 290.405 434.182C284.939 446.967 259.487 454.237 240.894 454.237C222.301 454.237 151.831 451.519 143.323 436.926C138.59 428.774 150.873 381.218 150.873 381.218C150.873 381.218 144.689 378.501 147.309 368.745C149.873 360.285 152.886 351.959 156.338 343.798L174.973 303.295L176.847 310.319Z" fill="#455A64"/>
<g opacity="0.3">
<path d="M270.501 370.199C271.657 376.177 269.938 382.251 264.67 385.58C259.402 388.909 251.416 390.457 245.162 391.259C211.737 395.539 182.495 392.509 150.873 381.205C151.512 384.618 153.502 387.658 156.423 389.683C160.661 392.278 165.275 394.252 170.114 395.539C197.641 401.667 226.136 402.613 254.035 398.325C260.036 397.387 266.501 395.811 270.206 391.164C274.84 385.335 272.15 377.373 270.501 370.199Z" fill="black"/>
</g>
<path d="M265.585 334.749C265.641 334.888 265.674 335.035 265.684 335.184C265.684 335.496 265.811 335.918 265.909 336.447C266.107 337.602 266.374 339.233 266.741 341.312C267.431 345.537 268.825 351.597 269.896 359.206C270.45 363.362 270.756 367.544 270.811 371.734C270.92 374.089 270.731 376.448 270.248 378.759C269.72 381.277 268.251 383.521 266.121 385.063C263.865 386.549 261.365 387.656 258.726 388.338C257.416 388.732 256.092 389.18 254.74 389.533L250.613 390.566C244.834 391.813 238.96 392.599 233.048 392.917C221.642 393.389 210.215 392.98 198.876 391.694L184.044 390.118C179.715 389.571 175.429 388.75 171.212 387.658C167.353 386.721 163.916 385.647 160.916 384.737C158.288 384.114 155.72 383.277 153.239 382.237C151.695 381.482 150.272 380.516 149.013 379.37C148.577 378.989 148.281 378.677 148.07 378.473C147.957 378.368 147.854 378.254 147.76 378.133C147.89 378.219 148.012 378.314 148.126 378.419C148.351 378.595 148.661 378.908 149.112 379.261C150.392 380.34 151.813 381.253 153.338 381.979C155.828 382.96 158.395 383.75 161.014 384.343C164.043 385.226 167.451 386.245 171.311 387.156C175.482 388.186 179.716 388.962 183.988 389.479L198.82 390.987C210.123 392.24 221.512 392.631 232.879 392.156C238.748 391.847 244.581 391.07 250.317 389.832L254.416 388.827C255.824 388.473 257.078 388.025 258.388 387.645C260.953 386.984 263.386 385.914 265.585 384.479C267.598 383.033 268.992 380.925 269.501 378.555C269.966 376.319 270.16 374.039 270.079 371.761C270.048 367.592 269.775 363.428 269.262 359.288C268.262 351.706 266.938 345.619 266.332 341.366C265.994 339.246 265.769 337.602 265.628 336.475C265.628 335.945 265.529 335.524 265.487 335.197C265.503 335.045 265.536 334.895 265.585 334.749Z" fill="#263238"/>
<path d="M290.841 433.856C289.452 432.5 287.718 431.521 285.813 431.016C283.587 430.432 281.257 430.316 278.981 430.676C275.967 431.212 273.024 432.068 270.206 433.231C262.744 436.098 255.013 438.264 247.12 439.698C237.448 441.43 227.63 442.29 217.793 442.266C196.848 442.266 178.1 439.155 164.663 436.831C157.93 435.636 152.507 434.562 148.76 433.815L144.45 432.932L143.337 432.687L142.957 432.578H143.351L144.478 432.769L148.816 433.516L164.747 436.315C178.199 438.53 196.933 441.573 217.793 441.546C227.585 441.566 237.359 440.725 246.993 439.032C254.857 437.644 262.568 435.542 270.023 432.755C272.881 431.599 275.868 430.765 278.925 430.268C281.257 429.932 283.637 430.094 285.897 430.744C287.32 431.155 288.642 431.839 289.785 432.755C290.181 433.08 290.536 433.45 290.841 433.856Z" fill="#263238"/>
<path d="M271.741 380.322C271.961 380.945 272.126 381.586 272.234 382.237C272.516 383.474 272.882 385.281 273.304 387.509C274.164 391.98 275.192 398.175 276.122 405.051C277.051 411.926 277.629 418.162 277.967 422.714C278.15 424.97 278.263 426.79 278.305 428.068C278.372 428.727 278.372 429.392 278.305 430.051C278.139 429.41 278.04 428.755 278.009 428.095C277.868 426.736 277.671 424.902 277.446 422.755C276.967 418.244 276.277 412.007 275.375 405.091C274.474 398.175 273.516 392.034 272.797 387.564C272.459 385.417 272.178 383.637 271.952 382.251C271.817 381.616 271.746 380.97 271.741 380.322Z" fill="#263238"/>
<path d="M35.4134 248.755C29.7792 248.755 23.8914 246.282 18.384 241.513C11.3412 235.48 5.81966 226.444 2.6645 216.064C-0.490668 205.683 -0.856892 195.153 1.63625 186.443C4.21391 177.462 9.51008 171.429 16.5388 169.432C23.5675 167.435 31.4131 169.772 38.5968 175.981C45.7804 182.19 51.1611 191.063 54.3022 201.512C60.8942 223.251 54.6684 244.108 40.4279 248.13C38.797 248.573 37.1076 248.784 35.4134 248.755ZM21.5673 171.755C20.1611 171.754 18.7619 171.946 17.4121 172.326C11.4539 174.011 6.91834 179.31 4.65056 187.272C2.29827 195.425 2.65041 205.398 5.65063 215.248C8.65086 225.099 13.9048 233.605 20.4968 239.285C27.0889 244.964 33.6246 246.866 39.5968 245.181C52.1893 241.622 57.4714 222.382 51.3583 202.286C48.344 192.435 43.0337 183.848 36.5121 178.223C31.5962 173.97 26.4128 171.755 21.5673 171.755Z" fill="#263238"/>
<path d="M46.5831 303.104L36.1316 249.257L46.8084 246.01L64.4013 297.981C64.7898 299.131 64.9334 300.344 64.8234 301.548C64.7135 302.752 64.3523 303.923 63.7615 304.989C63.1708 306.055 62.3626 306.995 61.3858 307.752C60.4089 308.509 59.2834 309.068 58.0769 309.395C56.894 309.714 55.6572 309.805 54.4379 309.661C53.2185 309.517 52.0407 309.142 50.9723 308.557C49.9039 307.973 48.9661 307.19 48.2127 306.254C47.4594 305.318 46.9056 304.247 46.5831 303.104Z" fill="#455A64"/>
<path d="M38.442 248.755C32.8077 248.755 26.9341 246.282 21.4266 241.513C14.3838 235.48 8.8482 226.444 5.69304 216.064C2.53787 205.683 2.18573 195.153 4.67888 186.443C7.24245 177.462 12.5386 171.429 19.5814 169.432C26.6242 167.435 34.4417 169.772 41.6394 175.981C48.6822 182.027 54.2037 191.063 57.3589 201.444C63.9509 223.184 57.7251 244.04 43.4846 248.062C41.8477 248.529 40.1489 248.762 38.442 248.755ZM24.5959 171.755C23.1943 171.753 21.7997 171.946 20.4547 172.326C14.4965 174.011 9.96096 179.31 7.6791 187.272C5.3409 195.425 5.69303 205.398 8.69326 215.248C11.6935 225.099 16.9474 233.646 23.4972 239.325C30.047 245.005 36.639 246.907 42.5972 245.222C55.1897 241.662 60.4718 222.423 54.3727 202.327C51.3725 192.476 46.1186 183.93 39.5547 178.264C34.5825 173.97 29.4554 171.755 24.5959 171.755Z" fill="#455A64"/>
<path d="M39.2728 248.361L55.7107 309.735C55.7107 309.735 48.2172 309.898 46.9495 304.096C45.6818 298.294 35.4697 248.877 35.4697 248.877L39.2728 248.361Z" fill="#263238"/>
<path d="M10.2426 206.43C10.0567 206.049 9.91953 205.647 9.83417 205.234C9.52215 204.12 9.3008 202.985 9.17214 201.837C8.96311 200.138 8.89716 198.425 8.97495 196.715C9.08984 194.619 9.39622 192.536 9.89051 190.492C10.4285 188.456 11.1496 186.469 12.0456 184.554C12.7834 182.997 13.655 181.501 14.6514 180.084C15.3075 179.123 16.0423 178.214 16.8488 177.367C17.1182 177.035 17.4306 176.738 17.7784 176.483C17.8911 176.579 16.6516 177.924 15.0881 180.369C14.1657 181.799 13.3559 183.293 12.6654 184.84C10.9471 188.615 9.93148 192.654 9.66514 196.769C9.53584 198.443 9.53584 200.123 9.66514 201.797C9.93277 204.65 10.3835 206.403 10.2426 206.43Z" fill="white"/>
<path d="M49.8366 208.754C50.058 209.227 50.2188 209.724 50.3155 210.235C50.6563 211.609 50.9104 213.002 51.0762 214.406C51.6315 219.052 51.3792 223.754 50.3296 228.32C49.7808 230.851 48.9202 233.309 47.7661 235.643C46.8134 237.567 45.4159 239.254 43.6812 240.575C42.5093 241.463 41.1479 242.09 39.695 242.41C39.1697 242.559 38.6169 242.596 38.0752 242.518C40.0116 242.18 41.8282 241.376 43.3573 240.181C44.9791 238.856 46.2817 237.205 47.1745 235.344C48.2588 233.047 49.0761 230.641 49.6113 228.17C50.6326 223.667 50.9554 219.042 50.5691 214.447C50.2451 210.928 49.7099 208.781 49.8366 208.754Z" fill="white"/>
<path d="M71.3456 264.339L146.408 286.691C146.408 286.691 191.214 204.732 197.116 199.392C213.3 184.649 233.949 190.261 240.978 210.452C248.007 230.643 231.315 251.798 211.398 279.951C187.749 313.363 177.734 345.171 158.972 344.464C140.21 343.757 61.7815 293.022 61.7815 293.022L71.3456 264.339Z" fill="#FFBF9D"/>
<path d="M158.916 251.581L214.145 290.604C214.145 290.604 250.57 237.274 245.95 218.469C241.33 199.664 233.752 194.745 225.906 191.566C213.596 186.593 201.707 189.772 191.918 203.536C182.129 217.3 158.916 251.581 158.916 251.581Z" fill="#97A483"/>
<path d="M160.958 253.035C160.958 253.035 161.056 253.035 161.239 253.184L162 253.701C162.718 254.176 163.704 254.856 164.972 255.725L176.043 263.429L214.342 290.332L213.835 290.454L228.709 262.465L237.794 245.426C239.203 242.709 240.752 239.991 242.02 237.274C243.287 234.672 244.232 231.936 244.837 229.121C247.189 218.02 243.583 207.381 237.639 201.09C231.695 194.799 225.089 191.28 220.314 190.085C218.484 189.585 216.574 189.414 214.68 189.582C213.398 189.759 212.722 189.949 212.708 189.908C213.345 189.7 214.001 189.545 214.666 189.446C216.583 189.209 218.53 189.334 220.399 189.813C225.272 190.954 231.836 194.501 238.034 200.683C244.231 206.865 247.894 217.871 245.513 229.216C244.92 232.099 243.975 234.904 242.696 237.572C241.358 240.29 239.879 242.939 238.47 245.725C235.541 251.241 232.498 256.934 229.399 262.777C224.145 272.628 219.089 282.085 214.483 290.74L214.285 291.093L213.961 290.862L175.818 263.687L164.831 255.861L161.944 253.755L161.197 253.198L160.958 253.035Z" fill="#263238"/>
<path d="M47.4145 246.01C47.4145 246.01 58.3026 248.605 63.5143 252.98C68.9936 257.573 77.5999 266.038 76.966 266.377L66.3737 296.623C66.3737 296.623 39.8506 298.063 34.3431 293.606C28.8356 289.15 24.4832 286.704 25.2297 282.315C25.9763 277.926 23.5254 271.799 23.5254 271.799C23.5254 271.799 17.6799 253.007 30.1738 253.143C42.6677 253.279 47.3722 255.467 47.3722 255.467L47.4145 246.01Z" fill="#FFBF9D"/>
<path d="M152.31 310.564C151.71 309.49 151.238 308.355 150.901 307.18C149.906 304.398 149.059 301.568 148.366 298.702C147.665 295.836 147.115 292.939 146.718 290.02C146.483 288.82 146.393 287.598 146.45 286.378C146.805 287.548 147.064 288.743 147.225 289.952C147.647 292.153 148.267 295.196 149.084 298.539C149.901 301.881 150.746 304.871 151.394 307.031C151.797 308.183 152.103 309.364 152.31 310.564Z" fill="#FF9A6C"/>
<path d="M307.941 377.359C307.926 377.138 307.926 376.915 307.941 376.693C307.941 376.204 307.941 375.566 307.941 374.764C307.941 373.962 307.842 372.862 307.772 371.639C307.701 370.416 307.504 369.017 307.166 367.468C305.414 358.9 302.447 350.607 298.349 342.82V342.739C299.053 332.602 299.87 320.727 300.743 308.064C302.152 288.552 303.434 270.889 304.363 258.035C304.856 251.676 305.265 246.513 305.546 242.872C305.701 241.132 305.814 239.746 305.898 238.795C305.898 238.361 305.983 238.007 306.011 237.722C306.015 237.601 306.038 237.482 306.082 237.369C306.097 237.49 306.097 237.614 306.082 237.735V238.809C306.082 239.801 305.955 241.187 305.856 242.885C305.631 246.513 305.307 251.69 304.913 258.049C304.039 270.902 302.828 288.579 301.504 308.104C300.588 320.754 299.743 332.643 299.025 342.766V342.603C303.128 350.44 306.045 358.805 307.687 367.44C307.997 369.003 308.068 370.43 308.223 371.653C308.378 372.875 308.293 373.935 308.293 374.791C308.293 375.647 308.18 376.245 308.138 376.734C308.108 376.951 308.041 377.163 307.941 377.359Z" fill="#263238"/>
<path d="M360.438 413.76C349.381 420.989 346.648 450.365 345.366 476.684L548.959 476.779L544.733 411.872L360.438 413.76Z" fill="#455A64"/>
<path d="M358.536 476.778L360.438 413.774L544.395 414.929L556.861 476.683L358.536 476.778Z" fill="#263238"/>
<g opacity="0.3">
<path d="M486.997 476.683C488.635 476.706 490.223 476.14 491.452 475.095C492.681 474.05 493.463 472.601 493.645 471.031C494.18 467.729 491.081 460.161 489.983 456.954C504.068 457.403 520.182 461.207 534.211 459.753C539.254 459.237 544.916 458.245 547.776 454.196C542.946 446.757 539.157 438.734 536.507 430.337L477.109 434.005L469.939 451.519L486.997 476.683Z" fill="black"/>
</g>
<path d="M476.869 212.952C485.081 209.297 494.307 208.509 503.307 207.776L546.423 204.243C558.199 203.278 570.96 202.544 580.905 208.713C593.145 216.308 596.92 231.635 599.498 245.467C606.893 285.047 612.837 324.953 614.992 365.131C615.569 375.783 615.724 387.088 610.231 396.382C603.061 408.284 588.145 413.882 574.059 415.526C559.974 417.171 545.423 415.757 531.324 417.959L460.586 232.423C461.459 223.754 468.601 216.607 476.869 212.952Z" fill="#263238"/>
<path d="M592.905 378.936C592.153 378.972 591.399 378.944 590.652 378.854C589.243 378.732 587.13 378.596 584.553 378.474C577.839 378.129 571.11 378.129 564.396 378.474C557.682 378.84 550.991 379.543 544.353 380.58C541.803 380.987 539.747 381.341 538.324 381.599C537.593 381.767 536.848 381.872 536.098 381.911C536.806 381.666 537.531 381.471 538.268 381.327C539.676 380.987 541.719 380.553 544.254 380.091C557.543 377.694 571.102 376.99 584.581 377.998C587.159 378.188 589.243 378.406 590.68 378.596C591.43 378.654 592.174 378.768 592.905 378.936Z" fill="#455A64"/>
<path d="M558.438 205.479C558.604 205.435 558.774 205.407 558.945 205.398C559.45 205.333 559.958 205.306 560.467 205.316C562.433 205.333 564.377 205.725 566.185 206.471C569.055 207.65 571.619 209.427 573.693 211.675C576.357 214.676 578.395 218.146 579.693 221.893C581.257 226.426 582.578 231.034 583.651 235.698C584.933 240.698 586.243 246.038 587.581 251.676C590.258 262.954 592.934 275.413 595.089 288.607C597.176 301.002 598.554 313.499 599.216 326.04C599.732 336.282 599.634 346.544 598.92 356.775C598.188 365.498 597.174 372.522 596.272 377.346C595.793 379.71 595.413 381.558 595.159 382.876C595.018 383.474 594.92 383.949 594.849 384.303L594.723 384.792C594.704 384.625 594.704 384.456 594.723 384.289C594.723 383.922 594.863 383.447 594.962 382.849C595.202 381.49 595.526 379.669 595.948 377.292C596.765 372.468 597.695 365.457 598.357 356.747C598.99 346.531 599.037 336.289 598.498 326.067C597.78 313.553 596.369 301.084 594.272 288.715C592.103 275.549 589.455 263.09 586.835 251.826C585.511 246.187 584.229 240.834 582.961 235.847C581.694 230.86 580.623 226.159 579.116 222.069C577.855 218.343 575.866 214.884 573.256 211.879C571.243 209.65 568.748 207.873 565.946 206.675C564.168 205.912 562.256 205.478 560.312 205.398C559.142 205.398 558.438 205.588 558.438 205.479Z" fill="#455A64"/>
<path d="M603.301 399.887C602.538 396.278 601.55 392.716 600.343 389.221C598.889 385.81 597.219 382.489 595.343 379.275C596.143 380.051 596.83 380.929 597.385 381.884C600.313 386.363 602.233 391.386 603.019 396.626C603.266 397.696 603.361 398.793 603.301 399.887Z" fill="#455A64"/>
<path d="M598.005 459.237C595.777 459.47 593.526 459.411 591.314 459.06C578.736 457.036 566.538 445.323 560.227 429.168C554.805 415.309 553.438 398.27 556.368 381.205C556.929 377.924 557.682 374.675 558.622 371.476C558.508 364.746 559.806 358.063 562.439 351.829C564.325 347.452 567.2 343.538 570.856 340.371C574.512 337.205 578.854 334.866 583.567 333.527C588.537 332.198 593.77 332.064 598.806 333.137C603.842 334.21 608.529 336.457 612.457 339.682C625.81 350.28 634.444 371.462 634.994 394.969C635.275 407.401 633.768 425.296 625.035 440.011C618.415 451.166 608.33 458.191 598.005 459.237ZM560.847 389.208C559.439 402.7 560.847 415.812 565.171 426.668C570.651 440.69 581.102 450.853 591.793 452.565C602.315 454.237 613.499 447.783 620.542 436.098C626.711 425.717 629.909 411.07 629.543 394.874C629.176 378.161 623.753 356.313 609.64 345.13C605.497 341.789 600.427 339.696 595.061 339.111C602.943 341.142 609.682 346.081 613.823 352.861C619.147 362.155 621.683 374.601 621.359 389.901C621.133 400.159 619.105 418.543 607.949 426.328C597.047 433.951 583.215 427.347 574.989 417.972C568.763 410.961 563.65 400.458 560.904 389.208H560.847ZM564.115 373.039C564.411 387.849 570.425 404.086 578.553 413.339C585.3 421.016 596.413 426.586 604.907 420.649C613.922 414.358 615.584 398.393 615.767 389.398C616.063 375.552 613.865 364.424 609.245 356.34C604.259 347.657 590.3 342.209 582.99 346.068C573.721 351.489 567.58 362.359 564.2 373.039H564.115Z" fill="#AE7461"/>
<path d="M599.315 339.913C599.315 340.185 596.329 339.478 591.596 339.573C585.29 339.682 579.257 342.073 574.693 346.272C569.214 351.516 566.552 358.962 565.495 364.302C565.002 367.296 564.734 370.32 564.692 373.351C564.431 372.547 564.298 371.708 564.298 370.865C564.163 368.595 564.281 366.317 564.65 364.071C565.524 358.487 568.129 350.688 573.919 345.13C576.255 342.953 579.021 341.249 582.053 340.122C585.085 338.995 588.32 338.466 591.568 338.568C593.494 338.62 595.409 338.856 597.286 339.274C597.998 339.362 598.686 339.579 599.315 339.913Z" fill="#263238"/>
<path d="M563.903 398.773C563.622 398.977 560.297 391.98 558.931 382.4C557.565 372.821 558.678 365.117 559.016 365.253C559.354 365.389 558.635 372.903 560.142 382.21C561.65 391.518 564.199 398.61 563.903 398.773Z" fill="#263238"/>
<path d="M565.875 384.547C564.858 384.63 563.858 384.85 562.903 385.2C561.354 385.893 560.495 387.224 560.382 387.102C560.57 386.56 560.874 386.062 561.275 385.641C561.675 385.219 562.163 384.884 562.706 384.656C563.181 384.38 563.722 384.225 564.276 384.206C564.831 384.187 565.381 384.305 565.875 384.547Z" fill="#263238"/>
<path d="M573.918 407.293C573.918 407.469 572.735 407.754 571.58 408.828C570.926 409.561 570.32 410.333 569.763 411.138C569.905 410.085 570.441 409.118 571.27 408.42C572.538 407.184 573.918 407.143 573.918 407.293Z" fill="#263238"/>
<path d="M586.215 427.063C585.801 425.898 585.862 424.626 586.384 423.503C587.131 421.614 588.553 420.989 588.567 421.152C587.869 421.946 587.286 422.828 586.835 423.774C586.495 424.843 586.287 425.947 586.215 427.063Z" fill="#263238"/>
<path d="M610.217 424.644C610.217 424.793 608.668 424.983 607.273 423.461C606.819 423.022 606.466 422.494 606.237 421.913C606.009 421.333 605.911 420.712 605.949 420.092C606.332 421.134 606.884 422.11 607.583 422.986C608.33 423.711 609.228 424.276 610.217 424.644Z" fill="#263238"/>
<path d="M620.795 397.55C620.5 397.989 620.069 398.327 619.563 398.518C619.058 398.708 618.504 398.74 617.978 398.61C617.399 398.494 616.861 398.234 616.418 397.855C615.976 397.476 615.644 396.991 615.457 396.45C615.541 396.327 616.443 397.713 618.034 398.026C618.983 398.117 619.938 397.953 620.795 397.55Z" fill="#263238"/>
<path d="M619.908 370.797C619.824 371.361 619.573 371.891 619.186 372.322C618.799 372.753 618.292 373.068 617.724 373.229C617.186 373.395 616.606 373.39 616.071 373.214C615.536 373.038 615.073 372.7 614.752 372.251C615.625 372.665 616.609 372.807 617.57 372.658C619.133 372.223 619.809 370.688 619.908 370.797Z" fill="#263238"/>
<path d="M608.245 346.082C608.409 346.713 608.42 347.371 608.279 348.007C608.137 348.643 607.846 349.24 607.428 349.75C606.104 351.408 604.357 351.109 604.428 350.946C605.454 350.673 606.375 350.116 607.076 349.343C607.702 348.348 608.101 347.237 608.245 346.082Z" fill="#263238"/>
<path d="M582.51 346.217C582.581 346.217 582.355 346.652 581.877 346.476C581.6 346.335 581.355 346.142 581.157 345.908C580.959 345.675 580.811 345.406 580.722 345.117C580.522 344.713 580.413 344.274 580.401 343.827C580.388 343.379 580.474 342.935 580.651 342.522C580.773 343.32 580.947 344.109 581.172 344.886C581.308 345.376 581.593 345.816 581.989 346.15C582.186 346.299 582.384 346.15 582.51 346.217Z" fill="#263238"/>
<path d="M569.143 362.128C569.143 362.291 568.326 362.264 567.537 361.544C566.749 360.824 566.509 359.873 566.636 359.832C566.763 359.791 567.157 360.484 567.819 361.082C568.481 361.68 569.157 361.965 569.143 362.128Z" fill="#263238"/>
<path d="M566.115 360.009C565.596 358.91 564.814 357.946 563.833 357.196C562.859 356.691 561.748 356.487 560.65 356.612C561.146 356.265 561.746 356.085 562.359 356.097C562.972 356.109 563.563 356.314 564.045 356.68C564.634 357.041 565.128 357.53 565.488 358.108C565.847 358.686 566.062 359.337 566.115 360.009Z" fill="#263238"/>
<path d="M579.694 342.223C579.337 341.15 578.918 340.098 578.44 339.071C577.553 337.467 576.412 336.598 576.496 336.448C576.581 336.299 577.905 337.005 578.834 338.772C579.497 339.803 579.799 341.013 579.694 342.223Z" fill="#263238"/>
<path d="M600.16 333.445C600.432 334.019 600.58 334.64 600.595 335.271C600.609 335.902 600.49 336.529 600.244 337.114C599.54 339.125 598.019 339.695 598.019 339.532C598.778 338.742 599.375 337.82 599.779 336.815C600.09 335.718 600.219 334.581 600.16 333.445Z" fill="#263238"/>
<path d="M621.95 350.579C621.912 351.099 621.768 351.607 621.526 352.073C621.284 352.539 620.95 352.955 620.541 353.296C619.316 354.411 617.978 354.37 617.992 354.22C618.006 354.071 619.133 353.84 620.231 352.862C621.33 351.883 621.865 350.497 621.95 350.579Z" fill="#263238"/>
<path d="M632.472 376.191C632.322 376.657 632.054 377.08 631.693 377.421C631.331 377.763 630.888 378.012 630.402 378.148C629.949 378.332 629.452 378.387 628.967 378.308C628.483 378.228 628.033 378.017 627.669 377.699C628.534 377.797 629.41 377.756 630.261 377.577C631.599 377.183 632.359 376.069 632.472 376.191Z" fill="#263238"/>
<path d="M634.839 403.407C634.587 403.899 634.176 404.298 633.667 404.543C633.158 404.788 632.581 404.866 632.022 404.765C631.429 404.679 630.872 404.436 630.412 404.065C629.953 403.693 629.608 403.207 629.416 402.659C629.514 402.537 630.43 404.018 632.064 404.181C633.05 404.213 634.022 403.942 634.839 403.407Z" fill="#263238"/>
<path d="M626.303 436.886C625.798 436.972 625.28 436.942 624.791 436.798C624.301 436.654 623.854 436.4 623.485 436.057C622.839 435.509 622.414 434.758 622.288 433.937C622.218 433.272 622.401 432.891 622.457 432.918C622.513 432.946 622.457 433.326 622.626 433.856C622.813 434.524 623.2 435.124 623.739 435.581C625.007 436.573 626.345 436.682 626.303 436.886Z" fill="#263238"/>
<path d="M608.893 456.547C608.893 456.724 607.329 455.922 606.681 453.829C606.44 453.232 606.33 452.592 606.359 451.951C606.388 451.31 606.556 450.682 606.85 450.106C606.757 451.292 606.857 452.484 607.146 453.639C607.542 454.702 608.134 455.687 608.893 456.547Z" fill="#263238"/>
<path d="M583.764 456.954C583.038 455.908 582.747 454.638 582.947 453.394C583.116 451.247 584.271 450.065 584.356 450.215C583.917 451.262 583.614 452.357 583.454 453.476C583.423 454.643 583.527 455.809 583.764 456.954Z" fill="#263238"/>
<path d="M569.143 435.445C569.143 435.608 567.946 435.907 567.073 437.266C566.581 438.159 566.225 439.115 566.016 440.106C565.889 439.554 565.883 438.983 565.996 438.429C566.11 437.874 566.343 437.349 566.678 436.886C567.693 435.35 569.172 435.282 569.143 435.445Z" fill="#263238"/>
<path d="M561.763 416.518C561.763 416.695 560.594 416.41 559.34 417.021C558.087 417.632 557.439 418.706 557.326 418.611C557.213 418.516 557.72 417.13 559.143 416.478C559.537 416.238 559.994 416.114 560.459 416.122C560.925 416.129 561.378 416.267 561.763 416.518Z" fill="#263238"/>
<path d="M543.705 203.672C541.198 198.958 539.155 194.963 537.479 191.58C532.225 180.968 521.45 172.299 509.717 170.152L532 272.669L557.988 309.015L593.779 303.064C593.779 303.064 555.41 225.616 543.705 203.672Z" fill="#FFBF9D"/>
<path d="M401.384 177.34L399.976 68.8311C398.722 41.8466 413.949 18.6666 441.951 18.2046L444.542 18.2997C457.099 18.8156 468.995 23.8686 477.867 32.4548C486.739 41.0411 491.939 52.5324 492.433 64.6462C493.391 88.0437 494.124 113.9 493.433 126.401C492.025 152.217 464.967 155.233 464.967 155.233C464.967 155.233 464.812 170.981 464.826 178.59L452.149 198.563L421.301 208.496L401.384 177.34Z" fill="#FFBF9D"/>
<path d="M465.065 155.233C465.065 155.233 448.163 155.518 430.542 143.874C430.542 143.874 438.12 163.671 465.009 162.407L465.065 155.233Z" fill="#FF9A6C"/>
<path d="M480.165 86.2636C480.132 87.2284 479.71 88.1428 478.99 88.8126C478.269 89.4823 477.306 89.8547 476.305 89.8507C475.816 89.8689 475.327 89.7923 474.868 89.6257C474.41 89.459 473.99 89.2055 473.634 88.8802C473.279 88.5548 472.994 88.1642 472.797 87.7311C472.601 87.2981 472.495 86.8315 472.488 86.3587C472.521 85.3939 472.943 84.4796 473.663 83.8098C474.384 83.14 475.347 82.7676 476.348 82.7717C476.838 82.7535 477.326 82.83 477.785 82.9967C478.244 83.1633 478.663 83.4168 479.019 83.7421C479.374 84.0675 479.659 84.4582 479.856 84.8912C480.053 85.3242 480.158 85.7908 480.165 86.2636Z" fill="#263238"/>
<path d="M443.134 86.2636C443.101 87.2284 442.679 88.1428 441.959 88.8126C441.238 89.4823 440.275 89.8547 439.275 89.8507C438.785 89.8689 438.298 89.7923 437.84 89.6255C437.382 89.4587 436.963 89.205 436.609 88.8794C436.254 88.5539 435.971 88.1631 435.775 87.7302C435.58 87.2972 435.477 86.8309 435.471 86.3587C435.501 85.3952 435.919 84.4808 436.638 83.8107C437.356 83.1405 438.317 82.7677 439.317 82.7717C439.807 82.7535 440.295 82.83 440.754 82.9967C441.213 83.1633 441.632 83.4168 441.988 83.7421C442.343 84.0675 442.628 84.4582 442.825 84.8912C443.022 85.3242 443.127 85.7908 443.134 86.2636Z" fill="#263238"/>
<path d="M459.361 106.4C459.361 106.169 461.924 105.843 466.107 105.503C467.164 105.503 468.164 105.272 468.375 104.593C468.513 103.545 468.311 102.482 467.798 101.549C466.91 99.0493 465.995 96.4269 464.981 93.6823C461.121 82.4999 458.375 73.3012 458.839 73.1653C459.304 73.0295 462.811 81.97 466.671 93.166C467.601 95.8834 468.488 98.6009 469.319 101.06C469.933 102.311 470.067 103.731 469.699 105.068C469.53 105.422 469.28 105.734 468.967 105.981C468.655 106.228 468.289 106.404 467.896 106.495C467.309 106.617 466.708 106.671 466.107 106.658C461.952 106.645 459.361 106.55 459.361 106.4Z" fill="#263238"/>
<path d="M445.909 69.1088C445.304 70.1007 441.346 68.8778 436.472 68.5789C431.598 68.28 427.514 68.8507 427.063 67.7773C426.866 67.2745 427.725 66.4185 429.486 65.644C431.791 64.7189 434.294 64.3414 436.782 64.5435C439.269 64.7005 441.682 65.4221 443.825 66.6495C445.459 67.6414 446.177 68.6333 445.909 69.1088Z" fill="#263238"/>
<path d="M485.208 70.4946C484.321 71.3778 480.982 70.3587 476.94 70.2093C472.897 70.0598 469.46 70.6305 468.7 69.6658C468.376 69.1902 468.939 68.3071 470.446 67.4782C472.533 66.4501 474.868 65.9809 477.207 66.1195C479.533 66.1895 481.795 66.8758 483.743 68.1032C485.152 69.1223 485.588 70.0734 485.208 70.4946Z" fill="#263238"/>
<path d="M401.384 88.0983C400.934 87.8809 383.172 82.0927 382.989 99.8242C382.806 117.556 401.3 114.064 401.3 113.547C401.3 113.031 401.384 88.0983 401.384 88.0983Z" fill="#FFBF9D"/>
<path d="M395.792 106.781C395.722 106.781 395.468 106.998 394.933 107.229C394.165 107.528 393.306 107.528 392.538 107.229C390.609 106.523 389.003 103.533 388.933 100.34C388.906 98.8192 389.228 97.3112 389.876 95.9244C390.053 95.3723 390.368 94.8706 390.793 94.4631C391.218 94.0557 391.74 93.755 392.313 93.5874C392.68 93.4936 393.069 93.5281 393.412 93.6848C393.755 93.8415 394.029 94.1102 394.186 94.4434C394.426 94.9462 394.313 95.2994 394.412 95.3266C394.51 95.3538 394.806 95.0277 394.665 94.3076C394.568 93.863 394.314 93.4646 393.947 93.1798C393.444 92.8117 392.813 92.646 392.186 92.7178C391.431 92.8552 390.725 93.1773 390.136 93.653C389.546 94.1288 389.093 94.7424 388.82 95.4353C388.02 96.9631 387.619 98.6562 387.651 100.368C387.735 103.941 389.609 107.297 392.257 108.058C392.748 108.201 393.266 108.236 393.773 108.161C394.28 108.086 394.763 107.902 395.187 107.623C395.764 107.216 395.863 106.822 395.792 106.781Z" fill="#FF9A6C"/>
<path d="M446.402 108.792C447.036 108.792 447.064 112.868 450.628 115.694C454.191 118.52 458.741 118.099 458.783 118.67C458.783 118.928 457.783 119.471 455.882 119.526C453.409 119.573 450.998 118.774 449.078 117.27C447.233 115.83 446.041 113.755 445.754 111.482C445.641 109.784 446.106 108.765 446.402 108.792Z" fill="#263238"/>
<path d="M529.633 41.3301C529.315 40.2799 528.588 39.3889 527.605 38.8437C525.52 37.6208 523.097 37.7567 520.745 37.7023C514.896 37.5186 509.165 36.06 503.983 33.4359C505.82 32.6085 507.504 31.4979 508.97 30.1477C511.97 27.3216 513.731 22.96 512.421 19.1148C512.334 18.7459 512.162 18.4006 511.918 18.1043C511.674 17.808 511.365 17.5683 511.012 17.4028C509.815 17.0495 508.758 18.1637 507.913 19.0469C505.096 21.9682 502.603 23.2046 498.532 22.7698C496.076 22.5886 493.694 21.8782 491.56 20.6909L491.335 20.4464C490.391 19.4817 489.475 18.5713 488.517 17.7289C481.686 11.0439 475.84 6.39702 469.699 3.95129C460.769 0.364225 445.754 -1.21191 436.401 1.05718C427.048 3.32627 418.526 10.5683 417.118 19.7806C411.92 15.4462 404.046 15.3918 397.623 17.7968L397.468 17.7289C390.327 20.0931 386.2 27.308 384.017 34.2783L383.679 35.4332C381.239 39.1088 377.921 42.1656 374.002 44.3465C373.312 44.727 372.509 45.1889 372.424 45.9498C372.34 46.7107 372.988 47.3086 373.621 47.7977C375.323 48.9922 377.283 49.8004 379.354 50.1619C378.696 51.8268 377.885 53.4319 376.932 54.9583C376.115 56.317 375.143 57.8252 375.833 59.1975C376.149 59.7037 376.618 60.1049 377.177 60.3477C377.735 60.5904 378.357 60.6632 378.96 60.5563C380.154 60.3305 381.286 59.8678 382.284 59.1975L379.833 64.6325C382.413 65.0779 385.066 64.9383 387.58 64.2249C388.989 70.7876 390.017 82.9211 391.707 87.3234C396.581 87.4593 397.778 86.9565 400.229 87.7717C403.398 88.818 402.117 94.2393 406.272 92.7447C408.399 91.9838 411.723 84.307 412.455 82.2417C417.294 68.4925 419.013 53.9011 417.498 39.4551C420.489 36.4492 424.051 34.0273 427.992 32.3217L427.682 32.5935C435.218 30.1613 443.753 27.7699 450.839 31.2347C456.332 33.9522 459.515 39.5094 463.6 43.9661C471.333 52.431 480.151 56.9964 491.771 57.5535C492.729 65.3934 492.898 78.1927 493.18 85.5027L499.927 71.0729C500.446 70.2431 500.916 69.3857 501.335 68.5049L501.476 68.2467C502.127 66.8508 502.856 65.4901 503.659 64.1705H503.73C507.786 67.7168 513.9 62.4449 510.773 58.1513C510.143 57.2945 509.377 56.538 508.505 55.9094C509.426 56.7812 510.564 57.4103 511.809 57.7362C513.055 58.0622 514.366 58.0741 515.618 57.7709C516.858 57.4216 517.944 56.6879 518.708 55.6833C519.471 54.6787 519.871 53.4592 519.844 52.2136C519.752 51.373 519.434 50.5703 518.919 49.8859C518.405 49.2015 517.714 48.6594 516.914 48.314C520.248 48.6091 523.598 47.9373 526.534 46.3846C528.366 45.3248 530.239 43.6264 529.633 41.3301Z" fill="#263238"/>
<path d="M425.569 22.7974C424.6 23.5104 423.691 24.2964 422.851 25.148C420.699 27.601 419.243 30.5503 418.625 33.708C418.135 35.8735 417.876 38.0816 417.85 40.2979C417.85 42.6893 417.991 45.2437 418.146 47.9476C418.357 50.7783 418.39 53.6187 418.245 56.4533C418.14 57.9617 417.919 59.4604 417.583 60.9371C417.328 62.518 416.659 64.01 415.639 65.2715C415.163 65.7706 414.562 66.1419 413.892 66.3492C413.223 66.5564 412.51 66.5924 411.822 66.4536C410.506 66.2018 409.316 65.532 408.441 64.5513C407 62.6042 406.129 60.3184 405.92 57.9343H406.483C405.651 59.8931 404.526 61.724 403.145 63.3692C401.816 64.8939 399.93 65.8669 397.877 66.0867C396.908 66.1734 395.933 65.9994 395.06 65.584C394.263 65.1789 393.615 64.5483 393.201 63.7769C392.809 63.0674 392.619 62.2703 392.651 61.467C392.7 60.7184 393.013 60.0086 393.539 59.4561L393.82 59.7007C392.201 61.4399 390.219 62.829 388.003 63.7769C387.418 64.0323 386.815 64.2501 386.2 64.429C385.991 64.5044 385.774 64.5546 385.552 64.5785L386.158 64.3339C386.566 64.1845 387.158 63.9535 387.905 63.6002C390.052 62.5854 391.967 61.1673 393.539 59.4289L393.82 59.6735C393.372 60.212 393.11 60.8719 393.07 61.5613C393.029 62.2506 393.213 62.9349 393.595 63.5187C393.974 64.2082 394.564 64.7681 395.285 65.122C396.063 65.4896 396.932 65.6357 397.793 65.5432C399.701 65.3277 401.451 64.4133 402.68 62.9888C404.006 61.3833 405.087 59.6035 405.892 57.7033L406.286 56.8745L406.455 57.7848C406.655 60.0592 407.482 62.2405 408.85 64.1029C409.634 64.9799 410.7 65.5779 411.878 65.8014C412.462 65.9251 413.07 65.8972 413.639 65.7206C414.208 65.5439 414.718 65.2249 415.118 64.7959C416.068 63.6071 416.689 62.2042 416.921 60.7197C417.253 59.2749 417.469 57.8077 417.569 56.331C417.746 53.521 417.746 50.7032 417.569 47.8932C417.428 45.1758 417.273 42.6213 417.329 40.2028C417.381 37.9566 417.669 35.7214 418.188 33.5314C418.855 30.3209 420.402 27.3415 422.668 24.9034C423.505 24.0491 424.486 23.3371 425.569 22.7974Z" fill="#455A64"/>
<path d="M508.477 48.9529C508.408 49.0144 508.332 49.069 508.251 49.116L507.575 49.5915C507.212 49.8477 506.831 50.0793 506.434 50.2845C505.904 50.587 505.354 50.8549 504.786 51.0861C501.163 52.6299 497.198 53.2745 493.25 52.9612C487.382 52.5237 481.771 50.4567 477.094 47.0099C471.449 42.7464 466.766 37.4153 463.333 31.3437C461.403 28.1914 459.853 24.9441 458.135 21.9548C456.562 19.045 454.57 16.3644 452.219 13.9926C450.097 11.8491 447.446 10.2596 444.514 9.37292C443.194 8.99576 441.82 8.82602 440.444 8.87019C439.166 8.92764 437.901 9.14691 436.683 9.52238C434.591 10.1882 432.67 11.2768 431.048 12.7154C429.81 13.7958 428.768 15.0679 427.964 16.4791C427.345 17.7146 426.872 19.0137 426.555 20.3515C426.555 20.3515 426.555 20.2564 426.555 20.0798C426.555 19.9031 426.64 19.6042 426.696 19.2917C426.916 18.2798 427.266 17.2984 427.738 16.3704C428.529 14.9142 429.567 13.5961 430.809 12.4708C432.448 10.9681 434.403 9.82345 436.542 9.11476C437.794 8.71325 439.097 8.47561 440.415 8.40821C441.841 8.35043 443.267 8.51095 444.641 8.88378C447.663 9.78318 450.401 11.405 452.599 13.5986C455.005 15.9946 457.041 18.7129 458.642 21.6695C460.389 24.6859 461.938 27.9061 463.84 31.0448C467.246 37.0592 471.868 42.3539 477.432 46.6159C482.017 50.0232 487.514 52.0973 493.278 52.5943C497.164 52.9303 501.077 52.3618 504.688 50.9367C505.985 50.3377 507.249 49.6756 508.477 48.9529Z" fill="#455A64"/>
<path d="M511.054 37.5803C510.762 37.8311 510.435 38.0414 510.082 38.2053C509.183 38.7314 508.241 39.1858 507.265 39.5641C505.797 40.1425 504.279 40.5971 502.73 40.9228C500.826 41.3209 498.888 41.5483 496.941 41.6022C494.992 41.6204 493.045 41.4703 491.123 41.1538C489.561 40.8797 488.025 40.4797 486.531 39.9581C485.522 39.6108 484.543 39.1883 483.602 38.6945C483.239 38.5451 482.902 38.3435 482.602 38.0966C482.602 38.0015 484.137 38.7488 486.672 39.5505C488.16 40.0077 489.681 40.3574 491.222 40.5967C496.559 41.4416 502.033 40.9408 507.11 39.1429C509.561 38.2869 510.998 37.4716 511.054 37.5803Z" fill="#455A64"/>
<path d="M529.478 267.601L572.806 251.201C572.806 251.201 542.761 170.261 507.857 170.152L502.998 177.422L529.478 267.601Z" fill="#E0E0E0"/>
<path d="M509.717 170.152L465.108 161.809C465.108 161.809 462.868 181.864 437.922 184.731C415.301 187.34 401.018 167.176 401.018 167.176C401.018 167.176 348.902 181.864 338.943 188.916L358.55 332.1L367.973 386.449C367.973 386.449 360.424 406.083 360.424 413.719C360.653 419.246 361.599 424.724 363.241 430.024H546.776C546.776 430.024 547.015 409.765 543.804 402.686C540.592 395.607 537.902 390.621 537.902 390.621L526.633 306.379L525.675 245.236L509.717 170.152Z" fill="#E0E0E0"/>
<path d="M357.776 417.809C352.057 425.16 350.93 447.416 355.607 455.432C397.229 454.536 438.711 450.405 480.306 449.508C479.968 442.266 479.771 438.258 479.447 431.002C439.599 421.179 398.342 411.287 357.776 417.809Z" fill="#455A64"/>
<path d="M550.255 424.1C549.927 421.535 548.885 419.103 547.24 417.062C544.423 414.114 539.733 413.855 535.563 413.937C508.573 414.552 482.106 421.248 458.276 433.489L463.262 450.487C492.955 445.46 523.562 461.588 552.973 455.229C553.323 444.786 552.411 434.339 550.255 424.1Z" fill="#455A64"/>
<path d="M475.319 426.26L466.277 426.151C457.346 441.505 452.106 459.454 453.6 477.009L487.334 476.751C483.531 460.908 479.08 442.089 475.319 426.26Z" fill="#455A64"/>
<path d="M486.527 442.344C488.747 433.219 482.879 424.086 473.42 421.944C463.961 419.802 454.493 425.463 452.272 434.588C450.052 443.712 455.92 452.845 465.379 454.987C474.838 457.129 484.307 451.468 486.527 442.344Z" fill="#455A64"/>
<path d="M486.997 438.476C486.861 437.104 486.631 435.742 486.306 434.4C485.303 430.733 483.044 427.501 479.897 425.228C477.745 423.658 475.241 422.597 472.587 422.13C469.548 421.601 466.418 421.859 463.516 422.877C461.954 423.417 460.487 424.182 459.163 425.147C457.757 426.131 456.526 427.329 455.515 428.693C453.337 431.537 452.162 434.98 452.162 438.516C452.162 442.053 453.337 445.496 455.515 448.34C456.526 449.704 457.757 450.901 459.163 451.886C460.487 452.851 461.954 453.616 463.516 454.156C466.418 455.174 469.548 455.432 472.587 454.903C475.241 454.436 477.745 453.375 479.897 451.805C483.042 449.53 485.3 446.299 486.306 442.633C486.631 441.291 486.861 439.929 486.997 438.557C487.031 438.919 487.031 439.283 486.997 439.644C487.01 440.099 486.977 440.554 486.898 441.003C486.84 441.599 486.731 442.19 486.574 442.769C485.778 445.964 484.045 448.87 481.582 451.14C479.119 453.41 476.03 454.947 472.686 455.569C469.539 456.142 466.29 455.893 463.276 454.849C461.647 454.293 460.114 453.505 458.727 452.511C457.266 451.49 455.983 450.252 454.924 448.843C452.646 445.879 451.416 442.287 451.416 438.598C451.416 434.909 452.646 431.317 454.924 428.353C457.027 425.594 459.935 423.503 463.276 422.348C466.29 421.3 469.54 421.056 472.686 421.641C476.029 422.256 479.117 423.788 481.581 426.053C484.044 428.318 485.778 431.221 486.574 434.413C486.723 434.999 486.832 435.593 486.898 436.193C486.977 436.642 487.01 437.097 486.997 437.552C487.021 437.859 487.021 438.168 486.997 438.476Z" fill="#263238"/>
<path d="M482.573 428.421C482.573 428.557 480.601 428.761 477.516 429.603C475.715 430.101 473.954 430.727 472.249 431.478C470.173 432.416 468.18 433.515 466.29 434.766C464.418 436.049 462.661 437.481 461.036 439.046C459.725 440.319 458.51 441.681 457.402 443.122C455.529 445.622 454.585 447.362 454.585 447.307C454.691 446.861 454.872 446.434 455.12 446.044C455.668 444.927 456.309 443.854 457.036 442.837C458.097 441.304 459.294 439.863 460.614 438.53C462.246 436.914 464.023 435.441 465.924 434.128C467.849 432.854 469.89 431.754 472.023 430.839C473.775 430.101 475.589 429.51 477.446 429.073C478.686 428.766 479.948 428.548 481.221 428.421C481.67 428.369 482.124 428.369 482.573 428.421Z" fill="#263238"/>
<path d="M482.193 450.854C480.556 447.476 478.639 444.232 476.46 441.152C474.07 438.216 471.442 435.467 468.601 432.932C469.63 433.442 470.579 434.092 471.418 434.862C475.653 438.351 478.99 442.742 481.165 447.688C481.669 448.688 482.016 449.755 482.193 450.854Z" fill="#263238"/>
<path d="M429.387 434.005C430.506 433.803 431.644 433.721 432.782 433.761C434.88 433.761 437.796 433.761 440.993 433.978C444.191 434.196 447.078 434.535 449.163 434.861C450.296 434.968 451.412 435.205 452.487 435.568C451.352 435.602 450.215 435.533 449.093 435.364C447.008 435.16 444.135 434.902 440.937 434.685C437.74 434.467 434.866 434.345 432.782 434.263C431.644 434.295 430.506 434.209 429.387 434.005Z" fill="#263238"/>
<path d="M509.984 430.119C508.874 430.469 507.733 430.719 506.575 430.866C504.476 431.274 501.575 431.858 498.42 432.646C495.264 433.434 492.419 434.263 490.377 434.888C489.291 435.294 488.169 435.604 487.024 435.812C488.026 435.24 489.095 434.784 490.208 434.453C495.46 432.511 500.922 431.144 506.491 430.377C507.639 430.151 508.813 430.065 509.984 430.119Z" fill="#263238"/>
<path d="M506.026 438.978C502.873 439.005 499.722 438.796 496.603 438.353C493.449 438.13 490.318 437.675 487.236 436.994C490.394 436.959 493.55 437.168 496.673 437.619C499.822 437.842 502.949 438.297 506.026 438.978Z" fill="#263238"/>
<path d="M527.112 272.723L515.844 171.524C515.844 171.524 506.744 161.809 486.94 165.885L530.169 332.684C530.169 332.684 528.999 313.662 529.591 301.977C530.183 290.291 527.112 272.723 527.112 272.723Z" fill="#263238"/>
<path d="M513.984 196.308C514.096 196.679 514.186 197.055 514.252 197.436L514.886 200.697C515.421 203.523 516.139 207.626 516.998 212.708C518.689 222.858 520.773 236.934 522.633 252.533C524.492 268.131 525.675 282.316 526.379 292.575C526.746 297.711 526.985 301.868 527.112 304.803C527.112 306.162 527.225 307.303 527.253 308.119C527.29 308.503 527.29 308.889 527.253 309.273C527.174 308.897 527.126 308.516 527.112 308.132C527.041 307.303 526.943 306.203 526.83 304.83C526.605 301.896 526.267 297.751 525.872 292.683C525.027 282.425 523.731 268.226 521.9 252.682C520.069 237.138 518.055 223.021 516.491 212.844C515.703 207.817 515.083 203.713 514.618 200.806C514.407 199.447 514.238 198.333 514.111 197.531C514.03 197.128 513.988 196.719 513.984 196.308Z" fill="#263238"/>
<g opacity="0.3">
<path d="M406.343 424.141L386.975 455.392C387.609 458.109 391.271 459.305 394.018 458.449C396.764 457.593 398.807 455.365 400.694 453.231C409.892 442.823 416.259 429.657 425.471 419.263C418.893 414.901 411.906 418.597 406.343 424.141Z" fill="black"/>
</g>
<path d="M456.008 352.685C456.098 352.525 456.212 352.378 456.346 352.25L457.403 351.027L459.149 349.111C459.473 348.731 459.896 348.323 460.206 347.916C460.516 347.508 460.023 347.033 459.628 346.557C457.678 344.156 455.291 342.117 452.586 340.538C449.167 338.505 445.313 337.251 441.317 336.869L441.669 336.421C442.83 339.198 444.364 341.816 446.233 344.206C448.287 346.746 450.745 348.956 453.515 350.756C454.924 351.693 456.332 352.535 457.741 353.337C459.149 354.139 460.558 355.117 461.967 354.845C462.298 354.809 462.61 354.676 462.861 354.465C463.113 354.254 463.292 353.975 463.375 353.663C463.45 352.958 463.373 352.246 463.15 351.571C462.804 350.175 462.332 348.811 461.741 347.495C459.699 342.839 456.267 338.876 451.881 336.108C448.925 334.256 445.624 332.973 442.162 332.331C439.697 331.869 438.303 331.896 438.303 331.815C438.64 331.794 438.979 331.794 439.317 331.815C440.284 331.85 441.248 331.941 442.204 332.086C446.637 332.73 450.827 334.452 454.378 337.091C457.93 339.73 460.725 343.198 462.502 347.168C463.105 348.528 463.577 349.938 463.91 351.381C464.169 352.151 464.255 352.966 464.164 353.772C464.047 354.215 463.798 354.615 463.447 354.921C463.097 355.228 462.66 355.429 462.192 355.497C461.305 355.631 460.397 355.488 459.6 355.09C458.825 354.737 458.192 354.315 457.403 353.921C455.994 353.12 454.501 352.25 453.078 351.313C450.243 349.473 447.732 347.207 445.641 344.6C443.734 342.161 442.18 339.482 441.021 336.638L440.796 336.135H441.359C445.482 336.572 449.441 337.931 452.924 340.103C455.653 341.746 458.042 343.866 459.966 346.353C460.175 346.6 460.367 346.859 460.544 347.128C460.647 347.279 460.703 347.456 460.703 347.637C460.703 347.818 460.647 347.996 460.544 348.147C460.135 348.649 459.755 348.989 459.403 349.37L457.6 351.231L456.459 352.372C456.177 352.599 456.027 352.703 456.008 352.685Z" fill="#263238"/>
<path d="M347.916 185.438C347.916 185.438 329.266 192.585 321.294 208.971C312.842 226.186 289.559 322.67 294.531 346.815C297.25 359.913 306.152 374.832 321.561 380.879L360.339 397.795L384.284 366.109L344.352 337.494L352.916 277.397L347.916 185.438Z" fill="#FFBF9D"/>
<path d="M338.943 188.93C338.943 188.93 321.618 197.585 314.8 221.336C309.166 241.092 300.095 288.797 300.095 288.797L379.904 291.84C379.904 291.84 375.453 257.084 375.453 254.883C375.453 252.682 356.184 182.693 355.423 181.593L338.943 188.93Z" fill="#E0E0E0"/>
<path d="M342.859 231.581C343 231.581 348.747 266.215 355.677 309.029C362.607 351.842 368.128 386.477 367.988 386.477C367.847 386.477 362.1 351.842 355.17 309.029C348.24 266.215 342.718 231.608 342.859 231.581Z" fill="#263238"/>
<path d="M406.441 417.891C407.828 418.23 409.032 419.059 409.814 420.214C410.597 421.369 410.901 422.766 410.667 424.127C410.588 424.785 410.367 425.42 410.019 425.99C409.67 426.56 409.201 427.053 408.642 427.438C408.083 427.822 407.446 428.089 406.773 428.221C406.101 428.353 405.407 428.347 404.737 428.203C403.349 427.861 402.145 427.029 401.362 425.872C400.58 424.715 400.276 423.316 400.511 421.953C400.591 421.297 400.813 420.664 401.163 420.095C401.512 419.526 401.982 419.035 402.541 418.652C403.099 418.269 403.735 418.003 404.407 417.872C405.079 417.741 405.772 417.747 406.441 417.891Z" fill="#FF725E"/>
<path d="M477.136 377.074L464.375 378.976L404.244 417.564L410.23 426.437L469.953 388.025L477.136 377.074Z" fill="#FF725E"/>
<g opacity="0.7">
<path d="M469.939 388.026C469.824 387.984 469.721 387.919 469.634 387.835C469.548 387.751 469.481 387.651 469.439 387.54C469.396 387.429 469.378 387.311 469.387 387.193C469.395 387.076 469.43 386.961 469.488 386.857C469.019 386.993 468.517 386.985 468.053 386.834C467.589 386.683 467.185 386.397 466.896 386.015C466.607 385.623 466.438 385.16 466.408 384.679C466.378 384.199 466.489 383.72 466.727 383.297C466.236 383.254 465.765 383.09 465.358 382.822C464.951 382.553 464.622 382.188 464.403 381.762C464.182 381.338 464.073 380.869 464.085 380.395C464.097 379.921 464.231 379.457 464.474 379.044L477.151 377.156L469.939 388.026Z" fill="white"/>
</g>
<path d="M471.995 377.835C471.995 377.835 470.925 380.077 474.179 381.558L477.122 377.074L471.995 377.835Z" fill="#263238"/>
<g opacity="0.3">
<path d="M466.727 383.257L407.568 421.641L404.54 417.388L464.403 378.977H464.502C464.283 379.317 464.152 379.704 464.122 380.104C464.058 380.639 464.151 381.18 464.389 381.667C464.683 382.263 465.18 382.742 465.798 383.026C466.089 383.16 466.405 383.238 466.727 383.257Z" fill="black"/>
</g>
<g opacity="0.3">
<path d="M469.488 386.857L409.512 425.323L410.315 426.451L469.939 388.026C469.742 387.945 469.581 387.8 469.483 387.616C469.385 387.433 469.357 387.222 469.404 387.02C469.426 386.963 469.455 386.909 469.488 386.857Z" fill="black"/>
</g>
<path d="M468.051 380.729C468.051 380.729 468.051 380.729 467.939 380.824C467.91 380.889 467.904 380.962 467.922 381.03C467.94 381.099 467.98 381.16 468.037 381.205C468.223 381.327 468.446 381.389 468.671 381.381C468.809 381.387 468.944 381.343 469.051 381.259C469.113 381.216 469.162 381.158 469.194 381.092C469.226 381.025 469.24 380.952 469.234 380.879C469.221 380.793 469.189 380.711 469.14 380.639C469.092 380.566 469.028 380.504 468.953 380.457C468.804 380.343 468.637 380.252 468.46 380.186C468.077 380.03 467.664 379.956 467.248 379.968C467.14 379.968 467.034 379.991 466.936 380.035C466.839 380.08 466.753 380.145 466.685 380.226C466.629 380.327 466.6 380.439 466.6 380.552C466.6 380.666 466.629 380.778 466.685 380.879C466.927 381.311 467.338 381.634 467.826 381.775C468.266 381.939 468.746 381.975 469.206 381.879C469.667 381.782 470.088 381.557 470.418 381.232C470.482 381.149 470.527 381.055 470.551 380.954C470.576 380.853 470.578 380.749 470.558 380.648C470.507 380.451 470.416 380.267 470.291 380.104C470.047 379.827 469.773 379.577 469.474 379.357C469.052 379.063 468.573 378.855 468.065 378.745L467.643 378.677H467.488C467.68 378.656 467.873 378.656 468.065 378.677C468.6 378.775 469.109 378.979 469.558 379.275C469.875 379.485 470.156 379.742 470.389 380.036C470.529 380.199 470.63 380.389 470.685 380.593C470.706 380.705 470.702 380.82 470.673 380.93C470.644 381.041 470.59 381.143 470.516 381.232C470.181 381.571 469.749 381.806 469.275 381.907C468.801 382.009 468.306 381.972 467.854 381.803C467.608 381.717 467.375 381.598 467.164 381.449C466.952 381.297 466.782 381.096 466.671 380.865C466.612 380.754 466.581 380.63 466.581 380.505C466.581 380.38 466.612 380.256 466.671 380.145C466.742 380.056 466.834 379.983 466.939 379.934C467.044 379.884 467.16 379.859 467.277 379.86C467.702 379.845 468.126 379.924 468.516 380.091C468.704 380.159 468.88 380.255 469.037 380.376C469.114 380.43 469.179 380.499 469.227 380.579C469.276 380.658 469.307 380.746 469.319 380.838C469.327 380.919 469.313 381 469.279 381.074C469.244 381.148 469.19 381.212 469.122 381.259C469.003 381.342 468.86 381.385 468.713 381.381C468.476 381.381 468.245 381.309 468.051 381.178C467.992 381.128 467.952 381.061 467.937 380.988C467.921 380.914 467.932 380.837 467.967 380.77C467.981 380.729 468.051 380.743 468.051 380.729Z" fill="white"/>
<path d="M472.827 383.433C472.827 383.433 472.7 383.338 472.475 383.202C472.139 383.028 471.77 382.922 471.39 382.889C470.843 382.824 470.289 382.824 469.742 382.889C469.067 383.006 468.375 383.006 467.7 382.889C467.007 382.721 466.377 382.368 465.883 381.87C465.471 381.45 465.167 380.943 464.995 380.389C464.883 380.018 464.826 379.634 464.826 379.248C464.817 379.112 464.817 378.976 464.826 378.84V378.949C464.817 379.048 464.817 379.148 464.826 379.248C464.838 379.631 464.905 380.01 465.023 380.376C465.2 380.92 465.503 381.417 465.911 381.83C466.395 382.314 467.01 382.657 467.686 382.821C468.352 382.931 469.033 382.931 469.7 382.821C470.252 382.755 470.81 382.755 471.362 382.821C471.751 382.859 472.126 382.98 472.461 383.175C472.592 383.248 472.715 383.334 472.827 383.433Z" fill="white"/>
<path d="M471.319 386.015C471.248 385.759 471.089 385.533 470.868 385.376C470.332 385.033 469.743 384.776 469.122 384.615C468.51 384.434 467.883 384.307 467.248 384.235C467.889 384.295 468.521 384.418 469.136 384.601C469.477 384.698 469.811 384.816 470.136 384.955C470.414 385.063 470.675 385.209 470.911 385.39C471.074 385.511 471.197 385.676 471.263 385.865C471.288 385.912 471.307 385.963 471.319 386.015Z" fill="white"/>
<path d="M466.671 385.648C466.811 385.627 466.954 385.627 467.094 385.648C467.443 385.614 467.795 385.66 468.122 385.784C468.466 385.921 468.74 386.185 468.883 386.517C468.907 386.625 468.907 386.736 468.883 386.843C468.889 386.884 468.889 386.925 468.883 386.966C468.876 386.822 468.847 386.68 468.798 386.544C468.735 386.385 468.637 386.24 468.511 386.12C468.384 386.001 468.232 385.909 468.066 385.852C467.747 385.732 467.407 385.677 467.066 385.688L466.671 385.648Z" fill="white"/>
<path d="M473.672 382.02C473.578 382.037 473.483 382.037 473.39 382.02C473.27 381.966 473.165 381.887 473.08 381.789C472.848 381.548 472.632 381.294 472.432 381.028C472.168 380.723 471.88 380.437 471.573 380.172C471.005 379.709 470.402 379.286 469.77 378.909L469.206 378.569L468.995 378.433L469.22 378.542C469.347 378.61 469.559 378.718 469.798 378.868C470.439 379.235 471.047 379.653 471.615 380.118C471.923 380.387 472.21 380.678 472.474 380.988C472.714 381.286 472.911 381.558 473.108 381.762C473.174 381.846 473.259 381.913 473.357 381.958C473.455 382.002 473.563 382.024 473.672 382.02Z" fill="white"/>
<path d="M404.807 417.157L410.441 426.328C410.48 426.387 410.495 426.457 410.482 426.525C410.469 426.593 410.429 426.654 410.371 426.695L407.681 428.339C407.649 428.356 407.615 428.366 407.579 428.369C407.544 428.373 407.508 428.369 407.474 428.359C407.44 428.349 407.408 428.333 407.381 428.31C407.353 428.288 407.331 428.261 407.314 428.231L401.68 419.073C401.645 419.01 401.634 418.937 401.649 418.867C401.665 418.798 401.706 418.735 401.765 418.692L404.455 417.062C404.516 417.035 404.585 417.029 404.649 417.047C404.714 417.064 404.77 417.103 404.807 417.157Z" fill="#E0E0E0"/>
<path d="M404.807 417.157C404.752 417.112 404.682 417.088 404.61 417.089C404.505 417.132 404.406 417.186 404.314 417.252L403.906 417.51L402.793 418.203L402.103 418.624L401.92 418.747C401.849 418.747 401.793 418.815 401.765 418.869C401.751 418.899 401.744 418.931 401.744 418.964C401.744 418.997 401.751 419.029 401.765 419.059L401.892 419.263C403.3 421.573 405.258 424.698 407.413 428.258C407.437 428.296 407.474 428.326 407.517 428.341C407.561 428.356 407.609 428.355 407.653 428.339L407.948 428.163L408.568 427.782L409.765 427.048L410.357 426.695C410.395 426.673 410.425 426.641 410.442 426.602C410.46 426.563 410.465 426.519 410.456 426.478V426.396L410.357 426.247L409.653 425.078L407.188 421.002L405.54 418.285C405.342 417.972 405.202 417.714 405.089 417.537L404.976 417.333L405.103 417.524L405.568 418.257L407.258 420.975L409.751 425.051C409.977 425.432 410.216 425.826 410.47 426.22L410.554 426.369V426.437V426.546C410.569 426.615 410.563 426.687 410.535 426.752C410.507 426.817 410.46 426.873 410.399 426.913L409.808 427.279L408.596 428.013L407.991 428.38L407.667 428.57C407.59 428.603 407.503 428.606 407.424 428.578C407.345 428.55 407.281 428.494 407.244 428.421L401.765 419.412C401.71 419.34 401.663 419.263 401.624 419.181C401.589 419.094 401.589 418.997 401.624 418.91C401.667 418.842 401.731 418.79 401.807 418.76L402.004 418.638L402.694 418.217L403.821 417.551L404.23 417.306C404.357 417.306 404.441 417.157 404.554 417.157C404.594 417.158 404.633 417.167 404.669 417.183C404.706 417.2 404.738 417.223 404.765 417.252L404.807 417.157Z" fill="#263238"/>
<path d="M406.709 427.158C407.15 426.783 407.621 426.442 408.117 426.138C408.606 425.797 409.124 425.497 409.667 425.242C409.225 425.616 408.755 425.957 408.258 426.261C407.772 426.606 407.253 426.906 406.709 427.158Z" fill="#263238"/>
<path d="M404.469 423.733C404.91 423.333 405.381 422.966 405.878 422.633C406.362 422.248 406.875 421.898 407.413 421.586C406.985 422.02 406.513 422.411 406.004 422.755C405.522 423.122 405.008 423.449 404.469 423.733Z" fill="#263238"/>
<path d="M405.033 417.673C404.591 418.059 404.12 418.414 403.624 418.733C403.126 419.08 402.604 419.394 402.061 419.671C402.516 419.271 403.011 418.916 403.54 418.611C404.008 418.257 404.507 417.943 405.033 417.673Z" fill="#263238"/>
<path d="M438.049 331.95C440.035 330.184 443.275 330.891 445.909 331.475C448.906 332.183 451.761 333.363 454.36 334.967C457.158 336.795 459.826 338.801 462.347 340.972C463.98 342.804 465.345 344.843 466.403 347.032C468.756 351.611 467.742 355.864 465.643 359.519L382.496 461.03L367.269 455.84L368.424 434.766L438.049 331.95Z" fill="#97A483"/>
<path d="M438.472 331.312C438.472 331.312 434.486 344.247 445.346 352.4C454.022 358.894 461.769 358.989 461.769 358.989L436.134 391.083L427.682 390.091L429.908 396.001L374.157 464.292C374.157 464.292 357.452 463.748 351.226 446.085L438.472 331.312Z" fill="#97A483"/>
<path d="M438.472 331.312L351.507 446.22V445.894C353.091 450.615 355.961 454.839 359.818 458.123C363.845 461.437 368.831 463.476 374.101 463.966L373.791 464.101L377.03 460.147L429.654 395.811V396.124C428.894 394.099 428.161 392.143 427.429 390.213L427.26 389.738L427.767 389.806L436.218 390.798L435.936 390.906L461.628 358.867L461.811 359.234C448.346 357.617 439.415 349.044 438.275 342.005C437.669 339.388 437.55 336.687 437.922 334.029C438.011 333.343 438.142 332.662 438.317 331.991C438.429 331.543 438.514 331.339 438.514 331.326L438.373 332.005C438.289 332.467 438.148 333.146 438.049 334.043C437.739 336.686 437.901 339.361 438.528 341.951C439.014 343.829 439.783 345.628 440.81 347.291C442.103 349.217 443.722 350.921 445.599 352.332C447.811 353.948 450.207 355.316 452.74 356.408C455.593 357.675 458.653 358.452 461.783 358.704H462.22L461.952 359.03L436.373 391.164L436.274 391.3H436.091L427.64 390.308L427.978 389.901C428.71 391.83 429.387 393.787 430.218 395.811V395.974L430.105 396.11L377.622 460.46L374.382 464.427L374.27 464.577H374.087C371.36 464.344 368.691 463.683 366.185 462.62C363.7 461.616 361.394 460.24 359.353 458.544C355.413 455.186 352.471 450.876 350.831 446.057V445.881L350.944 445.745L438.472 331.312Z" fill="#263238"/>
<path d="M439.81 419.956C440.312 419.955 440.809 419.855 441.27 419.662C441.731 419.469 442.145 419.186 442.488 418.832C442.832 418.478 443.096 418.06 443.265 417.604C443.434 417.147 443.505 416.662 443.472 416.179C443.387 414.508 443.233 412.374 442.979 410.391C442.458 406.314 439.528 396.912 437.993 395.186C436.457 393.461 415.836 379.507 412.47 377.971C409.103 376.436 401.567 373.053 399.159 372.305C396.75 371.558 357.325 346.802 357.325 346.802C357.325 346.802 340.676 371.599 338.394 379.248L336.112 386.884L369.213 401.763L386.496 419.698C386.496 419.698 394.947 427.307 397.469 428.367C401.624 430.092 405.286 425.744 405.286 425.744C405.286 425.744 412.033 427.796 415.357 424.848C418.681 421.899 418.09 420.35 418.09 420.35C418.09 420.35 423.118 422.375 426.231 419.671C429.344 416.967 428.316 414.861 428.316 414.861L424.597 410.214L412.85 395.349L430.288 406.151C430.288 406.151 433.528 418.38 437.148 419.549C438.007 419.818 438.906 419.956 439.81 419.956Z" fill="#FFBF9D"/>
<path d="M399.553 402.754C400.75 403.293 401.876 403.968 402.906 404.765C405.478 406.556 407.895 408.547 410.131 410.717C412.368 412.891 414.412 415.24 416.245 417.741C417.059 418.743 417.749 419.832 418.301 420.989C417.41 420.062 416.586 419.077 415.836 418.04C411.967 413.252 407.517 408.928 402.582 405.159C401.518 404.424 400.506 403.621 399.553 402.754Z" fill="#FF9A6C"/>
<path d="M392.736 415.622C397.679 418.408 402.165 421.889 406.047 425.948C403.715 424.366 401.473 422.665 399.328 420.853C397.035 419.225 394.834 417.479 392.736 415.622Z" fill="#FF9A6C"/>
<path d="M317.829 338.486C317.829 338.486 318.139 338.255 318.759 337.943C319.648 337.514 320.565 337.142 321.505 336.829C327.741 334.701 334.506 334.487 340.873 336.217C341.834 336.465 342.775 336.779 343.69 337.155C344.338 337.426 344.676 337.589 344.662 337.644C344.648 337.698 343.169 337.236 340.76 336.693C334.453 335.271 327.869 335.482 321.674 337.304C319.294 337.997 317.885 338.595 317.829 338.486Z" fill="#FF9A6C"/>
<path d="M520.534 254C522.013 255.358 593.779 303.064 593.779 303.064C593.779 303.064 605.047 333.961 586.116 346.897C572.721 356.014 548.508 340.103 545.155 333.961C541.803 327.82 512.505 281.242 512.505 281.242L520.534 254Z" fill="#FFBF9D"/>
<path d="M472.122 264.014L442.74 269.313L440.444 257.465C451.388 259.72 461.262 258.239 469.826 252.166L472.122 264.014Z" fill="#263238"/>
<path d="M481.348 228.306L460.755 232.831L456.98 212.952C459.302 210.748 462.196 209.188 465.358 208.435C468.521 207.682 471.835 207.764 474.953 208.672L481.348 228.306Z" fill="#263238"/>
<path d="M477.658 216.648C474.45 215.076 470.772 214.641 467.266 215.418C463.76 216.196 460.648 218.136 458.473 220.901L459.023 223.89C461.185 221.009 464.341 218.967 467.925 218.129C471.542 217.246 475.372 217.733 478.63 219.488L477.658 216.648Z" fill="#455A64"/>
<path d="M439.317 234.04C439.317 234.04 421.118 223.523 407.723 237.559V311.298L456.022 307.221L439.317 234.04Z" fill="#263238"/>
<path d="M490.8 228.551C490.8 228.551 464.305 231.798 460.403 237.573L467.798 275.93L474.052 308.417L521.07 297.547L490.8 228.551Z" fill="#263238"/>
<path d="M467.164 274.163C467.164 274.163 467.164 273.987 467.164 273.647C467.171 273.161 467.204 272.676 467.262 272.193C467.473 270.416 467.947 268.677 468.671 267.03C469.74 264.562 471.278 262.308 473.207 260.386C475.555 258.001 478.481 256.215 481.721 255.188C484.961 254.161 488.414 253.926 491.771 254.502C494.507 254.932 497.135 255.854 499.518 257.22C501.127 258.123 502.593 259.244 503.871 260.549C504.224 260.895 504.553 261.262 504.857 261.649C505.068 261.907 505.167 262.057 505.139 262.07C503.39 260.356 501.415 258.871 499.265 257.655C496.904 256.396 494.328 255.558 491.659 255.182C488.403 254.661 485.065 254.914 481.933 255.918C478.802 256.922 475.971 258.646 473.685 260.943C471.786 262.787 470.245 264.946 469.136 267.315C468.175 269.506 467.512 271.808 467.164 274.163Z" fill="#455A64"/>
<path d="M465.445 265.372C465.445 265.372 465.445 265.209 465.445 264.897C465.44 264.443 465.469 263.989 465.53 263.538C465.76 261.839 466.235 260.179 466.938 258.606C467.958 256.258 469.425 254.115 471.263 252.288C473.49 250.001 476.272 248.286 479.358 247.297C482.444 246.308 485.738 246.076 488.94 246.622C491.545 247.026 494.048 247.897 496.321 249.19C497.849 250.052 499.243 251.118 500.462 252.356C500.793 252.687 501.103 253.036 501.392 253.402C501.589 253.66 501.688 253.796 501.659 253.81C499.98 252.182 498.085 250.775 496.025 249.625C493.782 248.426 491.335 247.625 488.799 247.26C485.708 246.763 482.538 246.998 479.561 247.945C476.585 248.892 473.892 250.522 471.713 252.695C469.908 254.45 468.443 256.502 467.389 258.755C466.449 260.871 465.796 263.095 465.445 265.372Z" fill="#455A64"/>
<path d="M472.883 303.077C472.901 302.701 472.958 302.328 473.052 301.963C473.327 300.907 473.719 299.882 474.221 298.906C476.123 295.299 478.896 292.186 482.306 289.83C484.655 288.154 487.285 286.881 490.081 286.066C493.308 285.119 496.667 284.661 500.04 284.707C503.798 284.744 507.519 285.43 511.026 286.732C512.893 287.458 514.613 288.492 516.111 289.789C516.894 290.43 517.637 291.115 518.337 291.841C519.089 292.59 519.695 293.465 520.126 294.422L519.435 294.667C518.492 292.547 517.477 290.292 516.463 287.995L497.997 246.472L492.49 233.836C491.87 232.382 491.377 231.241 491.081 230.398C490.926 230.032 490.813 229.733 490.715 229.488C490.616 229.243 490.602 229.176 490.616 229.176L490.785 229.461L491.208 230.33C491.602 231.159 492.138 232.301 492.8 233.727L498.532 246.268C503.336 256.935 509.913 271.582 517.182 287.764C518.21 290.047 519.21 292.302 520.168 294.436L519.492 294.68C519.09 293.82 518.538 293.034 517.858 292.357C517.185 291.646 516.465 290.979 515.703 290.359C514.269 289.099 512.614 288.096 510.815 287.397C507.389 286.118 503.755 285.432 500.082 285.373C496.778 285.297 493.481 285.71 490.306 286.596C487.562 287.381 484.972 288.602 482.644 290.21C479.262 292.499 476.475 295.513 474.502 299.015C473.794 300.301 473.251 301.665 472.883 303.077Z" fill="#455A64"/>
<path d="M433.077 236.92L412.075 238.972L410.864 218.795C413.448 216.882 416.519 215.676 419.753 215.303C422.988 214.93 426.267 215.404 429.246 216.675L433.077 236.92Z" fill="#263238"/>
<path d="M461.67 235.372L432.288 240.671L429.992 228.823C440.922 231.078 450.796 229.597 459.374 223.523L461.67 235.372Z" fill="#263238"/>
<path d="M433.891 327.881C447.305 326.505 457.361 317.967 456.351 308.812C455.342 299.656 443.65 293.349 430.236 294.725C416.823 296.101 406.767 304.638 407.776 313.794C408.786 322.95 420.478 329.257 433.891 327.881Z" fill="#263238"/>
<path d="M453.149 307.357C454.051 315.51 445.078 323.119 433.12 324.341C421.161 325.564 410.738 319.953 409.836 311.787C408.935 303.621 417.907 296.025 429.866 294.803C441.824 293.58 452.248 299.191 453.149 307.357Z" fill="#455A64"/>
<path d="M521.943 300.224C523.704 309.26 514.393 318.554 501.138 320.959C487.884 323.364 475.883 317.113 474.122 308.064C472.362 299.015 481.475 290.618 494.729 288.199C507.984 285.781 520.21 291.189 521.943 300.224Z" fill="#263238"/>
<path d="M518.675 298.974C520.252 307.031 511.942 315.279 500.124 317.453C488.306 319.627 477.446 314.817 475.883 306.746C474.319 298.675 482.602 290.441 494.419 288.267C506.237 286.093 517.097 290.917 518.675 298.974Z" fill="#455A64"/>
<path d="M524.675 259.53C524.436 258.742 512.576 238.931 510.463 236.431C508.35 233.931 502.814 232.504 502.814 232.504C502.814 232.504 484.024 219.732 478.939 220.819C473.854 221.906 456.093 237.002 456.177 240.63C456.262 244.258 460.924 244.556 460.924 244.556L456.557 250.548C456.186 251.112 455.935 251.741 455.82 252.399C455.705 253.057 455.727 253.731 455.886 254.38C456.045 255.03 456.337 255.642 456.745 256.181C457.153 256.72 457.669 257.175 458.262 257.519C458.733 257.798 459.269 257.962 459.822 257.995C460.374 258.028 460.927 257.93 461.431 257.709C461.431 257.709 459.868 263.973 466.629 263.144C473.39 262.315 483.151 255.44 483.151 255.44L486.87 254.91C486.87 254.91 499.983 253.171 499.913 254.176C499.842 255.182 490.954 257.356 486.264 258.579C484.779 258.973 483.425 259.731 482.334 260.78L475.474 266.758C474.82 267.412 474.393 268.246 474.254 269.145C474.115 270.044 474.271 270.963 474.7 271.772C475.362 272.845 476.672 273.552 479.235 272.519C483.17 270.868 486.969 268.934 490.602 266.731C490.602 266.731 506.787 264.367 506.857 265.033C506.927 265.698 513.491 279.653 513.491 279.653C513.491 279.653 529.084 273.104 524.675 259.53Z" fill="#FFBF9D"/>
<path d="M500.279 244.503C499.731 244.636 499.168 244.7 498.603 244.693L494.025 244.951L487.236 245.25C484.492 245.291 481.767 245.693 479.137 246.445C476.576 247.396 474.174 248.705 472.009 250.331L466.544 254.217L462.783 256.785C462.348 257.124 461.876 257.416 461.375 257.655C461.751 257.251 462.172 256.886 462.628 256.568L466.22 253.851L471.601 249.842C473.802 248.131 476.263 246.756 478.897 245.766C481.59 244.991 484.384 244.592 487.194 244.584L493.997 244.435H498.575C499.144 244.387 499.716 244.41 500.279 244.503Z" fill="#FF9A6C"/>
<path d="M495.462 233.238C494.948 233.387 494.419 233.478 493.884 233.51C492.856 233.646 491.377 233.809 489.532 233.958C487.687 234.108 485.475 234.135 483.052 234.189L479.235 234.271H477.221H476.193C475.872 234.302 475.556 234.365 475.249 234.461C472.856 235.453 470.614 236.756 468.587 238.334C466.657 239.692 464.995 241.051 463.642 242.301C462.29 243.551 461.234 244.516 460.544 245.236C459.853 245.956 459.487 246.391 459.431 246.35C459.676 245.886 459.979 245.453 460.332 245.059C461.251 243.96 462.238 242.916 463.29 241.934C464.837 240.486 466.469 239.125 468.178 237.858C470.243 236.179 472.555 234.806 475.038 233.782C475.4 233.674 475.773 233.601 476.15 233.564H479.207H483.038C485.489 233.564 487.658 233.564 489.504 233.483L493.856 233.266C494.388 233.195 494.927 233.186 495.462 233.238Z" fill="#FF9A6C"/>
<path d="M407.708 274.082C407.708 274.082 407.709 273.906 407.779 273.58C407.869 273.119 407.992 272.665 408.145 272.221C408.704 270.508 409.51 268.88 410.54 267.384C412.067 265.155 414.011 263.219 416.273 261.677C419.032 259.738 422.249 258.492 425.632 258.051C429.016 257.609 432.46 257.987 435.654 259.15C438.269 260.067 440.682 261.45 442.767 263.226C444.173 264.416 445.4 265.788 446.416 267.302C446.691 267.709 446.94 268.131 447.162 268.566C447.317 268.851 447.388 269.014 447.359 269.028C445.972 267.014 444.314 265.187 442.429 263.593C440.339 261.929 437.953 260.644 435.387 259.802C432.289 258.704 428.959 258.355 425.689 258.783C422.419 259.212 419.307 260.406 416.625 262.261C414.424 263.732 412.515 265.573 410.99 267.696C409.609 269.676 408.505 271.823 407.708 274.082Z" fill="#455A64"/>
<path d="M407.708 265.101C407.708 265.101 407.708 264.924 407.708 264.612C407.797 264.152 407.914 263.698 408.061 263.253C408.589 261.62 409.357 260.069 410.342 258.647C411.786 256.519 413.636 254.674 415.794 253.212C418.421 251.36 421.485 250.17 424.709 249.747C427.933 249.325 431.216 249.685 434.26 250.793C436.743 251.656 439.036 252.961 441.021 254.639C442.358 255.756 443.524 257.051 444.486 258.484C444.751 258.87 444.986 259.274 445.19 259.693C445.282 259.826 445.349 259.973 445.387 260.128C444.046 258.243 442.465 256.526 440.683 255.019C438.707 253.442 436.456 252.218 434.034 251.405C431.077 250.403 427.919 250.078 424.808 250.454C421.708 250.885 418.756 252.011 416.188 253.742C414.072 255.144 412.235 256.902 410.765 258.932C409.473 260.852 408.446 262.925 407.708 265.101Z" fill="#455A64"/>
<path d="M430.894 224.909C427.907 222.97 424.31 222.104 420.729 222.461C417.149 222.819 413.812 224.378 411.301 226.866L411.47 229.882C413.987 227.291 417.376 225.644 421.034 225.235C424.733 224.755 428.482 225.67 431.499 227.79L430.894 224.909Z" fill="#455A64"/>
<path d="M438.753 233.17C438.683 233.293 437.049 232.301 434.105 231.431C430.262 230.354 426.23 230.049 422.259 230.534C418.269 230.925 414.458 232.332 411.216 234.611C409.955 235.642 408.799 236.789 407.765 238.035C407.918 237.623 408.132 237.234 408.399 236.88C408.677 236.44 409.002 236.03 409.371 235.657C409.582 235.426 409.793 235.181 410.047 234.937L410.892 234.23C414.144 231.777 418.052 230.269 422.161 229.882C426.23 229.372 430.367 229.757 434.26 231.01C434.934 231.221 435.593 231.475 436.232 231.771C436.722 231.971 437.194 232.212 437.641 232.491C438.043 232.666 438.418 232.894 438.753 233.17Z" fill="#455A64"/>
<path d="M407.765 303.512C407.939 303.191 408.137 302.882 408.357 302.588C408.978 301.723 409.651 300.893 410.371 300.102C413.078 297.182 416.339 294.789 419.977 293.05C425.481 290.415 431.689 289.466 437.767 290.332C441.383 290.883 444.846 292.131 447.951 294.001C448.776 294.494 449.567 295.038 450.318 295.632C451.063 296.251 451.756 296.928 452.388 297.656C453.039 298.392 453.632 299.173 454.163 299.993C454.755 300.834 455.167 301.781 455.374 302.779L454.67 302.901C454.121 300.496 453.529 297.955 452.952 295.387C449.134 278.471 445.683 263.158 443.162 252.016C441.951 246.5 440.979 242.016 440.275 238.85C439.965 237.342 439.711 236.132 439.528 235.263C439.458 234.882 439.401 234.584 439.359 234.325C439.34 234.217 439.34 234.107 439.359 233.999C439.414 234.097 439.452 234.202 439.472 234.312C439.542 234.556 439.613 234.869 439.725 235.236C439.937 236.105 440.232 237.287 440.599 238.796C441.345 241.948 442.416 246.418 443.711 251.907C446.275 263.035 449.811 278.335 453.698 295.224L455.417 302.751L454.698 302.874C454.494 301.978 454.121 301.126 453.6 300.36C453.088 299.567 452.513 298.813 451.881 298.104C451.273 297.403 450.609 296.749 449.895 296.148C449.178 295.572 448.42 295.046 447.627 294.572C444.626 292.74 441.272 291.51 437.767 290.957C431.815 290.068 425.724 290.93 420.287 293.43C416.675 295.105 413.413 297.408 410.667 300.224C409.709 301.23 409.019 302.045 408.568 302.615C408.332 302.939 408.063 303.24 407.765 303.512Z" fill="#455A64"/>
<g opacity="0.3">
<path d="M443.219 296.447L414.963 320.075C417.817 322.356 421.306 323.774 424.992 324.151L448.937 299.816C448.937 299.816 445.599 296.474 443.219 296.447Z" fill="white"/>
</g>
<path d="M453.05 311.882C453.016 312.058 452.954 312.227 452.867 312.385C452.662 312.851 452.426 313.305 452.163 313.744C451.218 315.405 450.022 316.921 448.613 318.241C446.517 320.201 444.075 321.784 441.402 322.915C438.132 324.327 434.602 325.089 431.02 325.157C427.436 325.185 423.879 324.553 420.541 323.295C417.81 322.266 415.345 320.676 413.315 318.635C411.984 317.229 410.959 315.579 410.301 313.784C410.089 313.146 410.005 312.629 409.92 312.29C409.836 311.95 409.808 311.773 409.836 311.76C410.126 312.386 410.37 313.031 410.568 313.689C411.306 315.398 412.366 316.96 413.695 318.295C415.698 320.218 418.098 321.713 420.738 322.684C423.998 323.882 427.462 324.481 430.95 324.45C434.437 324.379 437.877 323.655 441.078 322.317C443.7 321.248 446.107 319.745 448.191 317.874C449.599 316.612 450.83 315.177 451.853 313.608C452.215 313.009 452.615 312.433 453.05 311.882Z" fill="white"/>
<g opacity="0.3">
<path d="M505.688 288.308L482.123 314.952C485.271 316.838 488.927 317.783 492.631 317.67L512.505 290.903C512.505 290.903 507.857 288.294 505.688 288.308Z" fill="white"/>
</g>
<path d="M518.689 301.827C518.678 302.008 518.64 302.187 518.576 302.357C518.439 302.852 518.27 303.337 518.069 303.811C517.39 305.577 516.44 307.235 515.252 308.73C513.459 310.957 511.264 312.853 508.772 314.328C505.726 316.144 502.337 317.359 498.8 317.901C495.257 318.413 491.646 318.256 488.165 317.439C485.312 316.785 482.643 315.532 480.348 313.77C478.821 312.563 477.57 311.064 476.671 309.368C476.449 308.902 476.252 308.426 476.08 307.941C475.953 307.615 475.897 307.439 475.925 307.425C476.301 308.009 476.635 308.618 476.925 309.246C477.904 310.815 479.174 312.196 480.672 313.322C482.941 314.97 485.548 316.133 488.32 316.732C491.719 317.489 495.235 317.627 498.687 317.14C502.131 316.61 505.436 315.442 508.42 313.703C510.864 312.288 513.037 310.477 514.843 308.349C516.062 306.912 517.08 305.327 517.872 303.634C518.109 303.018 518.382 302.414 518.689 301.827Z" fill="white"/>
<path d="M582.511 295.36C582.274 295.279 582.051 295.165 581.849 295.02L580.046 293.933L573.482 289.857C567.96 286.351 560.368 281.46 552.001 276.025C543.635 270.59 536.085 265.617 530.634 262.003L524.211 257.696L522.478 256.486C522.267 256.361 522.073 256.21 521.901 256.038C522.138 256.118 522.361 256.233 522.563 256.378L524.366 257.464L530.929 261.541C536.451 265.046 544.043 269.938 552.41 275.373C560.777 280.808 568.341 285.767 573.778 289.395L580.215 293.702L581.933 294.911C582.145 295.037 582.339 295.187 582.511 295.36Z" fill="#FF9A6C"/>
</svg>
