<svg width="58" height="59" viewBox="0 0 58 59" fill="none" xmlns="http://www.w3.org/2000/svg">
<path fill-rule="evenodd" clip-rule="evenodd" d="M54.8174 29.3603C54.8174 43.799 43.1125 55.504 28.6737 55.504C14.235 55.504 2.53004 43.799 2.53004 29.3603C2.53004 14.9215 14.235 3.21656 28.6737 3.21656C43.1125 3.21656 54.8174 14.9215 54.8174 29.3603ZM57.3475 29.3603C57.3475 45.1963 44.5098 58.034 28.6737 58.034C12.8377 58.034 0 45.1963 0 29.3603C0 13.5242 12.8377 0.686523 28.6737 0.686523C44.5098 0.686523 57.3475 13.5242 57.3475 29.3603ZM28.2693 39.397H30.9793V18.0688H30.7596L22.6883 21.1743V23.6499L28.2693 21.5259V39.397Z" fill="#97A483"/>
</svg>
