<svg width="58" height="58" viewBox="0 0 58 58" fill="none" xmlns="http://www.w3.org/2000/svg">
<path fill-rule="evenodd" clip-rule="evenodd" d="M54.8174 28.6737C54.8174 43.1125 43.1125 54.8174 28.6737 54.8174C14.235 54.8174 2.53004 43.1125 2.53004 28.6737C2.53004 14.235 14.235 2.53004 28.6737 2.53004C43.1125 2.53004 54.8174 14.235 54.8174 28.6737ZM57.3475 28.6737C57.3475 44.5098 44.5098 57.3475 28.6737 57.3475C12.8377 57.3475 0 44.5098 0 28.6737C0 12.8377 12.8377 0 28.6737 0C44.5098 0 57.3475 12.8377 57.3475 28.6737ZM27.2879 26.7424H25.3543V28.9397H27.2879C27.9617 28.9397 28.5769 29.0178 29.1336 29.1741C29.7 29.3303 30.1834 29.5696 30.5838 29.8918C30.9744 30.2141 31.2771 30.6194 31.492 31.1077C31.7166 31.5862 31.8289 32.1575 31.8289 32.8215C31.8289 33.4954 31.7312 34.0813 31.5359 34.5793C31.3504 35.0676 31.0818 35.4778 30.7303 35.8098C30.3787 36.1418 29.9539 36.3909 29.4558 36.5569C28.9578 36.7131 28.4012 36.7913 27.7859 36.7913C27.1707 36.7913 26.6092 36.7034 26.1013 36.5276C25.6033 36.3518 25.1785 36.1028 24.8269 35.7805C24.4754 35.4583 24.2019 35.0676 24.0066 34.6086C23.8211 34.1497 23.7283 33.6418 23.7283 33.0852H21.0183C21.0183 34.0227 21.1941 34.8577 21.5457 35.5901C21.907 36.3225 22.3904 36.9426 22.9959 37.4504C23.6013 37.9583 24.3142 38.344 25.1346 38.6077C25.9646 38.8713 26.8484 39.0032 27.7859 39.0032C28.743 39.0032 29.6316 38.8665 30.4519 38.593C31.282 38.3098 31.9998 37.8997 32.6053 37.3625C33.2107 36.8352 33.6844 36.1858 34.0262 35.4143C34.368 34.6428 34.5388 33.759 34.5388 32.7629C34.5388 32.2747 34.4803 31.7815 34.3631 31.2834C34.2556 30.7854 34.0652 30.3118 33.7918 29.8625C33.5086 29.4133 33.1326 29.0081 32.6638 28.6467C32.2049 28.2854 31.6287 27.9924 30.9353 27.7678C31.5115 27.5237 32.0047 27.2209 32.4148 26.8596C32.8347 26.4885 33.1765 26.093 33.4402 25.6731C33.7039 25.2629 33.8992 24.8381 34.0262 24.3987C34.1531 23.9592 34.2166 23.5344 34.2166 23.1243C34.2166 22.1379 34.0603 21.2688 33.7478 20.5168C33.4353 19.7649 32.9959 19.135 32.4295 18.6272C31.8631 18.1194 31.1844 17.7385 30.3933 17.4846C29.6023 17.2209 28.7283 17.0891 27.7713 17.0891C26.7849 17.0891 25.8865 17.2454 25.076 17.5579C24.2752 17.8606 23.5867 18.2756 23.0105 18.803C22.4344 19.3401 21.9851 19.97 21.6629 20.6926C21.3504 21.4055 21.1941 22.1672 21.1941 22.9778H23.9187C23.9187 22.4211 24.0115 21.9182 24.1971 21.469C24.3826 21.0198 24.6463 20.634 24.9881 20.3118C25.3201 19.9895 25.7205 19.7454 26.1892 19.5793C26.6678 19.4036 27.1951 19.3157 27.7713 19.3157C28.367 19.3157 28.8943 19.3938 29.3533 19.55C29.8221 19.6965 30.2127 19.9211 30.5252 20.2239C30.8474 20.5364 31.0916 20.9319 31.2576 21.4104C31.4236 21.8792 31.5066 22.4309 31.5066 23.0657C31.5066 23.6028 31.4138 24.0959 31.2283 24.5452C31.0428 24.9944 30.7742 25.3801 30.4226 25.7024C30.0613 26.0247 29.617 26.2786 29.0896 26.4641C28.5721 26.6497 27.9715 26.7424 27.2879 26.7424Z" fill="#97A483"/>
</svg>
