<svg width="152" height="102" viewBox="0 0 152 102" fill="none" xmlns="http://www.w3.org/2000/svg">
<path d="M2 96.5655V87.2657H5.42642L21.4304 60.2926M21.4304 60.2926C19.0053 69.0467 16.1362 78.1889 16.1362 87.2657L46.0732 100H103.441L134.928 87.2657C134.928 78.3313 132.211 69.1578 129.462 60.2926M21.4304 60.2926C30.2092 28.603 51.4429 2 74.2145 2C96.8195 2 119.836 29.2576 129.462 60.2926M150 96.5655V87.2657H146.574L129.462 60.2926M63.4376 31.485H73.6036C82.2822 31.485 86.7332 35.3576 89.0651 44.595L98.3304 77.3398C99.4766 81.88 96.3874 84.7532 92.1218 84.7532H58.5142C54.3257 84.7532 51.2497 82.0311 52.258 77.5389L63.4376 31.485Z" stroke="#345E40" stroke-width="3" stroke-linecap="round" stroke-linejoin="round"/>
</svg>
