<svg width="79" height="117" viewBox="0 0 79 117" fill="none" xmlns="http://www.w3.org/2000/svg">
<path d="M69.9083 76.8389C69.9387 76.6614 69.971 76.4827 69.9999 76.3019C72.0683 63.3842 68.9653 45.7092 68.9653 45.7092C68.9653 45.7092 59.9731 57.8961 58.6498 56.0333C63.0581 44.9046 57.5967 32.4638 56.5766 26.3767C56.5766 26.3767 51.2616 46.07 47.8412 46.304C47.8412 22.5585 44.8597 19.7236 27.2556 1.63025C32.4847 32.4208 7.72735 44.3842 7.72735 72.1243C7.72735 74.3567 7.96994 76.5335 8.43063 78.6306M69.9083 76.8389C69.731 77.9689 69.4909 79.0786 69.1918 80.1645M69.9083 76.8389C69.8148 77.384 69.7145 77.9132 69.6067 78.4245M69.1918 80.1645C69.0655 80.6323 68.9313 81.0799 68.7886 81.5052M69.1918 80.1645C69.0675 80.6156 68.933 81.0626 68.7886 81.5052M69.1918 80.1645C69.3409 79.6117 69.479 79.0307 69.6067 78.4245M68.7886 81.5052C67.1597 86.4965 64.2659 90.9319 60.4776 94.4475M17.7054 94.6142L5.91831 98.5733C2.73587 99.6422 1.17703 102.698 2.43652 105.399L5.14151 111.2C6.40101 113.901 10.0019 115.224 13.1843 114.155L72.7674 94.142C75.9498 93.073 77.5087 90.017 76.2492 87.3161L73.5442 81.5155C72.8245 79.9722 71.3404 78.8788 69.6067 78.4245M17.7054 94.6142C23.2888 99.7144 30.7739 102.834 39.0009 102.834C47.3173 102.834 54.8755 99.6464 60.4776 94.4475M17.7054 94.6142C13.11 90.4165 9.80281 84.8769 8.43063 78.6306M60.4776 94.4475L72.7674 98.5754C75.9498 99.6443 77.5087 102.7 76.2492 105.401L73.5442 111.202C72.2847 113.903 68.6838 115.226 65.5014 114.157L5.91831 94.1441C2.73587 93.0752 1.17703 90.0192 2.43652 87.3183L5.14151 81.5176C5.76964 80.1707 6.98013 79.1664 8.43063 78.6306" stroke="#345E40" stroke-width="3" stroke-linecap="round" stroke-linejoin="round"/>
</svg>
