<svg width="92" height="120" viewBox="0 0 92 120" fill="none" xmlns="http://www.w3.org/2000/svg">
<path d="M10.5117 77.7152H7.81455C4.60326 77.7152 2 75.1523 2 71.9907L2 38.3734C2 35.2119 4.60327 32.649 7.81455 32.649H10.5117M81.2006 32.9058H83.8978C87.109 32.9058 89.7123 35.4687 89.7123 38.6302V72.2475C89.7123 75.409 87.109 77.972 83.8978 77.972H81.2006M81.2006 77.972V34.6567V30.6395C81.2006 28.4103 79.9063 26.4787 78.0172 25.5333M81.2006 77.972V89.6705C81.2006 91.7135 80.1135 93.5065 78.4778 94.5195M13.6926 25.5345C11.8049 26.4804 10.5118 28.4112 10.5118 30.6395V34.6585V77.9702V89.6705C10.5118 91.7123 11.5975 93.5044 13.2316 94.5178M13.6926 25.5345C15.0997 30.2991 19.5672 33.7812 24.8608 33.7812H66.8487C72.1428 33.7812 76.6106 30.2985 78.0172 25.5333M13.6926 25.5345C13.3925 24.5183 13.2316 23.4438 13.2316 22.3323V7.69688C13.2316 4.53534 15.8349 1.97241 19.0462 1.97241H72.6633C75.8746 1.97241 78.4778 4.53534 78.4778 7.69688V22.3323C78.4778 23.4434 78.3171 24.5175 78.0172 25.5333M78.4778 94.5195V94.0925C78.4778 90.9309 75.8746 88.368 72.6633 88.368H19.0462C15.8349 88.368 13.2316 90.9309 13.2316 94.0925V94.5178M78.4778 94.5195V112.619C78.4778 115.78 75.8746 118.343 72.6633 118.343H19.0462C15.8349 118.343 13.2316 115.78 13.2316 112.619V94.5178M27.9838 21.5888V54.4039M62.5815 21.5888V54.4039M56.8242 81.8187V95.1124M34.8829 81.8187V95.1124M27.6062 17.2905C28.4045 19.9937 30.9391 21.9693 33.9424 21.9693H57.7641C60.7676 21.9693 63.3024 19.9934 64.1005 17.2898" stroke="#345E40" stroke-width="3" stroke-linecap="round" stroke-linejoin="round"/>
</svg>
