<svg width="75" height="65" viewBox="0 0 75 65" fill="none" xmlns="http://www.w3.org/2000/svg">
<path d="M0.171353 52.8764V42.3399L26.5899 0.719031H35.6742V15.3033H30.2978L13.6433 41.6601V42.1545H51.1855V52.8764H0.171353ZM30.545 64V49.6629L30.7922 44.9972V0.719031H43.3371V64H30.545ZM66.7276 64.8034C64.6883 64.8034 62.9373 64.0824 61.4748 62.6404C60.0328 61.1779 59.3119 59.427 59.3119 57.3876C59.3119 55.3689 60.0328 53.6386 61.4748 52.1966C62.9373 50.7547 64.6883 50.0337 66.7276 50.0337C68.7051 50.0337 70.4355 50.7547 71.9186 52.1966C73.4018 53.6386 74.1433 55.3689 74.1433 57.3876C74.1433 58.7472 73.7932 59.9934 73.0928 61.1264C72.413 62.2388 71.5169 63.1348 70.4046 63.8146C69.2922 64.4738 68.0666 64.8034 66.7276 64.8034Z" fill="#97A483"/>
</svg>
