<svg width="56" height="65" viewBox="0 0 56 65" fill="none" xmlns="http://www.w3.org/2000/svg">
<path d="M28.6601 0.719031V64H15.2809V13.4185H14.9101L0.418544 22.5028V10.6376L16.0843 0.719031H28.6601ZM48.1187 64.8034C46.0794 64.8034 44.3285 64.0824 42.8659 62.6404C41.424 61.1779 40.703 59.427 40.703 57.3876C40.703 55.3689 41.424 53.6386 42.8659 52.1966C44.3285 50.7547 46.0794 50.0337 48.1187 50.0337C50.0963 50.0337 51.8266 50.7547 53.3098 52.1966C54.7929 53.6386 55.5345 55.3689 55.5345 57.3876C55.5345 58.7472 55.1843 59.9934 54.4839 61.1264C53.8041 62.2388 52.9081 63.1348 51.7957 63.8146C50.6833 64.4738 49.4577 64.8034 48.1187 64.8034Z" fill="#97A483"/>
</svg>
