<svg width="59" height="65" viewBox="0 0 59 65" fill="none" xmlns="http://www.w3.org/2000/svg">
<path d="M4.63203 64L30.8652 12.0898V11.6572H0.306183V0.719031H44.7079V11.8117L18.4438 64H4.63203ZM50.8182 64.8034C48.7788 64.8034 47.0279 64.0824 45.5654 62.6404C44.1234 61.1779 43.4024 59.427 43.4024 57.3876C43.4024 55.3689 44.1234 53.6386 45.5654 52.1966C47.0279 50.7547 48.7788 50.0337 50.8182 50.0337C52.7957 50.0337 54.526 50.7547 56.0092 52.1966C57.4923 53.6386 58.2339 55.3689 58.2339 57.3876C58.2339 58.7472 57.8837 59.9934 57.1834 61.1264C56.5036 62.2388 55.6075 63.1348 54.4951 63.8146C53.3828 64.4738 52.1571 64.8034 50.8182 64.8034Z" fill="#97A483"/>
</svg>
