<svg width="626" height="580" viewBox="0 0 626 580" fill="none" xmlns="http://www.w3.org/2000/svg">
<path d="M600.247 563.494C600.247 563.693 469.844 563.851 309.02 563.851C148.196 563.851 17.7656 563.693 17.7656 563.494C17.7656 563.296 148.143 563.11 309.007 563.11C469.87 563.11 600.247 563.296 600.247 563.494Z" fill="#263238"/>
<path d="M253.927 441.208C239.655 405.482 228.965 380.58 228.965 380.58L98.5346 400.428C98.5346 400.428 75.1048 460.592 77.1266 487.902C79.1485 515.212 88.7028 563.322 88.7028 563.322H246.514C246.514 563.322 268.186 476.986 253.927 441.208Z" fill="#263238"/>
<path d="M206.857 142.809C207.874 132.488 209.42 122.101 213.2 112.442C216.979 102.783 223.15 93.8119 231.885 88.2282L234.119 90.3056C234.892 88.0709 236.258 86.0893 238.071 84.5734C239.884 83.0576 242.075 82.0648 244.409 81.7016C246.743 81.3384 249.131 81.6186 251.318 82.512C253.505 83.4054 255.408 84.8784 256.822 86.7727C259.343 86.0928 262.012 86.1985 264.472 87.0759C266.932 87.9532 269.066 89.5604 270.591 91.6833C272.115 93.8062 272.957 96.3439 273.005 98.9581C273.052 101.572 272.302 104.139 270.856 106.316C273.22 106.61 275.439 107.614 277.22 109.197C279.002 110.78 280.262 112.866 280.835 115.181C281.407 117.496 281.265 119.93 280.427 122.163C279.59 124.395 278.095 126.32 276.142 127.685C278.719 129.949 280.561 132.933 281.431 136.254C282.3 139.575 282.157 143.081 281.02 146.32C279.883 149.558 277.804 152.383 275.051 154.429C272.297 156.474 268.995 157.649 265.57 157.8C266.352 160.8 266.082 163.979 264.806 166.804C263.53 169.629 261.324 171.931 258.558 173.324C255.791 174.718 252.631 175.119 249.605 174.461C246.578 173.803 243.869 172.125 241.929 169.708C242.404 175.888 237.475 181.736 231.463 183.205C225.45 184.673 218.895 182.239 214.508 177.912C210.244 173.355 207.536 167.558 206.777 161.359C206.036 155.196 206.063 148.965 206.857 142.809Z" fill="#263238"/>
<path d="M234.608 97.0669C240.607 99.0119 241.836 103.881 243.078 107.93C245.721 116.65 242.748 129.564 237.872 137.278C232.995 144.992 227.643 148.961 218.631 150.284C218.323 136.435 218.028 122.586 217.746 108.737L234.608 97.0669Z" fill="#97A483"/>
<path d="M237.99 120.923C239.958 118.186 240.904 114.845 240.662 111.481C240.421 108.117 239.007 104.945 236.669 102.518C239.312 99.2105 238.347 94.1163 235.678 90.8481C233.008 87.5799 229.07 85.701 225.225 83.928C223.124 74.2689 212.288 67.4678 202.681 69.7966C197.672 62.4266 187.021 61.2755 178.471 63.763C176.436 64.5074 174.304 64.9531 172.141 65.0862C170.552 64.965 168.972 64.744 167.41 64.4246C158.715 63.2602 150.099 69.3864 146.703 77.4842C146.255 78.8108 145.637 80.0739 144.866 81.2419C143.582 82.5626 142.14 83.7182 140.571 84.6822C139.004 85.912 137.72 87.466 136.808 89.2381C135.896 91.0101 135.376 92.9584 135.285 94.9499C135.14 98.3239 136.21 101.91 134.796 104.979C134.083 106.528 132.787 107.758 132.232 109.359C130.633 114.003 135.774 118.754 134.875 123.57C134.677 124.549 134.228 125.462 133.964 126.428C133.409 128.423 133.592 130.551 134.479 132.422C135.166 133.851 136.276 135.147 136.369 136.735C136.284 137.929 136.048 139.107 135.668 140.242C135.074 143.126 141.271 154.214 143.756 155.776L217.93 156.437C220.731 155.81 223.267 154.327 225.19 152.194C227.112 150.061 228.325 147.382 228.661 144.529C228.632 143.574 228.87 142.63 229.348 141.803C229.927 141.225 230.62 140.775 231.383 140.48C236.154 137.913 236.669 131.35 236.233 125.925C236.094 125.177 236.094 124.41 236.233 123.662C236.63 122.641 237.228 121.71 237.99 120.923Z" fill="#263238"/>
<path d="M216.741 121.029C216.966 107.877 208.733 92.7799 195.69 86.3494C187.47 82.3005 181.061 82.2741 176.727 81.7713C170.661 81.1902 164.563 82.4733 159.244 85.4496C155.147 86.4155 140.161 100.15 139.421 115.062C138.549 131.615 138.1 151.872 140.241 164.191C144.443 188.987 163.485 191.977 163.485 191.977L161.715 233.18L198.267 263.15L209.447 213.796L216.741 121.029Z" fill="#FFBF9D"/>
<path d="M163.459 191.924C175.175 191.968 186.674 188.762 196.681 182.662C196.681 182.662 188.025 200.26 163.182 198.196L163.459 191.924Z" fill="#FF9A6C"/>
<path d="M213.001 144.595C213.001 142.756 215.076 138.363 216.966 138.058C221.829 137.251 230.603 137.542 230.815 149.967C231.106 166.903 214.521 163.119 214.045 163.198C211.283 163.728 213.054 150.986 213.001 144.595Z" fill="#FFBF9D"/>
<path d="M218.525 156.9C218.604 156.9 218.829 157.099 219.331 157.324C220.039 157.607 220.83 157.607 221.538 157.324C223.309 156.636 224.762 153.778 224.789 150.708C224.805 149.256 224.498 147.818 223.89 146.5C223.725 145.975 223.433 145.497 223.042 145.11C222.65 144.723 222.17 144.437 221.644 144.277C221.303 144.193 220.944 144.23 220.628 144.382C220.312 144.534 220.059 144.792 219.913 145.111C219.701 145.587 219.807 145.931 219.728 145.958C219.648 145.984 219.358 145.68 219.476 144.978C219.564 144.558 219.792 144.179 220.124 143.907C220.586 143.549 221.168 143.383 221.749 143.444C222.454 143.576 223.111 143.89 223.658 144.354C224.205 144.818 224.622 145.416 224.868 146.09C225.612 147.542 225.989 149.155 225.965 150.787C225.965 154.201 224.234 157.403 221.802 158.17C221.359 158.299 220.894 158.33 220.437 158.262C219.981 158.193 219.545 158.027 219.159 157.773C218.565 157.324 218.472 156.9 218.525 156.9Z" fill="#FF9A6C"/>
<path d="M135.761 112.535C136.527 106.391 138.552 100.472 141.708 95.1484C143.629 91.3208 146.215 87.8664 149.346 84.9468C152.127 82.7074 155.199 80.8557 158.477 79.4425C166.948 75.473 176.396 72.0063 185.541 74.0704C190.444 75.1686 194.871 77.7885 199.166 80.4084C202.53 82.2954 205.668 84.5593 208.522 87.1565C210.901 89.5741 212.95 92.2971 214.614 95.2542C218.851 102.168 221.429 109.972 222.146 118.052C222.701 126.11 228.753 133.242 224.075 139.792C223.705 140.295 215.301 142.041 214.719 142.266C213.398 142.809 211.852 141.327 211.865 139.858C211.949 139.126 212.179 138.418 212.542 137.776C212.905 137.135 213.394 136.574 213.979 136.127C211.891 136.06 210.451 133.718 210.583 131.628C210.914 129.54 211.83 127.59 213.226 126.004C213.406 125.802 213.53 125.556 213.583 125.29C213.675 124.575 212.869 124.139 212.261 123.768C211.554 123.281 210.965 122.641 210.54 121.894C210.114 121.147 209.863 120.314 209.804 119.456C209.746 118.599 209.882 117.739 210.202 116.941C210.522 116.144 211.019 115.429 211.654 114.85C210.667 114.572 209.746 114.098 208.946 113.456C208.147 112.814 207.484 112.017 206.998 111.113C206.512 110.21 206.213 109.217 206.118 108.195C206.024 107.173 206.135 106.143 206.447 105.165C206.612 104.882 206.719 104.569 206.762 104.244C206.805 103.919 206.783 103.589 206.698 103.273C206.407 102.717 205.707 102.532 205.112 102.36C202.897 101.626 201.02 100.117 199.825 98.1091C198.631 96.1017 198.2 93.7304 198.611 91.4303C196.273 91.6632 193.914 91.5562 191.607 91.1127C190.454 90.8865 189.363 90.415 188.408 89.7302C187.452 89.0454 186.655 88.1632 186.07 87.1432C185.319 88.5026 184.236 89.6486 182.922 90.4733C181.608 91.2981 180.105 91.7746 178.557 91.8579C177.008 91.9413 175.463 91.6288 174.068 90.9499C172.673 90.2709 171.473 89.2478 170.582 87.9768C166.621 88.3448 162.631 87.7267 158.966 86.1773C158.5 88.0135 157.581 89.7028 156.292 91.0901C155.004 92.4774 153.387 93.518 151.592 94.1163C150.892 94.3412 150.086 94.5662 149.755 95.2145C149.591 95.6348 149.536 96.0903 149.597 96.5377C149.729 98.9061 148.117 99.9117 146.809 101.83C145.5 103.749 143.241 106.752 140.968 106.104C141.219 110.074 139.078 113.051 135.682 115.221L135.761 112.535Z" fill="#263238"/>
<path d="M132.259 109.425C132.465 108.775 132.768 108.159 133.157 107.599C133.514 107.044 134.016 106.382 134.479 105.535C135.01 104.555 135.326 103.472 135.404 102.36C135.486 100.965 135.446 99.566 135.285 98.1784C135.093 96.5057 135.124 94.8149 135.377 93.1504C135.736 91.2558 136.478 89.4547 137.558 87.8578C138.148 86.9765 138.84 86.1682 139.619 85.4496C140.443 84.7064 141.327 84.0336 142.262 83.4384C143.231 82.8347 144.093 82.0746 144.813 81.189C145.483 80.1999 146.012 79.1222 146.385 77.987C148.413 72.9595 152.16 68.818 156.957 66.3035C158.242 65.6151 159.598 65.0693 161.001 64.676C162.452 64.3085 163.944 64.1262 165.441 64.1335C166.205 64.1474 166.968 64.2004 167.727 64.2923C168.481 64.4114 169.221 64.5569 169.974 64.6892C171.464 64.9999 173.003 64.9999 174.493 64.6892C176 64.3849 177.48 63.8159 179.039 63.3661C180.606 62.936 182.206 62.6395 183.823 62.4795C185.469 62.3096 187.127 62.2786 188.778 62.3869C190.46 62.5081 192.125 62.8007 193.747 63.2602C197.109 64.1701 200.102 66.1084 202.31 68.8043L202.945 69.6378L202.667 69.532C207.585 68.5467 212.693 69.4839 216.942 72.1513C221.191 74.8187 224.259 79.0137 225.516 83.875L225.37 83.703C227.42 84.6031 229.411 85.6328 231.33 86.786C233.203 87.905 234.856 89.358 236.206 91.073C237.472 92.7722 238.248 94.7855 238.453 96.8949C238.693 98.9409 238.129 101 236.88 102.637V102.36C239.169 104.693 240.571 107.754 240.845 111.013C241.154 113.93 240.564 116.871 239.153 119.442C238.826 120.029 238.455 120.591 238.043 121.122C237.647 121.638 237.224 122.128 236.894 122.644C236.563 123.142 236.363 123.715 236.312 124.311C236.281 124.898 236.303 125.487 236.378 126.071C236.583 128.208 236.539 130.361 236.246 132.488C236.032 134.215 235.48 135.884 234.621 137.397C233.972 138.516 233.066 139.464 231.978 140.162C231.105 140.744 230.339 140.983 229.916 141.3C229.694 141.454 229.487 141.626 229.295 141.816C229.451 141.592 229.649 141.398 229.876 141.247C230.299 140.903 231.066 140.652 231.912 140.056C232.946 139.341 233.804 138.4 234.422 137.304C235.238 135.802 235.763 134.159 235.969 132.461C236.231 130.349 236.253 128.214 236.035 126.097C235.959 125.496 235.937 124.889 235.969 124.284C236.025 123.638 236.238 123.016 236.59 122.472C236.951 121.936 237.339 121.419 237.753 120.924C238.143 120.395 238.5 119.842 238.823 119.27C240.176 116.757 240.734 113.891 240.422 111.053C240.146 107.887 238.777 104.915 236.55 102.651L236.405 102.518L236.524 102.373C237.692 100.816 238.217 98.8687 237.99 96.9346C237.782 94.9101 237.028 92.9803 235.81 91.3509C234.488 89.6861 232.876 88.2741 231.053 87.1829C229.146 86.0506 227.174 85.0343 225.146 84.1397H225.04V84.0206C223.8 79.2964 220.808 75.2234 216.673 72.632C212.538 70.0406 207.572 69.126 202.786 70.0745H202.628L202.522 69.9422L201.914 69.135C199.771 66.5197 196.865 64.6413 193.602 63.763C192.016 63.332 190.392 63.0616 188.752 62.9559C187.132 62.8498 185.505 62.8764 183.889 63.0353C182.3 63.1972 180.726 63.4893 179.185 63.9086C177.652 64.2923 176.158 64.8612 174.599 65.2317C173.826 65.3995 173.038 65.4882 172.247 65.4964C171.462 65.4853 170.679 65.4056 169.908 65.2582C169.141 65.1391 168.401 64.9803 167.661 64.8745C166.929 64.7782 166.192 64.7208 165.454 64.7025C163.998 64.6974 162.546 64.8752 161.133 65.2317C159.759 65.5897 158.43 66.1001 157.169 66.7534C154.739 67.9877 152.568 69.6765 150.773 71.7284C149.081 73.6299 147.739 75.8159 146.808 78.1855C146.404 79.3449 145.854 80.4477 145.17 81.4669C144.416 82.3696 143.524 83.1467 142.527 83.7692C141.594 84.3537 140.71 85.0131 139.884 85.7407C139.122 86.4409 138.444 87.2267 137.862 88.0827C136.781 89.6773 136.043 91.4797 135.695 93.3753C135.433 95.0164 135.393 96.6854 135.576 98.3372C135.693 99.7417 135.693 101.154 135.576 102.558C135.476 103.692 135.139 104.792 134.585 105.787C134.096 106.633 133.58 107.282 133.263 107.837C132.97 108.255 132.713 108.698 132.497 109.161C132.422 109.253 132.343 109.341 132.259 109.425Z" fill="#455A64"/>
<path d="M194.765 66.1314C194.765 66.1314 194.316 65.88 193.444 65.4831C192.277 64.9315 191.026 64.5782 189.743 64.4378C187.85 64.2266 185.934 64.5235 184.193 65.2978C182.072 66.2646 180.314 67.8819 179.172 69.9157C178.827 70.527 178.553 71.1749 178.352 71.8475C178.239 72.1338 178.192 72.4421 178.215 72.7492C178.238 73.0563 178.33 73.3542 178.484 73.6205L178.907 74.2027L178.22 74.0174C176.461 73.5489 174.588 73.7863 173 74.679C171.735 75.394 170.734 76.4984 170.146 77.8281C169.763 78.7112 169.548 79.658 169.512 80.62C169.512 81.3081 169.512 81.6785 169.512 81.6785C169.512 81.6785 169.512 81.5991 169.432 81.4139C169.377 81.1527 169.346 80.8869 169.34 80.62C169.305 79.6242 169.481 78.6322 169.855 77.7091C170.425 76.2824 171.452 75.086 172.776 74.3085C174.458 73.3185 176.464 73.0377 178.352 73.5279L178.088 73.9116C177.887 73.5864 177.762 73.2197 177.723 72.8392C177.684 72.4588 177.732 72.0744 177.863 71.7151C178.07 71.0048 178.358 70.321 178.722 69.6775C179.923 67.5458 181.776 65.8573 184.008 64.8612C185.826 64.0772 187.823 63.8072 189.783 64.0805C191.096 64.2526 192.364 64.6701 193.523 65.3111C193.842 65.4798 194.147 65.6746 194.435 65.8932C194.673 66.0388 194.778 66.1182 194.765 66.1314Z" fill="#455A64"/>
<path d="M222.344 85.357C222.344 85.357 222.172 85.5952 221.763 85.9656C221.176 86.4716 220.538 86.9151 219.86 87.2888C218.83 87.876 217.684 88.2284 216.503 88.3209C214.994 88.4535 213.489 88.0144 212.288 87.0903L212.658 87.0242L212.169 87.7254C211.997 87.9504 211.799 88.1753 211.601 88.4003C210.439 89.6158 208.995 90.5249 207.398 91.0466C206.102 91.4869 204.734 91.6711 203.368 91.5891C202.462 91.5249 201.571 91.3241 200.725 90.9936C200.409 90.8836 200.11 90.7276 199.839 90.5305C201.001 90.907 202.203 91.1424 203.421 91.2318C204.73 91.2584 206.034 91.0431 207.266 90.5967C208.772 90.0682 210.131 89.1883 211.231 88.0298C211.416 87.8181 211.601 87.6196 211.772 87.3947L212.235 86.7463L212.407 86.5081L212.605 86.6801C213.707 87.5362 215.085 87.9555 216.477 87.8578C217.602 87.7912 218.7 87.4892 219.701 86.9712C221.419 86.1244 222.291 85.2776 222.344 85.357Z" fill="#455A64"/>
<path d="M231.41 100.983C231.427 101.089 231.427 101.196 231.41 101.301C231.333 101.593 231.208 101.87 231.04 102.121C230.4 103.052 229.432 103.704 228.331 103.947C226.706 104.256 225.027 104.091 223.494 103.471C222.635 103.167 221.736 102.862 220.851 102.439C219.842 102.033 219.009 101.283 218.499 100.322C218.458 100.232 218.423 100.139 218.393 100.044L218.79 100.163C217.289 101.43 215.605 102.461 213.794 103.22C212.294 103.84 210.65 104.023 209.05 103.749C207.972 103.577 206.96 103.12 206.117 102.426C205.887 102.243 205.678 102.034 205.496 101.804C205.377 101.645 205.324 101.566 205.337 101.552C205.35 101.539 205.641 101.844 206.236 102.267C207.088 102.864 208.072 103.245 209.103 103.378C210.637 103.596 212.201 103.386 213.623 102.77C215.379 102.01 217.014 100.993 218.472 99.753L218.737 99.5413L218.869 99.872C218.869 99.872 218.869 100.018 218.961 100.097C219.427 100.945 220.168 101.608 221.063 101.976C221.922 102.386 222.833 102.704 223.706 103.008C225.155 103.626 226.747 103.828 228.304 103.59C229.346 103.384 230.281 102.817 230.947 101.989C231.127 101.666 231.282 101.33 231.41 100.983Z" fill="#455A64"/>
<path d="M176.859 135.359C176.822 136.175 177.106 136.972 177.649 137.58C178.193 138.189 178.953 138.56 179.766 138.614C180.162 138.658 180.563 138.622 180.946 138.509C181.328 138.396 181.684 138.208 181.993 137.955C182.302 137.703 182.557 137.391 182.744 137.038C182.931 136.686 183.047 136.299 183.083 135.902C183.116 135.086 182.831 134.289 182.289 133.679C181.746 133.07 180.989 132.695 180.175 132.634C179.778 132.59 179.376 132.626 178.993 132.74C178.61 132.854 178.253 133.043 177.944 133.297C177.635 133.551 177.38 133.864 177.193 134.219C177.007 134.573 176.893 134.96 176.859 135.359Z" fill="#263238"/>
<path d="M146.465 134.526C146.428 135.341 146.712 136.138 147.255 136.747C147.799 137.355 148.558 137.726 149.372 137.781C149.768 137.826 150.17 137.792 150.553 137.679C150.937 137.567 151.293 137.379 151.603 137.126C151.912 136.873 152.167 136.561 152.354 136.207C152.54 135.854 152.654 135.466 152.689 135.068C152.725 134.253 152.441 133.456 151.898 132.847C151.354 132.239 150.595 131.868 149.781 131.813C149.384 131.766 148.982 131.799 148.598 131.91C148.214 132.022 147.857 132.21 147.547 132.463C147.237 132.717 146.982 133.03 146.796 133.384C146.61 133.738 146.497 134.127 146.465 134.526Z" fill="#263238"/>
<path d="M166.194 151.105C166.194 150.919 164.133 150.496 160.763 149.94C159.904 149.835 159.098 149.636 158.966 149.041C158.929 148.151 159.159 147.271 159.627 146.513L162.375 140.043C166.208 130.781 168.983 123.239 168.639 123.093C168.296 122.948 164.86 130.291 161.027 139.501L158.384 146.011C157.81 147.031 157.614 148.221 157.829 149.371C157.936 149.677 158.111 149.955 158.339 150.184C158.568 150.413 158.846 150.588 159.151 150.695C159.623 150.839 160.111 150.923 160.605 150.946C164.054 151.211 166.168 151.303 166.194 151.105Z" fill="#263238"/>
<path d="M171.401 156.12C172.044 156.195 172.665 156.4 173.226 156.723C173.787 157.046 174.277 157.48 174.665 157.998C175.392 159.057 175.92 161.531 175.194 162.497C174.467 163.463 171.797 163.304 169.908 163.066C169.473 163.01 169.063 162.832 168.724 162.554C168.385 162.276 168.132 161.907 167.992 161.492L167.238 159.322C167.133 159.027 167.087 158.715 167.103 158.403C167.12 158.09 167.199 157.785 167.336 157.503C167.473 157.222 167.664 156.971 167.9 156.765C168.135 156.56 168.409 156.403 168.705 156.305C169.58 156.047 170.5 155.984 171.401 156.12Z" fill="#FF9A6C"/>
<path d="M176.804 118.07C177.306 118.904 180.531 117.832 184.495 117.541C188.46 117.25 191.803 117.7 192.16 116.8C192.318 116.363 191.605 115.622 190.178 115C188.287 114.246 186.245 113.947 184.218 114.127C182.187 114.275 180.221 114.905 178.483 115.966C177.161 116.813 176.593 117.66 176.804 118.07Z" fill="#263238"/>
<path d="M145.71 123.151C146.423 123.892 149.08 123.032 152.317 122.913C155.555 122.794 158.304 123.257 158.925 122.45C159.189 122.053 158.726 121.299 157.524 120.598C155.855 119.747 153.988 119.363 152.119 119.486C150.236 119.547 148.407 120.129 146.833 121.167C145.749 121.987 145.406 122.781 145.71 123.151Z" fill="#263238"/>
<path d="M262.055 258.506L230.339 373.793L241.479 406.872C199.562 425.396 138.972 431.244 91.2139 408.076C91.2139 408.076 107.428 360.442 107.983 351.18C108.538 341.918 104.548 287.668 108.961 269.528C113.375 251.387 126.022 212.38 126.022 212.38L163.195 206.479C180.242 215.648 191.157 217.064 209.447 206.386L244.083 213.796L262.055 258.506Z" fill="#97A483"/>
<path d="M126.537 212.235C126.537 212.235 106.569 214.352 98.5347 230.759C90.5001 247.166 68.4974 318.921 67.3478 330.935C66.1981 342.95 75.8845 359.119 84.3684 361.368L110.084 335.686L131.426 337.591L159.534 206.307L126.537 212.235Z" fill="#97A483"/>
<g opacity="0.3">
<path d="M111.472 256.389C105.248 272.616 103.513 290.224 106.45 307.357L92.3897 302.064C96.223 307.37 101.189 311.755 106.926 314.899C103.133 313.8 99.2482 312.689 95.3102 312.94C91.3722 313.192 87.3813 315.097 85.5444 318.63C90.13 317.796 94.7948 316.95 99.4464 317.492C104.098 318.035 108.776 320.138 111.34 324.108C107.858 309.108 106.523 293.689 107.375 278.313" fill="black"/>
</g>
<g opacity="0.3">
<path d="M105.631 355.268L210.411 365.655C202.865 365.496 197.051 371.9 190.51 375.685C178.405 382.697 163.327 380.739 149.544 378.556L115.185 373.157C112.304 372.694 109.225 372.152 107.098 370.141C103.252 366.555 104.296 360.336 105.631 355.268Z" fill="black"/>
</g>
<path d="M185.66 346.641L203.209 329.678C204.05 328.867 205.055 328.246 206.156 327.858C207.257 327.47 208.429 327.324 209.592 327.429C214.6 327.905 223.084 328.752 224.829 329.467C227.339 330.446 229.718 331.848 230.405 333.105C231.708 336.329 232.781 339.641 233.616 343.016C233.617 344.212 233.524 345.407 233.339 346.588C233.291 346.991 233.145 347.376 232.914 347.709C232.683 348.042 232.375 348.314 232.015 348.5C231.656 348.687 231.256 348.783 230.851 348.779C230.446 348.776 230.048 348.673 229.692 348.48C229.008 348.123 228.436 347.582 228.04 346.919C227.448 346.05 227.109 345.033 227.062 343.982C227.062 343.982 227.617 351.524 221.485 351.669C221.485 351.669 224.313 358.087 216.411 360.733C216.411 360.733 216.715 364.927 210.107 365.483C205.916 365.812 201.705 365.812 197.514 365.483C197.514 365.483 185.435 374.163 176.938 374.745C168.441 375.327 149.385 371.583 149.385 371.583L147.086 336.466L185.66 346.641Z" fill="#FFBF9D"/>
<path d="M209.433 335.884C210.337 336.345 211.273 336.739 212.235 337.062C214.005 337.723 216.45 338.597 219.239 339.338C220.56 339.734 222 339.946 223.203 340.264C224.217 340.601 225.069 341.304 225.595 342.235C226.097 343.003 226.507 343.664 226.916 344.074C227.326 344.485 227.511 344.657 227.524 344.63C227.387 344.398 227.233 344.177 227.062 343.969C226.771 343.532 226.414 342.87 225.938 342.05C225.669 341.593 225.345 341.171 224.974 340.793C224.53 340.361 223.991 340.039 223.401 339.854C222.159 339.496 220.851 339.271 219.437 338.888C216.675 338.147 214.217 337.326 212.433 336.744C211.457 336.38 210.454 336.092 209.433 335.884Z" fill="#FF9A6C"/>
<path d="M207.173 346.641C207.784 347.024 208.441 347.327 209.129 347.541C210.358 348.044 212.076 348.679 213.992 349.327C215.908 349.976 217.666 350.492 218.948 350.836C219.631 351.061 220.335 351.216 221.049 351.299C220.41 350.965 219.737 350.703 219.04 350.518L214.138 348.878L209.235 347.237C208.57 346.968 207.879 346.768 207.173 346.641Z" fill="#FF9A6C"/>
<path d="M202.839 356.697C202.839 356.843 205.891 357.147 209.539 358.153C213.186 359.158 216.014 360.402 216.067 360.27C215.52 359.87 214.919 359.549 214.283 359.317C212.784 358.659 211.238 358.115 209.658 357.69C208.084 357.267 206.48 356.962 204.861 356.777C204.195 356.647 203.513 356.62 202.839 356.697Z" fill="#FF9A6C"/>
<path d="M162.203 373.793L84.355 361.355C84.355 361.355 93.7111 322.295 107.362 322.295C109.357 322.295 178.497 344.789 178.497 344.789L162.203 373.793Z" fill="#97A483"/>
<path d="M175.815 356.764C176.471 356.263 177.081 355.705 177.639 355.096L181.894 350.915C183.546 349.274 185.026 347.753 186.056 346.628C186.646 346.047 187.177 345.409 187.642 344.723C186.99 345.228 186.38 345.785 185.819 346.39L181.563 350.584C179.912 352.225 178.431 353.733 177.401 354.858C176.815 355.443 176.284 356.081 175.815 356.764Z" fill="#FF9A6C"/>
<path d="M178.498 344.789C178.16 344.778 177.826 344.716 177.507 344.604L174.731 343.863L164.596 340.939C156.046 338.425 144.258 334.878 131.255 330.896L111.181 324.69H111.023L110.917 324.531C108.62 321.556 105.442 319.384 101.839 318.326C99.0299 317.467 96.0806 317.166 93.1565 317.439C91.2531 317.606 89.374 317.983 87.5534 318.564C86.2319 318.974 85.6373 319.265 85.6108 319.212C86.1607 318.786 86.783 318.464 87.4477 318.26C92.1135 316.425 97.2496 316.165 102.076 317.519C105.911 318.543 109.31 320.785 111.763 323.909L111.485 323.698L131.585 329.798C144.588 333.767 156.336 337.445 164.82 340.158L174.864 343.413L177.507 344.366C177.858 344.45 178.193 344.593 178.498 344.789Z" fill="#263238"/>
<path d="M157.882 219.803C158.53 217.633 162.19 197.601 163.67 192.943C165.771 186.327 182.819 174.631 182.819 174.631C182.819 174.631 180.176 168.465 172.881 171.667C164.291 175.464 160.036 181.855 157.882 180.558C155.728 179.262 142.209 165.488 138.536 165.924C134.862 166.361 134.043 170.145 135.338 171.653C136.355 172.907 137.278 174.234 138.1 175.623C138.1 175.623 130.303 173.268 131.823 181.815C131.823 181.815 122.942 176.271 123.814 187.968C123.814 187.968 117.96 185.586 116.665 189.701C115.37 193.816 119.216 198.593 121.172 201.848C123.127 205.103 129.444 223.958 129.444 223.958V240.59L160.486 234.199L157.882 219.803Z" fill="#FFBF9D"/>
<path d="M157.882 219.803C157.986 220.114 158.066 220.433 158.12 220.756C158.266 221.444 158.464 222.37 158.702 223.548C159.204 226.062 159.904 229.648 160.803 234.212V234.464H160.552L129.55 241.08L129.035 241.185V240.656C129.035 235.536 128.955 229.925 128.902 224.024V224.183C126.696 217.779 124.383 210.951 121.502 203.952C120.088 200.604 117.141 197.68 116.071 193.618C115.786 192.585 115.718 191.503 115.873 190.442C115.934 189.87 116.115 189.318 116.404 188.821C116.694 188.324 117.084 187.893 117.551 187.558C118.526 186.966 119.667 186.706 120.802 186.817C121.88 186.898 122.939 187.139 123.947 187.531L123.18 188.074C123.102 186.909 123.128 185.74 123.26 184.581C123.372 183.297 123.89 182.082 124.74 181.114C125.236 180.653 125.837 180.318 126.49 180.138C127.144 179.959 127.83 179.939 128.493 180.082C129.745 180.299 130.946 180.748 132.034 181.405L131.189 181.974C130.763 180.226 130.969 178.384 131.77 176.774C132.11 176.263 132.557 175.832 133.079 175.51C133.602 175.188 134.187 174.983 134.796 174.908C135.928 174.754 137.08 174.835 138.179 175.147L137.545 175.967C136.782 174.657 135.93 173.401 134.994 172.209C134.391 171.526 134.083 170.632 134.136 169.722C134.179 168.85 134.473 168.009 134.981 167.3C135.483 166.59 136.181 166.042 136.99 165.726C137.382 165.574 137.79 165.467 138.206 165.408C138.65 165.37 139.097 165.41 139.527 165.527C140.99 166.069 142.359 166.837 143.584 167.803C148.421 171.336 152.57 175.398 156.799 179.076C157.243 179.5 157.741 179.865 158.279 180.161C158.831 180.179 159.372 180.006 159.812 179.672C160.922 178.984 161.966 178.097 163.036 177.277C165.112 175.583 167.322 174.061 169.644 172.725C171.917 171.521 174.322 170.171 177.044 170.291C178.35 170.353 179.614 170.773 180.698 171.506C181.781 172.239 182.643 173.256 183.189 174.445L183.347 174.776L183.017 175.014C176.41 179.738 170.41 184.395 166.181 189.397C165.166 190.566 164.373 191.911 163.842 193.366C163.406 194.822 163.076 196.277 162.746 197.667C162.138 200.445 161.578 202.995 161.067 205.315C160.103 209.88 159.323 213.478 158.794 216.019C158.517 217.249 158.292 218.189 158.12 218.824C158.044 219.143 157.947 219.457 157.83 219.764C157.847 219.432 157.901 219.104 157.988 218.784L158.517 215.966C159.006 213.412 159.693 209.8 160.552 205.209C161.028 202.893 161.556 200.313 162.124 197.521C162.442 196.119 162.759 194.676 163.182 193.168C163.714 191.605 164.534 190.155 165.6 188.894C169.895 183.721 175.828 179.037 182.502 174.22L182.343 174.776C181.867 173.758 181.124 172.888 180.193 172.259C179.262 171.63 178.178 171.265 177.057 171.204C174.718 171.098 172.419 172.341 170.185 173.546C167.917 174.874 165.757 176.378 163.723 178.044C162.666 178.865 161.622 179.751 160.407 180.532C159.735 181.029 158.896 181.247 158.067 181.14C157.36 180.815 156.716 180.367 156.165 179.817C151.923 176.126 147.786 172.09 143.042 168.637C141.911 167.761 140.661 167.053 139.329 166.533C139.04 166.461 138.741 166.434 138.444 166.453C138.114 166.504 137.791 166.589 137.479 166.705C136.863 166.937 136.332 167.353 135.959 167.896C135.556 168.398 135.336 169.024 135.336 169.669C135.336 170.313 135.556 170.939 135.959 171.442C136.927 172.682 137.81 173.986 138.602 175.345L139.302 176.523L137.981 176.165C136.171 175.676 133.792 175.729 132.84 177.317C132.198 178.693 132.049 180.249 132.418 181.723L132.576 182.9L131.572 182.305C130.612 181.728 129.555 181.334 128.453 181.14C127.961 181.019 127.447 181.02 126.956 181.145C126.465 181.269 126.013 181.513 125.638 181.855C124.317 183.35 124.317 185.824 124.396 187.942V188.788L123.603 188.497C121.859 187.862 119.639 187.478 118.317 188.405C117.972 188.66 117.685 188.985 117.473 189.359C117.261 189.733 117.13 190.147 117.088 190.575C116.96 191.486 117.023 192.415 117.273 193.3C117.817 195.126 118.637 196.857 119.705 198.434C120.809 200.033 121.782 201.719 122.612 203.475C125.519 210.528 127.766 217.382 129.96 223.812V223.892V223.971C129.96 229.872 129.96 235.469 129.96 240.59L129.444 240.18L160.512 233.961L160.314 234.252C159.508 229.648 158.887 226.035 158.451 223.495C158.253 222.317 158.107 221.391 158.001 220.69C157.933 220.399 157.893 220.102 157.882 219.803Z" fill="#FF9A6C"/>
<path d="M138.126 175.901C139.313 177.145 140.57 178.321 141.892 179.42C143.111 180.632 144.4 181.772 145.751 182.834C144.726 181.443 143.537 180.182 142.209 179.076C140.986 177.851 139.614 176.784 138.126 175.901Z" fill="#FF9A6C"/>
<path d="M131.188 181.405C132.099 183.922 133.777 186.089 135.985 187.597C136.078 187.492 134.783 186.274 133.475 184.594C132.166 182.914 131.307 181.352 131.188 181.405Z" fill="#FF9A6C"/>
<path d="M124 187.611C124.935 189.449 126.138 191.139 127.568 192.626C126.615 190.769 125.39 189.065 123.934 187.571L124 187.611Z" fill="#FF9A6C"/>
<path d="M244.083 213.796L210.702 247.153L176.462 290.288L162.838 232.876L128.043 240.034C128.043 240.034 130.501 304.869 141.258 334.27C143.293 339.867 149.319 344.035 152.015 345.305C168.838 353.31 185.264 340.925 185.264 340.925C185.264 340.925 255.447 293.768 263.059 262.184C266.653 247.272 265.213 229.555 259.095 222.251C253.65 215.834 244.083 213.796 244.083 213.796Z" fill="#97A483"/>
<path d="M263.006 262.184C263.006 262.184 262.927 262.541 262.742 263.203C262.489 264.209 262.176 265.199 261.804 266.167C260.373 269.893 258.525 273.444 256.293 276.752C252.799 281.982 248.892 286.925 244.611 291.532C238.967 297.652 233.008 303.473 226.758 308.971C219.86 315.137 212.01 321.554 203.381 328.157C199.06 331.451 194.54 334.773 189.809 338.147L186.228 340.647C185.039 341.468 183.783 342.341 182.488 343.069C179.849 344.58 177.053 345.8 174.15 346.707C168.117 348.732 161.609 348.857 155.504 347.065C154.73 346.828 153.971 346.545 153.231 346.218C152.462 345.94 151.715 345.604 150.998 345.212C149.564 344.406 148.206 343.472 146.941 342.42C144.295 340.325 142.222 337.594 140.915 334.481C138.725 328.059 136.959 321.5 135.629 314.846C134.307 308.084 133.171 301.204 132.272 294.191C129.827 275.508 128.427 257.315 127.647 240.074V239.796H127.924L162.719 232.664L163.023 232.598L163.089 232.889C168.23 254.708 172.815 274.106 176.634 290.314L176.238 290.209L203.989 260.384C207.24 256.905 209.751 254.205 211.482 252.366L213.424 250.289L214.111 249.614L213.477 250.342L211.574 252.446L204.174 260.556L176.634 290.539L176.33 290.857L176.225 290.433C172.366 274.225 167.741 254.84 162.534 233.035L162.904 233.273L128.109 240.458L128.374 240.114C129.167 257.315 130.581 275.521 133.025 294.165C133.911 301.164 135.1 308.031 136.369 314.766C137.665 321.353 139.395 327.846 141.549 334.204C142.822 337.193 144.821 339.817 147.363 341.838C148.6 342.865 149.927 343.777 151.328 344.564C152.024 344.946 152.748 345.274 153.495 345.543C154.22 345.86 154.961 346.138 155.715 346.377C161.694 348.137 168.067 348.022 173.978 346.046C176.835 345.145 179.589 343.947 182.198 342.473C183.519 341.732 184.669 340.912 185.898 340.078L189.479 337.578C194.21 334.256 198.729 330.962 203.051 327.641C211.693 321.025 219.543 314.674 226.454 308.547C233.365 302.421 239.352 296.639 244.347 291.214C248.632 286.634 252.555 281.728 256.082 276.54C258.325 273.272 260.204 269.766 261.685 266.087C262.24 264.844 262.438 263.811 262.689 263.163C262.94 262.515 263.006 262.184 263.006 262.184Z" fill="#263238"/>
<path d="M182.792 316.645C182.673 316.645 183.07 314.965 183.281 312.239C183.395 310.649 183.395 309.053 183.281 307.463C183.123 305.516 182.8 303.586 182.317 301.694C181.404 298.262 180.006 294.978 178.167 291.942C176.74 289.6 175.696 288.263 175.788 288.184C175.881 288.105 176.119 288.462 176.621 289.057C177.329 289.897 177.982 290.78 178.577 291.704C181.71 296.386 183.535 301.823 183.863 307.449C183.939 309.074 183.882 310.703 183.691 312.318C183.577 313.404 183.378 314.479 183.096 315.534C183.04 315.915 182.938 316.288 182.792 316.645Z" fill="#263238"/>
<path d="M178.035 160.486C178.035 160.671 177.255 160.592 176.158 160.367C174.774 160.049 173.37 159.819 171.956 159.679C170.582 159.542 169.194 159.627 167.846 159.93C166.816 160.168 166.38 160.592 166.208 160.526C166.036 160.46 166.128 160.248 166.34 159.943C166.642 159.546 167.037 159.228 167.49 159.017C168.923 158.377 170.503 158.135 172.062 158.316C173.582 158.44 175.069 158.82 176.462 159.441C177.506 159.904 178.101 160.301 178.035 160.486Z" fill="#263238"/>
<g opacity="0.3">
<path d="M231.039 373.052C231.039 373.052 215.75 371.173 207.53 369.903C203.051 369.214 196.205 368.487 194.91 367.256C193.298 365.695 193.311 363.101 193.139 360.865C190.232 322.692 203.328 281.396 243.845 256.772L254.179 259.498L253.505 284.334L231.039 373.052Z" fill="black"/>
</g>
<path d="M469.883 75.5789C472.577 75.9705 475.318 75.3065 477.535 73.7252C479.753 72.144 481.275 69.7673 481.786 67.0901C482.297 64.413 481.757 61.6417 480.278 59.3533C478.799 57.0649 476.496 55.4358 473.848 54.8053C475.431 53.1033 476.438 50.9449 476.726 48.6369C477.014 46.3289 476.568 43.9887 475.451 41.9491C474.335 39.9094 472.605 38.2741 470.507 37.2756C468.409 36.277 466.05 35.9661 463.765 36.3869C463.618 34.1005 462.88 31.8916 461.624 29.9764C460.369 28.0611 458.638 26.5052 456.601 25.4609C454.564 24.4166 452.292 23.9197 450.006 24.0189C447.72 24.118 445.498 24.8098 443.56 26.0266C440.937 23.9938 437.711 22.8975 434.395 22.9119C431.078 22.9263 427.862 24.0506 425.257 26.106C423.018 25.7403 420.72 26.1056 418.705 27.1479C416.689 28.1903 415.061 29.8543 414.063 31.8941C413.064 33.9339 412.747 36.2413 413.159 38.4753C413.571 40.7092 414.69 42.7512 416.35 44.2994" fill="#263238"/>
<path d="M423.249 36.6515H425.588C436.909 36.3877 447.914 40.4016 456.414 47.8944C464.913 55.3872 470.284 65.8095 471.456 77.0873C473.716 98.84 475.936 122.908 476.068 134.605C476.332 158.819 452.281 163.146 452.281 163.146L455.004 192.189L396.224 191.686L388.573 86.3097C385.837 61.2226 398.127 38.7156 423.249 36.6515Z" fill="#FFBF9D"/>
<path d="M452.268 163.093C440.571 163.407 429.021 160.432 418.927 154.505C418.927 154.505 428.759 172.156 452.836 169.417L452.268 163.093Z" fill="#FF9A6C"/>
<path d="M464.069 103.312C464.098 104.213 463.774 105.089 463.167 105.754C462.559 106.419 461.717 106.82 460.818 106.872C460.38 106.917 459.938 106.874 459.517 106.746C459.097 106.617 458.706 106.405 458.368 106.123C458.031 105.84 457.753 105.493 457.552 105.101C457.351 104.709 457.23 104.281 457.197 103.842C457.168 102.942 457.489 102.066 458.094 101.399C458.698 100.732 459.537 100.327 460.435 100.269C460.874 100.224 461.318 100.267 461.74 100.396C462.163 100.526 462.555 100.738 462.894 101.022C463.233 101.306 463.511 101.655 463.713 102.048C463.915 102.441 464.036 102.871 464.069 103.312Z" fill="#263238"/>
<path d="M432.076 103.312C432.105 104.213 431.782 105.089 431.174 105.754C430.567 106.419 429.724 106.82 428.825 106.872C428.387 106.915 427.945 106.871 427.524 106.742C427.103 106.613 426.712 106.401 426.374 106.119C426.036 105.837 425.757 105.49 425.554 105.099C425.351 104.708 425.228 104.281 425.191 103.842C425.162 102.94 425.485 102.062 426.092 101.395C426.699 100.728 427.542 100.324 428.442 100.269C428.881 100.224 429.325 100.267 429.748 100.396C430.17 100.526 430.562 100.738 430.901 101.022C431.24 101.306 431.519 101.655 431.72 102.048C431.922 102.441 432.043 102.871 432.076 103.312Z" fill="#263238"/>
<path d="M444.154 117.827C444.154 117.616 446.44 117.166 450.167 116.597C451.119 116.478 452.004 116.266 452.149 115.618C452.21 114.633 451.965 113.653 451.449 112.813C450.506 110.537 449.515 108.146 448.476 105.641C444.339 95.4263 441.326 87.0242 441.736 86.8655C442.146 86.7067 445.833 94.8044 449.969 105.059C450.973 107.573 451.925 109.968 452.823 112.27C453.446 113.403 453.652 114.719 453.405 115.988C453.274 116.325 453.069 116.628 452.807 116.875C452.544 117.122 452.229 117.308 451.885 117.417C451.36 117.568 450.819 117.653 450.273 117.669C446.507 117.96 444.181 118.039 444.154 117.827Z" fill="#263238"/>
<path d="M430.821 91.7366C430.345 92.6893 427.134 91.7366 423.209 91.7366C419.284 91.7366 416.007 92.4379 415.624 91.4588C415.465 90.9957 416.139 90.1356 417.527 89.3549C419.329 88.4092 421.348 87.953 423.381 88.0318C425.396 88.0474 427.371 88.6 429.103 89.6328C430.424 90.3473 431.019 91.2735 430.821 91.7366Z" fill="#263238"/>
<path d="M466.355 82.5276C465.602 83.3876 462.51 82.5276 458.823 82.6202C455.136 82.7128 452.017 83.3479 451.291 82.4879C450.96 82.0645 451.436 81.1647 452.771 80.3708C454.635 79.3319 456.742 78.8068 458.876 78.8492C460.998 78.8069 463.091 79.3468 464.928 80.4105C466.263 81.2441 466.699 82.1041 466.355 82.5276Z" fill="#263238"/>
<path d="M468.906 65.986C468.906 65.986 462.166 50.9681 454.792 47.6073C445.846 43.532 442.265 53.3366 433.794 51.1666C425.323 48.9966 416.773 45.0933 408.316 51.8149C399.066 59.1717 403.598 64.0806 403.268 74.8379C401.946 118.502 394.255 130.94 391.52 110.484C391.229 108.234 384.913 106.594 383.803 97.1199C382.322 84.841 381.503 69.9025 384.04 61.1035C386.181 53.6806 390.265 48.4938 397.652 42.7116C409.32 33.5686 425.614 32.9996 436.715 33.8597C447.815 34.7197 469.448 46.9854 468.906 65.986Z" fill="#263238"/>
<path d="M393.026 109.783C392.97 108.896 392.737 108.03 392.339 107.236C391.942 106.442 391.388 105.736 390.713 105.161C390.037 104.585 389.252 104.152 388.406 103.887C387.559 103.621 386.668 103.53 385.785 103.617C381.292 104.159 376.336 106.832 376.852 116.16C377.763 132.7 394.15 128.373 394.163 127.897C394.176 127.42 393.462 116.703 393.026 109.783Z" fill="#FFBF9D"/>
<path d="M390.225 121.863C390.146 121.863 389.947 122.088 389.472 122.339C388.801 122.667 388.029 122.724 387.318 122.498C385.534 121.956 383.921 119.256 383.67 116.279C383.557 114.864 383.756 113.441 384.252 112.111C384.381 111.589 384.633 111.105 384.987 110.7C385.341 110.295 385.787 109.98 386.287 109.783C386.614 109.674 386.968 109.685 387.288 109.813C387.607 109.941 387.87 110.179 388.031 110.484C388.282 110.934 388.19 111.265 388.282 111.291C388.375 111.317 388.626 110.987 388.454 110.312C388.335 109.91 388.084 109.56 387.741 109.32C387.507 109.16 387.244 109.049 386.968 108.992C386.691 108.935 386.406 108.934 386.128 108.989C385.457 109.159 384.841 109.499 384.339 109.977C383.837 110.454 383.466 111.052 383.261 111.714C382.643 113.189 382.389 114.791 382.521 116.385C382.811 119.706 384.688 122.736 387.119 123.292C387.575 123.401 388.05 123.405 388.508 123.304C388.965 123.204 389.394 123 389.762 122.71C390.212 122.273 390.278 121.89 390.225 121.863Z" fill="#FF9A6C"/>
<path d="M392.603 77.7092C394.784 79.125 397.083 80.5937 399.673 80.7789C402.263 80.9641 405.197 79.4557 405.567 76.8094C405.739 75.645 405.422 74.3219 406.162 73.4089C406.902 72.4959 408.712 72.6282 410.126 72.7341C414.95 73.131 420.434 67.6929 421.557 62.9824C422.206 63.8633 423.166 64.4633 424.242 64.66C425.317 64.8567 426.427 64.6353 427.345 64.0409C428.866 63.0656 430.207 61.8346 431.31 60.4022C432.724 58.7086 434.732 57.1737 436.926 57.4251C438.142 57.5707 439.305 58.272 440.534 58.1396C442.701 57.8882 443.705 55.3213 443.983 53.1646C444.26 51.0078 444.458 48.4673 446.269 47.25C448.079 46.0327 450.167 46.7075 452.176 46.9589C454.184 47.2103 456.748 46.6678 457.211 44.7096C457.283 44.1825 457.249 43.6461 457.111 43.1324C456.972 42.6187 456.732 42.1381 456.405 41.7192C455.012 39.7502 452.998 38.3084 450.686 37.6266C448.375 36.9447 445.902 37.0627 443.665 37.9615C442.778 35.235 441.105 32.8319 438.858 31.0539C436.611 29.2759 433.889 28.2022 431.035 27.9675C428.18 27.7329 425.32 28.3478 422.813 29.735C420.307 31.1223 418.265 33.2201 416.945 35.765C415.147 34.191 412.993 33.0788 410.669 32.5243C408.346 31.9698 405.923 31.9897 403.609 32.5823C401.295 33.1749 399.159 34.3224 397.387 35.9258C395.615 37.5291 394.259 39.5402 393.436 41.7854C391.392 41.2918 389.248 41.4135 387.273 42.1352C385.297 42.8569 383.579 44.1465 382.333 45.8422C381.086 47.538 380.368 49.5644 380.267 51.6673C380.167 53.7703 380.689 55.8561 381.767 57.6633C378.834 59.4363 376.349 62.4399 376.376 65.8669C376.402 69.2939 379.798 72.6415 383.089 71.6623C382.415 73.031 382.296 74.6074 382.756 76.062C383.216 77.5167 384.219 78.7371 385.557 79.4683C386.894 80.1994 388.462 80.3846 389.933 79.9853C391.404 79.586 392.664 78.633 393.449 77.3255" fill="#263238"/>
<path d="M444.921 42.8307C444.937 42.9314 444.937 43.0343 444.921 43.135C444.913 43.4319 444.886 43.728 444.841 44.0215C444.642 45.1511 444.263 46.2413 443.718 47.25C442.833 48.8224 441.609 50.1783 440.137 51.2195C438.183 52.6325 435.82 53.3667 433.41 53.3101L433.688 52.9396C434.215 54.4363 434.134 56.08 433.463 57.5178C432.757 59.0157 431.835 60.4021 430.728 61.6328C430.2 62.3475 429.592 63 428.917 63.5778C428.136 64.137 427.228 64.4918 426.274 64.6099C425.302 64.7778 424.304 64.7026 423.368 64.3909C422.432 64.0793 421.587 63.5409 420.909 62.8236L421.517 62.6384C421.327 64.363 420.779 66.0287 419.907 67.5282C419.036 69.0278 417.86 70.3278 416.456 71.3448C414.917 72.548 413.029 73.2168 411.077 73.2501C409.239 73.2084 407.42 72.855 405.699 72.2048L406.135 72.0064C405.321 74.0278 404.018 75.8148 402.342 77.2064C401.574 77.8955 400.661 78.405 399.672 78.6979C398.682 78.9908 397.64 79.0598 396.62 78.9C394.875 78.5688 393.264 77.7334 391.986 76.4967C390.709 75.26 389.821 73.6761 389.432 71.9402L389.815 72.099C388.099 73.0689 386.099 73.4104 384.159 73.0649C382.725 72.8287 381.367 72.2575 380.194 71.3977C379.456 70.8485 378.817 70.1773 378.305 69.413C378.123 69.1488 377.973 68.8646 377.855 68.5661C378.523 69.5912 379.369 70.4877 380.353 71.2125C381.517 72.0137 382.852 72.5304 384.251 72.7209C386.076 72.9974 387.941 72.6427 389.537 71.7153L389.854 71.53V71.8873C390.243 73.5055 391.091 74.9765 392.296 76.1225C393.502 77.2684 395.013 78.0401 396.647 78.3443C397.578 78.4776 398.527 78.4019 399.425 78.1227C400.323 77.8435 401.148 77.3678 401.84 76.73C403.416 75.4061 404.638 73.7099 405.395 71.7947L405.527 71.4903L405.844 71.5962C407.489 72.2176 409.228 72.5533 410.985 72.5885C412.823 72.5708 414.603 71.9425 416.046 70.8023C417.371 69.8442 418.48 68.6195 419.304 67.2068C420.128 65.794 420.648 64.2244 420.83 62.5987L420.922 61.8048L421.451 62.4002C422.049 63.0321 422.794 63.5064 423.619 63.781C424.445 64.0557 425.325 64.1222 426.182 63.9748C427.01 63.8729 427.799 63.5684 428.481 63.0883C429.115 62.5447 429.687 61.9323 430.186 61.2623C431.25 60.0711 432.14 58.7346 432.829 57.2928C433.457 55.996 433.552 54.5042 433.093 53.1381L432.948 52.7544H433.358C435.663 52.8524 437.937 52.1926 439.833 50.8755C441.304 49.8964 442.537 48.5986 443.441 47.078C444.183 45.7622 444.685 44.3236 444.921 42.8307Z" fill="#455A64"/>
<path d="M326.014 189.543C326.014 189.543 263.904 211.454 245.906 220.505C231.859 227.57 222.965 253.226 244.584 263.917C260.693 271.856 347.924 256.653 347.924 256.653L326.014 189.543Z" fill="#FFBF9D"/>
<path d="M515.712 407.374L357.901 401.394L352.179 455.207L345.783 563.11L426.393 563.454C426.393 562.991 436.45 502.774 436.45 502.774L440.996 501.583L440.573 563.454H516.109C520.073 512.248 522.346 469.245 522.491 465.197C523.098 445.693 520.813 426.207 515.712 407.374Z" fill="#263238"/>
<path d="M430.754 469.272C431.494 469.782 432.299 470.192 433.146 470.489C435.389 471.525 437.764 472.246 440.203 472.633C441.922 472.884 443.673 472.822 445.37 472.447C447.366 472.038 449.202 471.059 450.656 469.629C452.162 467.963 453.209 465.934 453.695 463.741C454.264 461.531 454.554 459.242 454.911 456.913C456.312 447.585 457.171 439.077 457.554 432.911C457.779 429.842 457.911 427.341 457.964 425.608C458.063 424.728 458.063 423.84 457.964 422.961C457.725 423.825 457.583 424.712 457.541 425.608C457.329 427.566 457.078 430 456.761 432.872C456.1 438.998 455.122 447.426 453.722 456.768C453.008 461.373 452.585 466.03 449.863 468.888C448.582 470.06 447.056 470.931 445.397 471.439C443.737 471.947 441.986 472.079 440.269 471.826C437.885 471.514 435.544 470.933 433.292 470.092C432.477 469.73 431.627 469.455 430.754 469.272Z" fill="#455A64"/>
<path d="M445.806 425.052C445.806 425.052 445.423 424.774 444.63 424.761C443.501 424.784 442.413 425.185 441.538 425.899C440.862 426.426 440.314 427.1 439.936 427.87C439.559 428.64 439.361 429.486 439.357 430.344C439.475 431.407 439.895 432.413 440.568 433.242C441.241 434.072 442.138 434.691 443.152 435.024C444.166 435.357 445.254 435.392 446.287 435.123C447.32 434.854 448.254 434.293 448.978 433.507C449.484 432.813 449.825 432.012 449.976 431.166C450.127 430.32 450.084 429.451 449.85 428.624C449.565 427.529 448.923 426.561 448.026 425.872C447.379 425.409 446.929 425.369 446.916 425.422C447.965 426.302 448.705 427.493 449.031 428.823C449.171 429.51 449.164 430.22 449.009 430.905C448.854 431.589 448.555 432.233 448.132 432.792C447.537 433.379 446.792 433.79 445.979 433.98C445.166 434.171 444.317 434.133 443.524 433.872C442.731 433.611 442.025 433.136 441.483 432.5C440.942 431.864 440.586 431.091 440.454 430.265C440.441 429.561 440.579 428.862 440.86 428.216C441.14 427.569 441.556 426.991 442.08 426.521C443.134 425.647 444.44 425.132 445.806 425.052Z" fill="#455A64"/>
<path d="M357.901 451.965C358.524 452.143 359.171 452.219 359.818 452.19C361.581 452.258 363.348 452.201 365.103 452.018C376.764 450.845 387.665 445.686 395.973 437.41C397.227 436.174 398.389 434.847 399.449 433.441C400.189 432.435 400.572 431.866 400.506 431.813C400.44 431.76 398.616 433.824 395.392 436.801C386.924 444.579 376.298 449.6 364.918 451.197C360.544 451.793 357.901 451.753 357.901 451.965Z" fill="#455A64"/>
<path d="M518.897 398.602C515.792 391.536 516.373 390.888 516.373 390.888L507.599 313.973L499.167 239.161L492.322 183.774L452.836 175.305C452.836 175.305 448.291 187.928 429.195 188.312C407.192 188.749 394.599 169.047 394.599 169.047L331.472 182.636L355.258 345.728L358.099 389.657C358.099 389.657 353.395 396.763 353.395 404.384C353.395 412.006 353.078 417.1 353.078 417.1C411.699 433.216 469.87 447.188 523.39 431.575C523.324 431.575 521.989 405.654 518.897 398.602Z" fill="#97A483"/>
<path d="M477.918 180.889C477.918 180.889 500.687 183.43 508.761 192.017C516.836 200.604 542.657 243.078 542.657 243.078L505.154 294.509L487.776 270.692L477.918 180.889Z" fill="#97A483"/>
<path d="M495.335 207.471C495.653 207.471 499.234 235.668 503.344 270.52C507.453 305.372 510.532 333.661 510.215 333.688C509.898 333.714 506.317 305.491 502.207 270.639C498.097 235.787 494.952 207.498 495.335 207.471Z" fill="#263238"/>
<path d="M331.432 182.623L280.873 205.09L299.175 256.349L347.911 264.076L331.432 182.623Z" fill="#97A483"/>
<path d="M338.396 216.601C338.74 216.601 341.145 236.568 343.788 261.258C346.431 285.948 348.294 306.02 347.951 306.047C347.607 306.073 345.202 286.094 342.572 261.39C339.943 236.687 338.079 216.641 338.396 216.601Z" fill="#263238"/>
<g opacity="0.3">
<path d="M350.871 476.47C378.318 466.586 393.528 447.109 405.818 426.454C418.108 405.8 419.839 376.717 411.99 353.998C411.99 353.998 355.245 408.949 354.849 410.166C354.452 411.383 350.871 476.47 350.871 476.47Z" fill="black"/>
</g>
<g opacity="0.3">
<path d="M428.098 187.598C427.411 193.168 430.53 198.553 434.349 202.668C438.168 206.783 442.793 210.157 446.242 214.577C450.207 219.605 452.493 225.744 454.7 231.778C459.325 244.366 463.946 256.94 468.562 269.501C472.527 280.338 476.57 291.267 482.887 300.926C489.204 310.585 498.084 318.987 509.052 322.52L500.714 251.678L456.775 180.916L428.098 187.598Z" fill="black"/>
</g>
<path d="M473.624 188.206C473.624 187.32 474.337 154.505 472.13 150.946C469.923 147.387 468.166 144.039 467.743 140.692C467.907 140.424 468.012 140.124 468.051 139.812C468.089 139.501 468.061 139.184 467.967 138.884C467.873 138.585 467.716 138.309 467.506 138.075C467.297 137.841 467.039 137.655 466.752 137.529C464.571 136.299 461.109 139.276 461.03 144.555C460.951 149.835 461.558 158.819 461.558 158.819C461.558 158.819 437.375 145.084 430.755 144.701C424.134 144.317 414.183 143.1 413.655 146.302C413.126 149.504 413.576 150.271 417.051 151.489C420.527 152.706 426.011 153.553 431.429 155.458C434.133 156.316 436.781 157.341 439.358 158.528C439.358 158.528 427.002 154.889 424.293 158.528C421.584 162.166 421.954 165.448 423.685 167.208C422.623 167.676 421.733 168.465 421.138 169.463C420.544 170.461 420.275 171.62 420.368 172.778C420.751 176.827 422.562 177.819 422.562 177.819C422.562 177.819 418.941 180.572 420.672 184.078C422.403 187.584 426.473 185.401 430.319 189.371C434.164 193.34 443.718 202.602 447.405 204.719C451.092 206.836 459.537 207.617 459.537 207.617L473.624 188.206Z" fill="#FFBF9D"/>
<path d="M473.623 188.206C473.623 188.206 473.557 188.325 473.412 188.55L472.725 189.516C472.104 190.403 471.192 191.673 470.016 193.314L459.655 207.63L459.589 207.71H459.497C457.818 207.538 456.087 207.286 454.277 206.955C452.383 206.626 450.521 206.13 448.713 205.473C447.768 205.111 446.878 204.617 446.07 204.005C445.212 203.409 444.405 202.682 443.573 202.073C441.921 200.75 440.282 199.241 438.617 197.693C436.952 196.145 435.248 194.544 433.543 192.864L430.9 190.284C430.097 189.363 429.157 188.573 428.112 187.942C427.005 187.358 425.815 186.952 424.583 186.738C423.219 186.596 421.945 185.988 420.976 185.017C420.524 184.473 420.203 183.832 420.038 183.144C419.873 182.455 419.868 181.738 420.024 181.048C420.415 179.669 421.234 178.45 422.363 177.568V178.044C421.502 177.375 420.877 176.448 420.579 175.398C420.234 174.382 420.043 173.321 420.011 172.249C419.98 171.12 420.303 170.009 420.936 169.073C421.603 168.119 422.517 167.365 423.579 166.89L423.473 167.38C422.757 166.578 422.277 165.593 422.088 164.535C421.899 163.476 422.008 162.386 422.403 161.386C422.747 160.378 423.242 159.428 423.87 158.567C424.169 158.085 424.587 157.688 425.085 157.416C425.577 157.153 426.101 156.957 426.645 156.834C428.77 156.47 430.942 156.47 433.067 156.834C435.217 157.133 437.345 157.575 439.437 158.157L439.212 158.726C435.928 157.252 432.551 155.997 429.103 154.968C425.601 153.923 421.927 153.235 418.267 152.203C416.922 151.847 415.629 151.318 414.421 150.628C414.099 150.425 413.825 150.154 413.617 149.834C413.41 149.514 413.274 149.153 413.218 148.776C413.145 148.075 413.171 147.366 413.298 146.672C413.319 146.297 413.422 145.931 413.602 145.6C413.814 145.279 414.093 145.008 414.421 144.807C415.037 144.467 415.708 144.238 416.403 144.132C417.713 143.909 419.04 143.807 420.368 143.827C423.011 143.827 425.654 144.026 428.204 144.211C429.501 144.264 430.793 144.387 432.076 144.582C432.724 144.727 433.331 144.926 433.952 145.084L435.763 145.72C440.372 147.545 444.885 149.607 449.282 151.899C453.581 154.113 457.708 156.318 461.664 158.515L461.228 158.779C460.937 153.579 460.633 148.604 460.765 143.788C460.788 142.581 461.077 141.394 461.612 140.312C462.147 139.23 462.913 138.28 463.858 137.529C464.363 137.184 464.952 136.983 465.562 136.947C466.181 136.935 466.784 137.141 467.267 137.529C467.772 137.882 468.118 138.419 468.232 139.024C468.323 139.623 468.206 140.235 467.901 140.758V140.599C468.592 144.071 469.972 147.369 471.958 150.298C472.208 150.654 472.399 151.046 472.526 151.462C472.659 151.864 472.76 152.275 472.83 152.693C472.976 153.5 473.082 154.307 473.161 155.101C473.333 156.689 473.425 158.237 473.504 159.732C473.795 165.686 473.795 170.833 473.795 175.054C473.795 179.275 473.716 182.53 473.663 184.753C473.663 185.851 473.663 186.685 473.597 187.28C473.531 187.875 473.597 188.14 473.597 188.14C473.597 188.14 473.597 187.849 473.597 187.28V184.819C473.597 182.57 473.597 179.301 473.597 175.12C473.597 170.939 473.531 165.765 473.2 159.811C473.121 158.329 473.015 156.794 472.844 155.22C472.751 154.426 472.645 153.632 472.5 152.838C472.391 152.036 472.106 151.268 471.668 150.589C469.631 147.617 468.216 144.264 467.505 140.731V140.652V140.572C467.748 140.148 467.842 139.654 467.769 139.17C467.665 138.69 467.381 138.269 466.976 137.992C466.572 137.677 466.075 137.506 465.562 137.506C465.05 137.506 464.552 137.677 464.148 137.992C463.275 138.704 462.567 139.599 462.077 140.614C461.586 141.629 461.323 142.739 461.307 143.867C461.188 148.591 461.505 153.606 461.809 158.779V159.295L461.347 159.044C457.391 156.821 453.268 154.616 448.978 152.428C444.626 150.155 440.158 148.115 435.591 146.315L433.807 145.693C433.212 145.534 432.605 145.336 431.997 145.204C430.74 145.015 429.474 144.896 428.204 144.846C425.627 144.674 423.024 144.476 420.407 144.476C419.102 144.455 417.798 144.548 416.509 144.754C415.293 145.005 413.866 145.442 413.866 146.778C413.746 147.406 413.724 148.049 413.8 148.683C413.842 148.976 413.948 149.256 414.11 149.503C414.272 149.75 414.487 149.958 414.738 150.112C415.895 150.774 417.135 151.277 418.425 151.608C422.033 152.626 425.733 153.315 429.274 154.386C432.758 155.417 436.166 156.686 439.476 158.184L439.252 158.766C437.19 158.19 435.093 157.748 432.975 157.443C430.918 157.106 428.82 157.106 426.764 157.443C426.283 157.517 425.821 157.686 425.406 157.941C424.991 158.195 424.63 158.53 424.345 158.925C423.776 159.736 423.33 160.628 423.024 161.571C422.659 162.464 422.551 163.442 422.712 164.394C422.873 165.346 423.297 166.233 423.936 166.956L424.24 167.261L423.843 167.446C422.909 167.882 422.107 168.558 421.517 169.404C420.951 170.243 420.66 171.237 420.685 172.249C420.712 173.258 420.89 174.257 421.213 175.213C421.479 176.119 422.008 176.925 422.733 177.528L423.064 177.766L422.773 178.005C421.748 178.808 421.004 179.915 420.645 181.167C420.496 181.775 420.493 182.409 420.635 183.019C420.777 183.628 421.062 184.195 421.465 184.673C422.353 185.56 423.52 186.112 424.768 186.235C426.05 186.461 427.29 186.885 428.442 187.492C429.526 188.155 430.502 188.98 431.336 189.94L433.9 192.586C435.604 194.266 437.296 195.881 438.948 197.429C440.6 198.977 442.238 200.432 443.877 201.808C445.371 203.195 447.081 204.33 448.938 205.169C450.72 205.819 452.555 206.315 454.422 206.651C456.206 206.995 457.937 207.246 459.589 207.445L459.431 207.511L469.897 193.327L472.685 189.582L473.412 188.616L473.623 188.206Z" fill="#FF9A6C"/>
<path d="M551.987 264.817C549.569 260.199 544.058 250.58 541.482 244.679L524.197 250.977C524.197 250.977 475.302 184.819 473.676 184.819C472.051 184.819 450.854 204.534 450.854 204.534C451.793 205.473 495.864 306.629 512.753 317.585C529.641 328.541 542.222 335.5 551.287 319.847C560.352 304.194 562.612 285.167 551.987 264.817Z" fill="#FFBF9D"/>
<path d="M546.331 280.695C546.019 280.282 545.749 279.839 545.525 279.372C545.049 278.525 544.336 277.308 543.424 275.813C541.066 271.948 538.498 268.216 535.733 264.632C532.509 260.411 529.363 256.772 527.09 254.139L524.448 251.017C524.096 250.652 523.782 250.253 523.509 249.826C523.918 250.13 524.294 250.476 524.633 250.858C525.32 251.546 526.298 252.565 527.487 253.835C529.852 256.402 533.05 260.014 536.301 264.248C539.087 267.849 541.621 271.638 543.886 275.588C544.732 277.109 545.393 278.366 545.803 279.253C546.034 279.711 546.212 280.195 546.331 280.695Z" fill="#FF9A6C"/>
<path d="M446.745 133.242C446.308 133.56 444.485 131.681 441.591 130.675C438.697 129.67 436.12 129.855 436.001 129.352C435.935 129.114 436.556 128.691 437.719 128.466C439.24 128.235 440.794 128.39 442.24 128.917C443.685 129.444 444.975 130.326 445.991 131.482C446.731 132.369 446.943 133.083 446.745 133.242Z" fill="#263238"/>
<path d="M490.935 398.152C490.748 398.286 490.549 398.401 490.34 398.496C489.917 398.708 489.336 399.052 488.529 399.383C486.239 400.33 483.836 400.974 481.38 401.301C477.744 401.784 474.061 401.784 470.425 401.301C465.986 400.692 461.606 399.714 457.329 398.377C448.224 395.585 440.15 392.529 434.402 390.173C431.521 388.996 429.208 387.977 427.622 387.262L425.812 386.416C425.59 386.329 425.382 386.214 425.191 386.072C425.419 386.12 425.641 386.195 425.852 386.296C426.354 386.482 426.962 386.733 427.715 387.037L434.573 389.75C440.361 392.013 448.436 395.043 457.501 397.768C461.748 399.089 466.091 400.076 470.491 400.719C474.08 401.248 477.722 401.314 481.327 400.917C483.755 400.625 486.141 400.053 488.437 399.21C490.049 398.509 490.908 398.099 490.935 398.152Z" fill="#263238"/>
<path d="M371.367 271.909C349.299 257.024 323.041 251.705 305.835 251.692C289.726 251.692 266.006 254.206 244.545 266.312C231.508 273.545 220.598 284.081 212.909 296.864C203.843 311.975 198.927 330.671 198.293 352.437C198.254 354.045 198.537 355.644 199.124 357.141C199.712 358.638 200.592 360.002 201.714 361.154C202.836 362.305 204.176 363.22 205.656 363.846C207.136 364.471 208.725 364.794 210.332 364.795H252.619C255.509 364.779 258.298 363.726 260.48 361.828C262.662 359.929 264.092 357.311 264.512 354.448C266.389 341.217 274.265 318.855 305.888 318.326C329.992 317.942 339.903 335.395 343.048 342.923C345.565 349.228 346.56 356.038 345.951 362.8C345.343 369.563 343.148 376.085 339.546 381.838C328.287 400.362 307.606 403.22 296.281 403.259C290.032 403.27 284.041 405.753 279.613 410.167C275.184 414.581 272.678 420.569 272.64 426.825V472.342C272.64 475.54 273.907 478.607 276.165 480.87C278.422 483.132 281.484 484.405 284.678 484.409H325.842C329.035 484.405 332.097 483.135 334.356 480.875C336.615 478.616 337.887 475.552 337.894 472.355V462.815C337.894 462.701 337.929 462.59 337.996 462.497C338.062 462.404 338.156 462.335 338.264 462.299C354.648 456.474 369.563 447.136 381.966 434.936C402.766 414.255 413.324 387.554 413.337 355.546C413.324 309.818 390.516 284.823 371.367 271.909Z" fill="#2D2D2D"/>
<path d="M307.262 495.867H303.721C295.552 496.036 287.775 499.403 282.057 505.247C276.339 511.091 273.137 518.946 273.137 527.127C273.137 535.308 276.339 543.163 282.057 549.007C287.775 554.851 295.552 558.218 303.721 558.387H307.329C315.61 558.387 323.553 555.093 329.409 549.229C335.265 543.365 338.555 535.413 338.555 527.12C338.555 518.828 335.265 510.875 329.409 505.012C323.553 499.148 315.61 495.854 307.329 495.854L307.262 495.867Z" fill="#2D2D2D"/>
<g opacity="0.3">
<path d="M411.712 326.344C411.145 321.742 409.972 317.235 408.223 312.941C399.991 292.352 380.644 278.313 358.628 275.813L252.408 263.706C263.957 275.535 279.036 277.89 295.025 282.032C311.015 286.173 328.234 292.405 344.383 295.845C349.563 296.957 354.955 298.333 358.919 301.773C362.883 305.213 365.051 310.043 367.112 314.793C370.196 321.85 373.279 328.88 376.363 335.884C379.864 343.903 384.529 352.966 393.965 353.482C397.795 353.638 401.538 352.311 404.418 349.777C411.263 343.916 412.703 334.773 411.712 326.344Z" fill="black"/>
</g>
<path d="M410.192 297.856C409.373 296.401 393.238 276.686 385.203 268.972C380.023 264.023 372.213 260.61 367.324 258.81C367.324 258.81 286.489 229.581 280.872 226.723L244.571 263.917C257.205 267.437 343.022 288.131 364.192 292.776C367.892 297.102 371.618 300.648 371.618 300.648L377.724 315.124C378.156 318.746 378.244 322.401 377.988 326.04C377.552 331.69 382.124 329.493 382.124 329.493C381.999 332.346 382.025 335.204 382.203 338.054C382.21 338.107 382.21 338.16 382.203 338.213C382.507 341.997 387.939 342.46 389.088 338.848L393.264 325.802C393.264 325.802 392.722 337.71 392.498 344.326C392.444 345.351 392.63 346.375 393.04 347.316C393.415 348.078 394.016 348.705 394.762 349.11C395.507 349.516 396.359 349.681 397.202 349.582C398.045 349.484 398.836 349.127 399.468 348.56C400.1 347.993 400.541 347.244 400.731 346.416L405.607 325.775L404.153 313.099L408.25 324.65C409.01 329.56 409.311 334.53 409.148 339.496C409.056 342.963 410.232 344.445 411.659 344.961C412.237 345.144 412.849 345.191 413.448 345.1C414.048 345.009 414.618 344.782 415.116 344.436C415.613 344.089 416.025 343.633 416.319 343.103C416.614 342.572 416.782 341.981 416.813 341.375L418.306 322.295C418.306 322.295 411.025 299.299 410.192 297.856Z" fill="#FFBF9D"/>
<path d="M275.666 225.281C277.687 225.441 279.68 225.854 281.599 226.512C286.288 227.862 290.902 229.461 295.422 231.302C300.708 233.405 305.465 235.443 308.901 236.899C310.805 237.586 312.644 238.441 314.398 239.452C312.399 239.098 310.447 238.512 308.584 237.706C305.055 236.449 300.258 234.543 294.972 232.413C289.686 230.283 284.876 228.444 281.348 227.306C279.403 226.783 277.503 226.106 275.666 225.281Z" fill="#FF9A6C"/>
</svg>
