<svg width="72" height="66" viewBox="0 0 72 66" fill="none" xmlns="http://www.w3.org/2000/svg">
<path d="M1.12922 65V55.3595L23.6545 34.5028C25.5703 32.6488 27.177 30.9803 28.4748 29.4972C29.7931 28.014 30.7922 26.5618 31.4719 25.1404C32.1517 23.6985 32.4916 22.1432 32.4916 20.4747C32.4916 18.6207 32.0693 17.0243 31.2248 15.6853C30.3802 14.3258 29.2266 13.2855 27.7641 12.5645C26.3015 11.823 24.6433 11.4522 22.7894 11.4522C20.853 11.4522 19.1639 11.8436 17.7219 12.6263C16.28 13.4091 15.1676 14.5318 14.3849 15.9943C13.6021 17.4569 13.2107 19.1975 13.2107 21.2162H0.511241C0.511241 17.0758 1.44851 13.4812 3.32304 10.4325C5.19758 7.38383 7.82398 5.02522 11.2023 3.35667C14.5805 1.68813 18.4738 0.853861 22.8821 0.853861C27.4139 0.853861 31.3587 1.65723 34.7163 3.26398C38.0946 4.85012 40.721 7.05424 42.5956 9.87634C44.4701 12.6984 45.4074 15.9325 45.4074 19.5786C45.4074 21.9681 44.9336 24.3267 43.986 26.6545C43.059 28.9822 41.4008 31.5674 39.0113 34.4101C36.6218 37.2322 33.2538 40.6208 28.9073 44.5758L19.6686 53.6292V54.0618H46.2416V65H1.12922ZM63.7536 65.8034C61.7143 65.8034 59.9633 65.0824 58.5008 63.6404C57.0588 62.1779 56.3378 60.427 56.3378 58.3876C56.3378 56.3689 57.0588 54.6386 58.5008 53.1966C59.9633 51.7547 61.7143 51.0337 63.7536 51.0337C65.7311 51.0337 67.4615 51.7547 68.9446 53.1966C70.4278 54.6386 71.1693 56.3689 71.1693 58.3876C71.1693 59.7472 70.8191 60.9934 70.1188 62.1264C69.439 63.2388 68.5429 64.1348 67.4306 64.8146C66.3182 65.4738 65.0925 65.8034 63.7536 65.8034Z" fill="#97A483"/>
</svg>
