<svg width="73" height="66" viewBox="0 0 73 66" fill="none" xmlns="http://www.w3.org/2000/svg">
<path d="M24.736 65.8652C19.9776 65.8652 15.7444 65.0927 12.0365 63.5478C8.34926 61.9822 5.45507 59.8502 3.35394 57.1517C1.25281 54.4532 0.202252 51.3942 0.202252 47.9747C0.202252 45.338 0.799631 42.9176 1.99439 40.7135C3.20975 38.4887 4.85769 36.6451 6.93821 35.1826C9.01874 33.6994 11.3465 32.7518 13.9214 32.3399V31.9073C10.5431 31.2275 7.80338 29.5898 5.70226 26.9943C3.60113 24.3782 2.55057 21.3398 2.55057 17.8792C2.55057 14.6039 3.50844 11.6891 5.42417 9.13477C7.3399 6.55986 9.96631 4.54113 13.3034 3.07858C16.6611 1.59544 20.4719 0.853861 24.736 0.853861C29 0.853861 32.8006 1.59544 36.1377 3.07858C39.4954 4.56173 42.1321 6.59076 44.0478 9.16567C45.9635 11.72 46.9317 14.6245 46.9523 17.8792C46.9317 21.3604 45.8605 24.3988 43.7388 26.9943C41.6171 29.5898 38.898 31.2275 35.5815 31.9073V32.3399C38.1152 32.7518 40.412 33.6994 42.472 35.1826C44.5525 36.6451 46.2004 38.4887 47.4158 40.7135C48.6517 42.9176 49.28 45.338 49.3006 47.9747C49.28 51.3942 48.2192 54.4532 46.118 57.1517C44.0169 59.8502 41.1124 61.9822 37.4045 63.5478C33.7173 65.0927 29.4944 65.8652 24.736 65.8652ZM24.736 56.0393C26.8577 56.0393 28.7116 55.6582 30.2978 54.8961C31.8839 54.1133 33.1199 53.0421 34.0057 51.6826C34.912 50.3024 35.3652 48.7163 35.3652 46.9241C35.3652 45.0908 34.9017 43.4738 33.9748 42.073C33.0478 40.6517 31.7912 39.5393 30.2051 38.7359C28.619 37.912 26.7959 37.5 24.736 37.5C22.6967 37.5 20.8736 37.912 19.2669 38.7359C17.6601 39.5393 16.3933 40.6517 15.4663 42.073C14.5599 43.4738 14.1068 45.0908 14.1068 46.9241C14.1068 48.7163 14.5496 50.3024 15.4354 51.6826C16.3212 53.0421 17.5674 54.1133 19.1742 54.8961C20.7809 55.6582 22.6349 56.0393 24.736 56.0393ZM24.736 27.7668C26.5075 27.7668 28.0834 27.4063 29.4635 26.6853C30.8437 25.9644 31.9251 24.9653 32.7079 23.6882C33.4907 22.411 33.8821 20.9382 33.8821 19.2696C33.8821 17.6217 33.4907 16.1797 32.7079 14.9438C31.9251 13.6872 30.854 12.7087 29.4944 12.0084C28.1349 11.2874 26.5487 10.9269 24.736 10.9269C22.9439 10.9269 21.3577 11.2874 19.9776 12.0084C18.5974 12.7087 17.5159 13.6872 16.7332 14.9438C15.971 16.1797 15.5899 17.6217 15.5899 19.2696C15.5899 20.9382 15.9813 22.411 16.7641 23.6882C17.5468 24.9653 18.6283 25.9644 20.0085 26.6853C21.3886 27.4063 22.9644 27.7668 24.736 27.7668ZM64.6883 65.8034C62.6489 65.8034 60.898 65.0824 59.4355 63.6404C57.9935 62.1779 57.2725 60.427 57.2725 58.3876C57.2725 56.3689 57.9935 54.6386 59.4355 53.1966C60.898 51.7547 62.6489 51.0337 64.6883 51.0337C66.6658 51.0337 68.3961 51.7547 69.8793 53.1966C71.3624 54.6386 72.104 56.3689 72.104 58.3876C72.104 59.7472 71.7538 60.9934 71.0535 62.1264C70.3737 63.2388 69.4776 64.1348 68.3652 64.8146C67.2529 65.4738 66.0272 65.8034 64.6883 65.8034Z" fill="#97A483"/>
</svg>
