<svg width="72" height="66" viewBox="0 0 72 66" fill="none" xmlns="http://www.w3.org/2000/svg">
<path d="M24.5197 65.8652C19.9055 65.8652 15.7959 65.0721 12.191 63.486C8.60676 61.8792 5.77436 59.6751 3.69383 56.8736C1.6339 54.0515 0.573039 50.7968 0.511241 47.1095H13.9832C14.0656 48.6545 14.5702 50.014 15.4972 51.1882C16.4448 52.3417 17.7013 53.2378 19.2669 53.8764C20.8324 54.515 22.5937 54.8343 24.5506 54.8343C26.5899 54.8343 28.3924 54.4738 29.9579 53.7528C31.5234 53.0318 32.7491 52.0328 33.6349 50.7556C34.5206 49.4784 34.9635 48.0056 34.9635 46.3371C34.9635 44.6479 34.4897 43.1545 33.5422 41.8567C32.6152 40.5384 31.2763 39.5084 29.5253 38.7668C27.795 38.0253 25.7351 37.6545 23.3455 37.6545H17.4438V27.8286H23.3455C25.3643 27.8286 27.1461 27.4784 28.691 26.778C30.2566 26.0777 31.4719 25.1095 32.3371 23.8736C33.2023 22.617 33.6349 21.1544 33.6349 19.4859C33.6349 17.8998 33.2538 16.5093 32.4916 15.3146C31.75 14.0992 30.6995 13.1516 29.3399 12.4719C28.001 11.7921 26.4354 11.4522 24.6433 11.4522C22.8306 11.4522 21.1723 11.7818 19.6686 12.441C18.1648 13.0795 16.9598 13.9962 16.0534 15.191C15.147 16.3857 14.6629 17.7865 14.6011 19.3932H1.7781C1.83989 15.7471 2.88016 12.5336 4.89889 9.75275C6.91762 6.97185 9.63672 4.79862 13.0562 3.23308C16.4963 1.64693 20.3792 0.853861 24.7051 0.853861C29.0721 0.853861 32.8933 1.64693 36.1686 3.23308C39.4439 4.81922 41.9879 6.96155 43.8006 9.66005C45.634 12.338 46.5403 15.3455 46.5197 18.6825C46.5403 22.2256 45.4383 25.1816 43.2135 27.5505C41.0094 29.9194 38.1358 31.4232 34.5927 32.0618V32.5561C39.2482 33.1535 42.7913 34.7706 45.222 37.4073C47.6733 40.0234 48.8886 43.2987 48.868 47.2331C48.8886 50.838 47.8484 54.0412 45.7472 56.8427C43.6667 59.6442 40.7931 61.8483 37.1264 63.4551C33.4598 65.0618 29.2575 65.8652 24.5197 65.8652ZM64.5183 65.8034C62.479 65.8034 60.7281 65.0824 59.2655 63.6404C57.8236 62.1779 57.1026 60.427 57.1026 58.3876C57.1026 56.3689 57.8236 54.6386 59.2655 53.1966C60.7281 51.7547 62.479 51.0337 64.5183 51.0337C66.4959 51.0337 68.2262 51.7547 69.7094 53.1966C71.1925 54.6386 71.9341 56.3689 71.9341 58.3876C71.9341 59.7472 71.5839 60.9934 70.8835 62.1264C70.2037 63.2388 69.3077 64.1348 68.1953 64.8146C67.0829 65.4738 65.8573 65.8034 64.5183 65.8034Z" fill="#97A483"/>
</svg>
