<svg width="72" height="66" viewBox="0 0 72 66" fill="none" xmlns="http://www.w3.org/2000/svg">
<path d="M25.4158 65.8652C22.1611 65.8446 19.0197 65.2987 15.9916 64.2275C12.9841 63.1564 10.2856 61.4157 7.89608 59.0056C5.50656 56.5955 3.61143 53.4026 2.21068 49.4269C0.83053 45.4513 0.140454 40.5693 0.140454 34.7809C0.161053 29.4663 0.768732 24.7181 1.96349 20.5365C3.17885 16.3342 4.90919 12.7705 7.15451 9.84544C9.42043 6.92035 12.1292 4.69563 15.2809 3.17128C18.4326 1.62633 21.9654 0.853861 25.8792 0.853861C30.1021 0.853861 33.8306 1.67783 37.0647 3.32578C40.2987 4.95312 42.8942 7.16754 44.8512 9.96904C46.8287 12.7705 48.0235 15.9119 48.4355 19.3932H35.2416C34.7266 17.1891 33.6452 15.4587 31.9972 14.2022C30.3493 12.9456 28.31 12.3174 25.8792 12.3174C21.7594 12.3174 18.6283 14.1095 16.486 17.6938C14.3643 21.278 13.2828 26.1498 13.2416 32.309H13.6742C14.6217 30.4344 15.8989 28.838 17.5056 27.5196C19.133 26.1807 20.9766 25.161 23.0365 24.4606C25.1171 23.7397 27.3109 23.3792 29.618 23.3792C33.3671 23.3792 36.7042 24.2649 39.6293 26.0365C42.5544 27.7874 44.8615 30.1975 46.5506 33.2668C48.2398 36.3361 49.0843 39.8483 49.0843 43.8033C49.0843 48.088 48.0853 51.8989 46.0871 55.2359C44.1096 58.573 41.339 61.1891 37.7753 63.0843C34.2323 64.9588 30.1124 65.8858 25.4158 65.8652ZM25.354 55.3595C27.4139 55.3595 29.2575 54.8652 30.8849 53.8764C32.5122 52.8876 33.7894 51.5487 34.7163 49.8595C35.6433 48.1704 36.1068 46.2753 36.1068 44.1741C36.1068 42.073 35.6433 40.1882 34.7163 38.5196C33.81 36.8511 32.5534 35.5224 30.9467 34.5337C29.3399 33.5449 27.5066 33.0505 25.4467 33.0505C23.9017 33.0505 22.4701 33.3389 21.1517 33.9157C19.854 34.4925 18.7107 35.2958 17.7219 36.3258C16.7538 37.3558 15.9916 38.5505 15.4354 39.9101C14.8792 41.249 14.6011 42.6807 14.6011 44.205C14.6011 46.2444 15.0646 48.1086 15.9916 49.7977C16.9392 51.4869 18.2163 52.8361 19.8231 53.8455C21.4504 54.8549 23.294 55.3595 25.354 55.3595ZM63.7536 65.8034C61.7143 65.8034 59.9633 65.0824 58.5008 63.6404C57.0588 62.1779 56.3378 60.427 56.3378 58.3876C56.3378 56.3689 57.0588 54.6386 58.5008 53.1966C59.9633 51.7547 61.7143 51.0337 63.7536 51.0337C65.7311 51.0337 67.4615 51.7547 68.9446 53.1966C70.4278 54.6386 71.1693 56.3689 71.1693 58.3876C71.1693 59.7472 70.8191 60.9934 70.1188 62.1264C69.439 63.2388 68.5429 64.1348 67.4306 64.8146C66.3182 65.4738 65.0925 65.8034 63.7536 65.8034Z" fill="#97A483"/>
</svg>
