<svg width="70" height="65" viewBox="0 0 70 65" fill="none" xmlns="http://www.w3.org/2000/svg">
<path d="M23.2416 64.8652C18.8746 64.8652 14.9813 64.0618 11.5618 62.4551C8.16294 60.8483 5.46443 58.6339 3.4663 55.8118C1.46817 52.9897 0.427909 49.7556 0.345511 46.1095H13.3231C13.4672 48.5608 14.4972 50.5487 16.4129 52.073C18.3287 53.5974 20.6049 54.3595 23.2416 54.3595C25.3427 54.3595 27.1967 53.8961 28.8034 52.9691C30.4308 52.0215 31.6976 50.7135 32.604 49.0449C33.5309 47.3558 33.9944 45.4195 33.9944 43.2359C33.9944 41.0112 33.5206 39.0543 32.5731 37.3651C31.6461 35.676 30.3587 34.3576 28.7107 33.4101C27.0628 32.4625 25.1779 31.9784 23.0562 31.9578C21.2023 31.9578 19.3998 32.3389 17.6489 33.1011C15.9186 33.8633 14.5693 34.9035 13.6011 36.2219L1.70506 34.0899L4.70226 0.719031H43.3877V11.6572H15.7332L14.0955 27.5084H14.4663C15.5787 25.9428 17.2575 24.6451 19.5028 23.6151C21.7482 22.5852 24.2613 22.0702 27.0422 22.0702C30.853 22.0702 34.2519 22.9662 37.2388 24.7584C40.2257 26.5505 42.5843 29.0121 44.3147 32.1432C46.045 35.2537 46.8999 38.838 46.8793 42.896C46.8999 47.1601 45.9111 50.9504 43.913 54.2668C41.9354 57.5627 39.1648 60.1582 35.6012 62.0534C32.0581 63.9279 27.9382 64.8652 23.2416 64.8652ZM61.9888 64.8034C59.9495 64.8034 58.1986 64.0824 56.736 62.6404C55.2941 61.1779 54.5731 59.427 54.5731 57.3876C54.5731 55.3689 55.2941 53.6386 56.736 52.1966C58.1986 50.7547 59.9495 50.0337 61.9888 50.0337C63.9664 50.0337 65.6967 50.7547 67.1799 52.1966C68.663 53.6386 69.4046 55.3689 69.4046 57.3876C69.4046 58.7472 69.0544 59.9934 68.354 61.1264C67.6742 62.2388 66.7782 63.1348 65.6658 63.8146C64.5534 64.4738 63.3278 64.8034 61.9888 64.8034Z" fill="#97A483"/>
</svg>
