<svg width="127" height="21" viewBox="0 0 127 21" fill="none" xmlns="http://www.w3.org/2000/svg">
<path d="M10.6241 1L13.6308 7.09129L20.3545 8.07407L15.4893 12.8128L16.6375 19.5074L10.6241 16.345L4.6106 19.5074L5.7588 12.8128L0.893555 8.07407L7.61733 7.09129L10.6241 1Z" fill="#FFA800" stroke="#FFA800" stroke-width="1.69333" stroke-linecap="round" stroke-linejoin="round"/>
<path d="M37.0352 1L40.0419 7.09129L46.7657 8.07407L41.9004 12.8128L43.0486 19.5074L37.0352 16.345L31.0217 19.5074L32.1699 12.8128L27.3047 8.07407L34.0285 7.09129L37.0352 1Z" fill="#FFA800" stroke="#FFA800" stroke-width="1.69333" stroke-linecap="round" stroke-linejoin="round"/>
<path d="M63.7251 1L66.7318 7.09129L73.4556 8.07407L68.5904 12.8128L69.7386 19.5074L63.7251 16.345L57.7117 19.5074L58.8599 12.8128L53.9946 8.07407L60.7184 7.09129L63.7251 1Z" fill="#FFA800" stroke="#FFA800" stroke-width="1.69333" stroke-linecap="round" stroke-linejoin="round"/>
<path d="M90.1363 1L93.143 7.09129L99.8668 8.07407L95.0015 12.8128L96.1497 19.5074L90.1363 16.345L84.1228 19.5074L85.271 12.8128L80.4058 8.07407L87.1295 7.09129L90.1363 1Z" fill="#FFA800" stroke="#FFA800" stroke-width="1.69333" stroke-linecap="round" stroke-linejoin="round"/>
<path d="M116.27 1L119.276 7.09129L126 8.07407L121.135 12.8128L122.283 19.5074L116.27 16.345L110.256 19.5074L111.404 12.8128L106.539 8.07407L113.263 7.09129L116.27 1Z" fill="#FFA800" stroke="#FFA800" stroke-width="1.69333" stroke-linecap="round" stroke-linejoin="round"/>
</svg>
