<svg width="68" height="68" viewBox="0 0 68 68" fill="none" xmlns="http://www.w3.org/2000/svg">
<circle cx="34" cy="34" r="32.5" transform="matrix(-1 0 0 1 68 0)" stroke="#2D2D2D" stroke-width="3"/>
<path d="M50 32.5C50.8284 32.5 51.5 33.1716 51.5 34C51.5 34.8284 50.8284 35.5 50 35.5V32.5ZM16.9393 35.0607C16.3536 34.4749 16.3536 33.5251 16.9393 32.9393L26.4853 23.3934C27.0711 22.8076 28.0208 22.8076 28.6066 23.3934C29.1924 23.9792 29.1924 24.9289 28.6066 25.5147L20.1213 34L28.6066 42.4853C29.1924 43.0711 29.1924 44.0208 28.6066 44.6066C28.0208 45.1924 27.0711 45.1924 26.4853 44.6066L16.9393 35.0607ZM50 35.5H18V32.5H50V35.5Z" fill="#2D2D2D"/>
</svg>
