<svg width="68" height="68" viewBox="0 0 68 68" fill="none" xmlns="http://www.w3.org/2000/svg">
<circle cx="34" cy="34" r="32.5" stroke="#2D2D2D" stroke-width="3"/>
<path d="M18 32.5C17.1716 32.5 16.5 33.1716 16.5 34C16.5 34.8284 17.1716 35.5 18 35.5V32.5ZM51.0607 35.0607C51.6464 34.4749 51.6464 33.5251 51.0607 32.9393L41.5147 23.3934C40.9289 22.8076 39.9792 22.8076 39.3934 23.3934C38.8076 23.9792 38.8076 24.9289 39.3934 25.5147L47.8787 34L39.3934 42.4853C38.8076 43.0711 38.8076 44.0208 39.3934 44.6066C39.9792 45.1924 40.9289 45.1924 41.5147 44.6066L51.0607 35.0607ZM18 35.5H50V32.5H18V35.5Z" fill="#2D2D2D"/>
</svg>
