<svg width="108" height="129" viewBox="0 0 108 129" fill="none" xmlns="http://www.w3.org/2000/svg">
<path d="M2 74.4479C2 103.254 25.3288 126.606 54.1063 126.606C82.8838 126.606 106.213 103.254 106.213 74.4479C106.213 45.6416 82.8838 22.2894 54.1063 22.2894M2 74.4479C2 45.6416 25.3288 22.2894 54.1063 22.2894M2 74.4479H9.44376M54.1063 22.2894V29.7406M54.1063 119.155V124.123M15.133 110.249L20.3965 104.98M23.905 40.7044L18.6415 35.4356M93.3801 110.249L88.1166 104.98M84.6081 40.7044L89.8716 35.4356M98.7689 74.4479H103.731M91.3251 74.4479C91.3251 95.0238 74.6617 111.704 54.1063 111.704C33.5509 111.704 16.8875 95.0238 16.8875 74.4479C16.8875 53.8719 33.5509 37.1918 54.1063 37.1918C74.6617 37.1918 91.3251 53.8719 91.3251 74.4479ZM61.5501 9.87076C61.5501 13.9859 58.2174 17.322 54.1063 17.322C49.9952 17.322 46.6626 13.9859 46.6626 9.87076C46.6626 5.75557 49.9952 2.41956 54.1063 2.41956C58.2174 2.41956 61.5501 5.75557 61.5501 9.87076ZM61.5501 74.4479C61.5501 78.563 58.2174 81.8991 54.1063 81.8991C49.9952 81.8991 46.6626 78.563 46.6626 74.4479C46.6626 70.3327 49.9952 66.9967 54.1063 66.9967C58.2174 66.9967 61.5501 70.3327 61.5501 74.4479ZM71.4106 57.3028L65.2554 85.6085L36.978 91.7698L43.1332 63.464L71.4106 57.3028Z" stroke="#345E40" stroke-width="3" stroke-linejoin="round"/>
</svg>
