<svg width="83" height="118" viewBox="0 0 83 118" fill="none" xmlns="http://www.w3.org/2000/svg">
<path d="M43.703 74.5148C48.8565 74.5148 53.0343 70.348 53.0343 65.2079C53.0343 60.0679 43.703 48.9209 43.703 48.9209C43.703 48.9209 34.3718 60.0679 34.3718 65.2079C34.3718 70.348 38.5495 74.5148 43.703 74.5148ZM43.703 74.5148C46.2798 74.5148 48.3686 72.242 48.3686 69.4383C48.3686 66.6347 43.703 60.5545 43.703 60.5545C43.703 60.5545 39.0374 66.6347 39.0374 69.4383C39.0374 72.242 41.1263 74.5148 43.703 74.5148ZM43.703 74.5148C34.3718 74.5148 32.039 83.8217 32.039 83.8217M43.703 74.5148C53.0343 74.5148 55.3671 83.8217 55.3671 83.8217M51.7859 18.6736C52.5798 17.3046 53.0343 15.7153 53.0343 14.0201C53.0343 8.88008 48.8565 4.71325 43.703 4.71325C38.5495 4.71325 34.3718 8.88008 34.3718 14.0201C34.3718 15.7153 34.8262 17.3046 35.6202 18.6736M51.7859 18.6736H62.3655C64.9422 18.6736 67.0311 20.757 67.0311 23.327V27.9804H20.375V23.327C20.375 20.757 22.4639 18.6736 25.0406 18.6736H35.6202M51.7859 18.6736H35.6202M11.0438 27.9804H76.3623V83.8217H11.0438V27.9804ZM81.0279 116.396V111.742C81.0279 109.172 78.9391 107.089 76.3623 107.089H11.0438C8.46703 107.089 6.37816 109.172 6.37816 111.742V116.396H81.0279ZM75.0095 107.089H12.3958C16.4108 93.6335 28.9075 83.8217 43.7023 83.8217C58.497 83.8217 70.9945 93.6335 75.0095 107.089ZM42.1524 8.38395C46.4232 15.9485 41.2316 26.9411 30.5567 32.9365C19.8817 38.932 7.76582 37.6599 3.49503 30.0954C-0.775761 22.5308 4.41583 11.5383 15.0908 5.54282C25.7657 -0.452624 37.8816 0.819393 42.1524 8.38395Z" stroke="#345E40" stroke-width="3" stroke-linejoin="round"/>
</svg>
