<svg width="24" height="20" viewBox="0 0 24 20" fill="none" xmlns="http://www.w3.org/2000/svg">
<path d="M23 1.942C22.0424 2.57208 20.9821 3.054 19.86 3.36918C19.2577 2.72323 18.4573 2.26539 17.567 2.0576C16.6767 1.8498 15.7395 1.90207 14.8821 2.20734C14.0247 2.5126 13.2884 3.05613 12.773 3.76442C12.2575 4.47271 11.9877 5.31158 12 6.16758V7.10038C10.2426 7.14289 8.50127 6.77932 6.93101 6.04207C5.36074 5.30481 4.01032 4.21676 3 2.8748C3 2.8748 -1 11.27 8 15.0012C5.94053 16.3052 3.48716 16.9591 1 16.8668C10 21.5308 21 16.8668 21 6.1396C20.9991 5.87977 20.9723 5.62058 20.92 5.36537C21.9406 4.4265 22.6608 3.24112 23 1.942Z" stroke="white" stroke-width="2" stroke-linecap="round" stroke-linejoin="round"/>
</svg>
